%FSDAX24Y24*%
%MOIN*%
%SFA1B1*%

%IPPOS*%
%ADD10R,0.043300X0.043300*%
%ADD14R,0.080000X0.025600*%
%ADD15O,0.080000X0.025600*%
%ADD38R,0.027600X0.027600*%
%ADD39R,0.027600X0.027600*%
%ADD41R,0.043300X0.043300*%
%ADD44C,0.008000*%
%ADD45C,0.020000*%
%ADD46C,0.010000*%
%ADD47C,0.030000*%
%ADD48C,0.016000*%
%ADD50C,0.040000*%
%ADD52C,0.060000*%
%ADD53C,0.059100*%
%ADD54C,0.055100*%
%ADD55C,0.063000*%
%ADD56R,0.059100X0.059100*%
%ADD57C,0.070000*%
%ADD58C,0.078700*%
%ADD59R,0.078700X0.078700*%
%ADD60O,0.118100X0.082700*%
%ADD61O,0.082700X0.118100*%
%ADD62C,0.149600*%
%ADD63C,0.098400*%
%ADD64R,0.078700X0.078700*%
%ADD65R,0.070000X0.070000*%
%ADD66C,0.118100*%
%ADD67C,0.110200*%
%ADD68C,0.090600*%
%ADD69C,0.040000*%
%ADD70C,0.050000*%
%ADD71C,0.036000*%
%ADD72R,0.043300X0.023600*%
%ADD73R,0.070100X0.061000*%
%ADD74O,0.080000X0.024000*%
%ADD75R,0.080000X0.024000*%
%ADD76R,0.043300X0.023600*%
%ADD77R,0.023600X0.043300*%
%ADD78R,0.039400X0.039400*%
%ADD79R,0.043300X0.051200*%
%ADD80R,0.035400X0.017700*%
%ADD81R,0.047200X0.035400*%
%ADD82R,0.043300X0.059100*%
%ADD83R,0.035400X0.078700*%
%LNpcb1-1*%
%LPD*%
G36*
X045741Y027549D02*
Y027547D01*
Y026330*
X045525Y026114*
X043286*
X043274Y026143*
X043246Y026180*
X043268Y026225*
X045370*
X045409Y026233*
X045442Y026255*
X045600Y026412*
X045622Y026445*
X045630Y026484*
Y027505*
X045697Y027572*
X045741Y027549*
G37*
G36*
X054166Y026972D02*
Y024086D01*
X053026Y022946*
X052997Y022958*
X052929Y022967*
X052861Y022958*
X052798Y022932*
X052744Y022890*
X052702Y022836*
X052676Y022773*
X052667Y022705*
X052673Y022660*
X052657Y022653*
X052614Y022679*
Y023355*
X052652Y023388*
X052654Y023387*
X052721Y023396*
X052785Y023423*
X052839Y023464*
X052881Y023518*
X052907Y023582*
X052916Y023650*
X052907Y023717*
X052881Y023781*
X052839Y023835*
X052785Y023877*
X052721Y023903*
X052699Y023906*
X052614Y023991*
Y024238*
X052656Y024266*
X052664Y024262*
X052732Y024253*
X052800Y024262*
X052863Y024289*
X052918Y024330*
X052959Y024385*
X052986Y024448*
X052995Y024516*
X052986Y024584*
X052959Y024647*
X052918Y024701*
X052863Y024743*
X052834Y024755*
Y025576*
X053946Y026688*
X053968Y026721*
X053976Y026760*
Y026836*
X054005Y026848*
X054059Y026889*
X054101Y026944*
X054117Y026981*
X054166Y026972*
G37*
G36*
X067764Y020894D02*
X067770Y020861D01*
X067789Y020832*
X067791Y020831*
X067776Y020784*
X065627*
X065608Y020830*
X065993Y021215*
X066015Y021248*
X066023Y021287*
Y024670*
X066052Y024682*
X066107Y024724*
X066148Y024778*
X066175Y024842*
X066184Y024909*
X066175Y024977*
X066148Y025041*
X066107Y025095*
X066052Y025137*
X065989Y025163*
X065921Y025172*
X065853Y025163*
X065790Y025137*
X065736Y025095*
X065694Y025041*
X065668Y024977*
X065659Y024909*
X065668Y024842*
X065694Y024778*
X065736Y024724*
X065790Y024682*
X065819Y024670*
Y021330*
X065485Y020996*
X060238*
X060224Y021044*
X060245Y021058*
X060521Y021333*
X060543Y021366*
X060551Y021406*
Y024788*
X060580Y024800*
X060634Y024842*
X060676Y024896*
X060702Y024960*
X060711Y025028*
X060702Y025095*
X060676Y025159*
X060634Y025213*
X060580Y025255*
X060517Y025281*
X060449Y025290*
X060381Y025281*
X060318Y025255*
X060263Y025213*
X060222Y025159*
X060196Y025095*
X060187Y025028*
X060196Y024960*
X060222Y024896*
X060263Y024842*
X060318Y024800*
X060347Y024788*
Y021448*
X060131Y021232*
X054034*
X052863Y022403*
X052885Y022448*
X052929Y022442*
X052997Y022451*
X053060Y022478*
X053115Y022519*
X053156Y022574*
X053182Y022637*
X053191Y022705*
X053182Y022773*
X053170Y022802*
X054340Y023971*
X054362Y024004*
X054370Y024043*
Y028020*
X054362Y028059*
X054340Y028092*
X054012Y028419*
X054009Y028442*
X053983Y028505*
X053941Y028559*
X053887Y028601*
X053824Y028627*
X053756Y028636*
X053688Y028627*
X053625Y028601*
X053570Y028559*
X053529Y028505*
X053503Y028442*
X053494Y028374*
X053503Y028306*
X053529Y028243*
X053570Y028189*
X053625Y028147*
X053688Y028121*
X053756Y028112*
X053824Y028121*
X053887Y028147*
X053941Y028189*
X053954*
X054166Y027977*
Y027178*
X054117Y027168*
X054101Y027206*
X054059Y027260*
X054005Y027302*
X053942Y027328*
X053874Y027337*
X053806Y027328*
X053743Y027302*
X053689Y027260*
X053669Y027235*
X053622Y027251*
Y027426*
X053659Y027463*
X053688Y027451*
X053756Y027442*
X053824Y027451*
X053887Y027478*
X053941Y027519*
X053983Y027574*
X054009Y027637*
X054018Y027705*
X054009Y027773*
X053983Y027836*
X053941Y027890*
X053887Y027932*
X053824Y027958*
X053756Y027967*
X053688Y027958*
X053625Y027932*
X053570Y027890*
X053529Y027836*
X053503Y027773*
X053494Y027705*
X053503Y027637*
X053515Y027608*
X053448Y027541*
X053425Y027508*
X053418Y027469*
Y026920*
X052660Y026163*
X052614Y026182*
Y034210*
X052631Y034251*
X052640Y034319*
X052631Y034387*
X052614Y034428*
Y035316*
X053671Y036373*
X053693Y036406*
X053700Y036445*
Y037347*
X053730Y037359*
X053784Y037401*
X053826Y037455*
X053852Y037519*
X053861Y037587*
X053852Y037654*
X053826Y037718*
X053784Y037772*
X053730Y037814*
X053666Y037840*
X053598Y037849*
X053531Y037840*
X053467Y037814*
X053413Y037772*
X053371Y037718*
X053345Y037654*
X053336Y037587*
X053345Y037519*
X053371Y037455*
X053413Y037401*
X053467Y037359*
X053496Y037347*
Y036487*
X052660Y035651*
X052614Y035670*
Y037813*
X052642Y037834*
X052684Y037889*
X052710Y037952*
X052719Y038020*
X052710Y038088*
X052684Y038151*
X052642Y038205*
X052614Y038227*
Y040067*
X059332Y046785*
X059377Y046762*
X059366Y046681*
X059380Y046574*
X059421Y046474*
X059487Y046389*
X059573Y046323*
X059672Y046282*
X059780Y046268*
X059887Y046282*
X059986Y046323*
X060072Y046389*
X060138Y046474*
X060179Y046574*
X060193Y046681*
X060179Y046788*
X060138Y046888*
X060072Y046974*
X059986Y047039*
X059924Y047065*
X059934Y047114*
X061254*
X061276Y047069*
X061237Y047022*
X061181Y046916*
X061146Y046801*
X061134Y046681*
X061146Y046561*
X061181Y046446*
X061237Y046340*
X061314Y046247*
X061407Y046170*
X061513Y046114*
X061628Y046079*
X061748Y046067*
X061868Y046079*
X061983Y046114*
X062089Y046170*
X062182Y046247*
X062259Y046340*
X062315Y046446*
X062350Y046561*
X062362Y046681*
X062350Y046801*
X062315Y046916*
X062259Y047022*
X062220Y047069*
X062242Y047114*
X063420*
X063441Y047069*
X063403Y047022*
X063346Y046916*
X063311Y046801*
X063299Y046681*
X063311Y046561*
X063346Y046446*
X063403Y046340*
X063479Y046247*
X063572Y046170*
X063678Y046114*
X063794Y046079*
X063913Y046067*
X064033Y046079*
X064148Y046114*
X064255Y046170*
X064348Y046247*
X064424Y046340*
X064481Y046446*
X064516Y046561*
X064528Y046681*
X064516Y046801*
X064481Y046916*
X064424Y047022*
X064386Y047069*
X064407Y047114*
X067764*
Y020894*
G37*
G36*
X045447Y027606D02*
X045433Y027586D01*
X045426Y027547*
Y026526*
X045328Y026429*
X043814*
X043798Y026476*
X043823Y026496*
X043865Y026550*
X043877Y026579*
X045055*
X045094Y026587*
X045127Y026609*
X045324Y026806*
X045346Y026839*
X045354Y026878*
Y027584*
X045408Y027638*
X045447Y027606*
G37*
G36*
X053794Y020830D02*
X053775Y020784D01*
X052614*
Y021944*
X052660Y021963*
X053794Y020830*
G37*
G36*
X067764Y047429D02*
X059622D01*
X058685Y046492*
X058639Y046511*
Y046997*
X058474*
Y047625*
X058639*
Y048257*
X058474*
Y048530*
X058466Y048572*
X058442Y048609*
X058363Y048687*
Y048967*
X058403*
Y049135*
X057770*
Y048967*
X057810*
Y048627*
X058106*
X058250Y048483*
Y048257*
X058086*
Y048053*
X057025*
Y048139*
X056629*
Y047743*
X057025*
Y047829*
X058086*
Y047625*
X058250*
Y046997*
X058086*
Y046365*
X058493*
X058512Y046319*
X058402Y046209*
X058165Y045972*
X055961*
Y044280*
X055803Y044122*
X053905Y042224*
X053859Y042243*
Y043077*
X053902Y043110*
X053944Y043164*
X053970Y043227*
X053979Y043295*
X053970Y043363*
X053944Y043426*
X053902Y043481*
X053848Y043522*
X053784Y043549*
X053717Y043558*
X053649Y043549*
X053585Y043522*
X053531Y043481*
X053489Y043426*
X053463Y043363*
X053454Y043295*
X053463Y043227*
X053489Y043164*
X053531Y043110*
X053574Y043077*
Y042213*
X053258Y041897*
X053205Y041904*
X053137Y041895*
X053074Y041869*
X053019Y041827*
X052978Y041773*
X052951Y041710*
X052942Y041642*
X052951Y041574*
X052978Y041511*
X053019Y041456*
X053056Y041428*
X053059Y041378*
X052535Y040854*
X052090*
X052071Y040901*
X052497Y041326*
X052521Y041363*
X052529Y041406*
Y042934*
X053657Y044062*
X053676Y044054*
X053744Y044045*
X053812Y044054*
X053875Y044080*
X053930Y044122*
X053971Y044176*
X053997Y044239*
X054006Y044307*
X053997Y044375*
X053971Y044438*
X053930Y044493*
X053875Y044534*
X053812Y044560*
X053744Y044569*
X053676Y044560*
X053613Y044534*
X053559Y044493*
X053517Y044438*
X053491Y044375*
X053482Y044307*
X053491Y044239*
X053499Y044220*
X052338Y043060*
X052314Y043023*
X052305Y042980*
Y041452*
X051691Y040838*
X051642Y040848*
X051629Y040880*
X051660Y040920*
X051686Y040983*
X051695Y041051*
X051686Y041119*
X051660Y041182*
X051619Y041237*
X051564Y041278*
X051535Y041290*
Y041403*
X051887Y041755*
X051916Y041743*
X051984Y041734*
X052052Y041743*
X052115Y041769*
X052170Y041811*
X052211Y041865*
X052238Y041928*
X052246Y041996*
X052238Y042064*
X052211Y042127*
X052170Y042182*
X052115Y042223*
X052052Y042249*
X051984Y042258*
X051916Y042249*
X051853Y042223*
X051799Y042182*
X051757Y042127*
X051731Y042064*
X051722Y041996*
X051731Y041928*
X051743Y041899*
X051361Y041517*
X051339Y041484*
X051331Y041445*
Y041290*
X051302Y041278*
X051248Y041237*
X051206Y041182*
X051203Y041175*
X051154Y041182*
X051145Y041250*
X051113Y041326*
X051064Y041390*
X050999Y041440*
X050955Y041458*
Y043249*
X051040Y043334*
X051064Y043370*
X051073Y043413*
Y043597*
X051117Y043615*
X051182Y043665*
X051231Y043729*
X051263Y043805*
X051273Y043886*
X051263Y043967*
X051231Y044042*
X051182Y044107*
X051117Y044157*
X051042Y044188*
X050961Y044198*
X050880Y044188*
X050804Y044157*
X050740Y044107*
X050690Y044042*
X050659Y043967*
X050648Y043886*
X050659Y043805*
X050690Y043729*
X050740Y043665*
X050804Y043615*
X050848Y043597*
Y043460*
X050763Y043375*
X050739Y043338*
X050730Y043295*
Y041458*
X050686Y041440*
X050621Y041390*
X050572Y041326*
X050540Y041250*
X050530Y041169*
X050540Y041088*
X050572Y041013*
X050621Y040948*
X050686Y040899*
X050762Y040867*
X050843Y040857*
X050923Y040867*
X050999Y040899*
X051064Y040948*
X051113Y041013*
X051124Y041038*
X051173Y041032*
X051180Y040983*
X051206Y040920*
X051248Y040866*
X051302Y040824*
X051365Y040798*
X051375Y040797*
X051395Y040750*
X051363Y040710*
X051337Y040647*
X051328Y040579*
X051337Y040511*
X051363Y040448*
X051405Y040393*
X051459Y040352*
X051523Y040325*
X051591Y040317*
X051658Y040325*
X051722Y040352*
X051776Y040393*
X051818Y040448*
X051844Y040511*
X051853Y040579*
X051844Y040647*
X051836Y040666*
X051938Y040768*
X051984Y040749*
Y036235*
X051875Y036125*
X051828Y036144*
Y036316*
X051562*
Y036050*
X051734*
X051753Y036003*
X050335Y034586*
X049831*
Y034210*
X050751*
Y034586*
X050689*
X050670Y034632*
X051938Y035900*
X051984Y035881*
Y029883*
X051954Y029844*
X051928Y029780*
X051919Y029713*
X051928Y029645*
Y029643*
X051833Y029548*
X051811Y029515*
X051804Y029476*
Y026030*
X051756Y026014*
X051737Y026040*
X051682Y026081*
X051619Y026108*
X051551Y026117*
X051483Y026108*
X051420Y026081*
X051366Y026040*
X051324Y025985*
X051298Y025922*
X051295Y025901*
X051187Y025793*
X050410*
Y025855*
X049857*
Y025793*
X049662*
Y025855*
X049109*
Y025793*
X047260*
X047178Y025777*
X047108Y025730*
X046560Y025182*
X046510*
X046360Y025331*
Y025416*
X046382Y025433*
X046424Y025487*
X046450Y025550*
X046459Y025618*
X046450Y025686*
X046438Y025715*
X046899Y026176*
X046921Y026209*
X046929Y026248*
Y026641*
X047103*
Y027194*
X046550*
Y026641*
X046725*
Y026290*
X046294Y025859*
X046265Y025871*
X046197Y025880*
X046129Y025871*
X046066Y025845*
X046011Y025804*
X045994Y025781*
X043267*
X043233Y025826*
X043274Y025881*
X043286Y025910*
X045567*
X045606Y025918*
X045639Y025940*
X045915Y026215*
X045937Y026248*
X045944Y026287*
Y027505*
X047096Y028656*
X047118Y028689*
X047126Y028728*
Y029277*
X047155Y029289*
X047209Y029330*
X047251Y029385*
X047277Y029448*
X047286Y029516*
X047277Y029584*
X047251Y029647*
X047209Y029701*
X047155Y029743*
X047091Y029769*
X047024Y029778*
X046956Y029769*
X046892Y029743*
X046838Y029701*
X046797Y029647*
X046770Y029584*
X046761Y029516*
X046770Y029448*
X046797Y029385*
X046838Y029330*
X046892Y029289*
X046922Y029277*
Y028771*
X046658Y028507*
X046613Y028530*
X046614Y028531*
Y029240*
X046606Y029279*
X046584Y029312*
X046281Y029616*
X046293Y029645*
X046302Y029713*
X046293Y029780*
X046266Y029844*
X046225Y029898*
X046170Y029940*
X046107Y029966*
X046039Y029975*
X045971Y029966*
X045908Y029940*
X045854Y029898*
X045812Y029844*
X045786Y029780*
X045777Y029713*
X045786Y029645*
X045812Y029581*
X045854Y029527*
X045908Y029485*
X045971Y029459*
X046039Y029450*
X046107Y029459*
X046136Y029471*
X046410Y029198*
Y028574*
X046159Y028323*
X046120Y028355*
X046134Y028374*
X046141Y028413*
Y028765*
X046170Y028777*
X046225Y028819*
X046266Y028873*
X046293Y028936*
X046302Y029004*
X046293Y029072*
X046266Y029135*
X046225Y029189*
X046170Y029231*
X046107Y029257*
X046039Y029266*
X045971Y029257*
X045908Y029231*
X045854Y029189*
X045812Y029135*
X045786Y029072*
X045777Y029004*
X045786Y028936*
X045812Y028873*
X045854Y028819*
X045908Y028777*
X045937Y028765*
Y028456*
X045180Y027698*
X045158Y027665*
X045150Y027626*
Y026920*
X045013Y026783*
X043877*
X043865Y026812*
X043823Y026867*
X043769Y026908*
X043706Y026934*
X043638Y026943*
X043570Y026934*
X043507Y026908*
X043452Y026867*
X043411Y026812*
X043384Y026749*
X043376Y026681*
X043384Y026613*
X043411Y026550*
X043452Y026496*
X043478Y026476*
X043462Y026429*
X042302*
X042290Y026458*
X042248Y026512*
X042194Y026554*
X042131Y026580*
X042063Y026589*
X041995Y026580*
X041932Y026554*
X041878Y026512*
X041836Y026458*
X041810Y026395*
X041801Y026327*
X041810Y026259*
X041836Y026196*
X041878Y026141*
X041932Y026100*
X041995Y026073*
X042063Y026065*
X042131Y026073*
X042194Y026100*
X042248Y026141*
X042290Y026196*
X042302Y026225*
X042826*
X042849Y026180*
X042820Y026143*
X042794Y026080*
X042785Y026012*
X042794Y025944*
X042820Y025881*
X042862Y025826*
X042827Y025781*
X039893*
X039222Y026452*
Y028328*
X040535Y029640*
X041552*
X041560Y029621*
X041602Y029567*
X041656Y029525*
X041720Y029499*
X041787Y029490*
X041855Y029499*
X041874Y029507*
X041984Y029397*
X042020Y029373*
X042063Y029364*
X043040*
X043676Y028728*
Y028334*
X044229*
Y028887*
X043835*
X043166Y029556*
X043130Y029580*
X043087Y029589*
X042109*
X042033Y029665*
X042041Y029684*
X042050Y029752*
X042041Y029820*
X042015Y029883*
X041973Y029937*
X041919Y029979*
X041855Y030005*
X041787Y030014*
X041720Y030005*
X041656Y029979*
X041602Y029937*
X041560Y029883*
X041552Y029864*
X040488*
X040445Y029856*
X040409Y029831*
X039031Y028453*
X039007Y028417*
X038998Y028374*
Y026406*
X039007Y026363*
X039031Y026326*
X039530Y025827*
X039511Y025781*
X037879*
X036552Y027108*
Y028132*
X036574Y028149*
X036616Y028204*
X036642Y028267*
X036651Y028335*
X036642Y028403*
X036630Y028432*
X036861Y028663*
X037181*
X037251Y028677*
X037311Y028717*
X037350Y028776*
X037364Y028846*
X037350Y028917*
X037311Y028976*
X037251Y029016*
X037181Y029030*
X036621*
X036551Y029016*
X036491Y028976*
X036451Y028917*
X036437Y028846*
X036451Y028776*
X036491Y028717*
X036540Y028684*
X036545Y028634*
X036486Y028576*
X036457Y028588*
X036389Y028597*
X036321Y028588*
X036258Y028562*
X036204Y028520*
X036162Y028466*
X036136Y028403*
X036127Y028335*
X036136Y028267*
X036162Y028204*
X036204Y028149*
X036226Y028132*
Y027108*
X035884Y026765*
X027446*
X027069Y027142*
Y027716*
X027446Y028093*
X031545*
X031563Y028070*
X031617Y028029*
X031680Y028003*
X031748Y027994*
X031816Y028003*
X031879Y028029*
X031933Y028070*
X031975Y028125*
X032001Y028188*
X032010Y028256*
X032001Y028324*
X031975Y028387*
X031933Y028441*
X031911Y028458*
Y028664*
X031975Y028677*
X032035Y028717*
X032075Y028776*
X032089Y028846*
X032075Y028917*
X032035Y028976*
X031975Y029016*
X031905Y029030*
X031345*
X031275Y029016*
X031215Y028976*
X031176Y028917*
X031162Y028846*
X031176Y028776*
X031215Y028717*
X031275Y028677*
X031345Y028663*
X031578*
X031585Y028656*
Y028458*
X031563Y028441*
X031545Y028419*
X027378*
X027316Y028407*
X027263Y028371*
X026790Y027899*
X026755Y027846*
X026742Y027783*
Y027075*
X026755Y027012*
X026790Y026959*
X027263Y026487*
X027316Y026452*
X027378Y026439*
X035951*
X036014Y026452*
X036067Y026487*
X036389Y026809*
X037696Y025503*
X037749Y025467*
X037811Y025455*
X045994*
X046011Y025433*
X046034Y025416*
Y025264*
X046046Y025201*
X046053Y025191*
X046029Y025147*
X045853*
Y024881*
X046120*
Y025045*
X046166Y025064*
X046235Y024995*
Y024554*
X046788*
Y024804*
X047349Y025365*
X049109*
Y025302*
X049662*
Y025365*
X049857*
Y025302*
X050410*
Y025365*
X051276*
X051358Y025381*
X051427Y025427*
X051598Y025598*
X051619Y025601*
X051682Y025627*
X051737Y025669*
X051756Y025694*
X051804Y025678*
Y022862*
X051811Y022823*
X051833Y022790*
X051984Y022639*
Y020784*
X021468*
X021453Y020831*
X021455Y020832*
X021474Y020861*
X021480Y020894*
Y049744*
X054581*
Y049526*
X055214*
Y049744*
X055330*
Y049200*
X055494*
Y048689*
Y048217*
X055503Y048174*
X055527Y048137*
X055684Y047980*
Y047902*
X055378Y047596*
X055343Y047610*
X055332Y047615*
Y048217*
X055167*
Y048572*
X055186Y048580*
X055241Y048622*
X055282Y048676*
X055308Y048739*
X055317Y048807*
X055308Y048875*
X055282Y048938*
X055241Y048993*
X055186Y049034*
X055123Y049060*
X055055Y049069*
X054987Y049060*
X054924Y049034*
X054870Y048993*
X054828Y048938*
X054802Y048875*
X054793Y048807*
X054802Y048739*
X054828Y048676*
X054870Y048622*
X054924Y048580*
X054943Y048572*
Y048217*
X054779*
Y047586*
X055303*
X055307Y047575*
X055322Y047539*
X054779Y046997*
X054306*
Y046833*
X053874*
X053831Y046824*
X053795Y046800*
X053677Y046682*
X053652Y046645*
Y046644*
X053625Y046633*
X053570Y046591*
X053529Y046537*
X053503Y046473*
X053494Y046406*
X053503Y046338*
X053529Y046274*
X053570Y046220*
X053625Y046178*
X053638Y046173*
X053628Y046124*
X053520*
X053477Y046115*
X053440Y046091*
X053248Y045899*
X053224Y045863*
X053216Y045820*
Y045356*
X052828*
Y045609*
X052007*
Y044879*
X052305*
Y044707*
X049465*
X049422Y044698*
X049385Y044674*
X048873Y044162*
X048849Y044126*
X048841Y044083*
Y041563*
X048849Y041520*
X048873Y041484*
X049022Y041335*
X049014Y041316*
X049005Y041248*
X049014Y041180*
X049041Y041117*
X049082Y041063*
X049137Y041021*
X049200Y040995*
X049268Y040986*
X049336Y040995*
X049399Y041021*
X049453Y041063*
X049495Y041117*
X049521Y041180*
X049530Y041248*
X049521Y041316*
X049495Y041379*
X049453Y041433*
X049399Y041475*
X049336Y041501*
X049268Y041510*
X049200Y041501*
X049181Y041493*
X049065Y041609*
Y044036*
X049511Y044482*
X052378*
X052421Y044491*
X052457Y044515*
X052497Y044555*
X052521Y044591*
X052529Y044634*
Y044879*
X052828*
Y045132*
X053264*
X053307Y045140*
X053343Y045165*
X053407Y045229*
X053431Y045265*
X053440Y045308*
Y045773*
X053566Y045900*
X054306*
Y045735*
X054859*
Y046288*
X054306*
Y046124*
X053884*
X053874Y046173*
X053887Y046178*
X053941Y046220*
X053983Y046274*
X054009Y046338*
X054018Y046406*
X054009Y046473*
X053983Y046537*
X053962Y046563*
X053985Y046608*
X054306*
Y046444*
X054859*
Y046760*
X055843Y047743*
X056080*
Y048139*
X055843*
X055718Y048263*
Y048643*
X056519Y049443*
X056810*
Y049377*
X057363*
Y049733*
X057374Y049744*
X057810*
Y049733*
Y049667*
X057768Y049659*
X057732Y049634*
X057495Y049398*
X057471Y049362*
X057463Y049319*
Y049011*
X057409Y048958*
X057363Y048977*
Y048983*
X056810*
Y048917*
X056627*
X056619Y048936*
X056577Y048991*
X056523Y049032*
X056460Y049058*
X056392Y049067*
X056324Y049058*
X056261Y049032*
X056206Y048991*
X056165Y048936*
X056138Y048873*
X056129Y048805*
X056138Y048737*
X056165Y048674*
X056206Y048620*
X056261Y048578*
X056324Y048552*
X056392Y048543*
X056460Y048552*
X056523Y048578*
X056577Y048620*
X056619Y048674*
X056627Y048693*
X056810*
Y048627*
X057363*
Y048693*
X057415*
X057458Y048702*
X057495Y048726*
X057654Y048885*
X057678Y048922*
X057687Y048965*
Y049272*
X057724Y049309*
X057770Y049290*
Y049235*
X058403*
Y049403*
X058363*
Y049733*
X058374Y049744*
X067764*
Y047429*
G37*
%LNpcb1-2*%
%LPC*%
G36*
X029705Y032071D02*
X029475D01*
Y031896*
X029920*
X029912Y031932*
X029864Y032005*
X029791Y032054*
X029705Y032071*
G37*
G36*
X029375D02*
X029145D01*
X029059Y032054*
X028987Y032005*
X028938Y031932*
X028931Y031896*
X029375*
Y032071*
G37*
G36*
X029920Y031796D02*
X029475D01*
Y031622*
X029705*
X029791Y031639*
X029864Y031688*
X029912Y031761*
X029920Y031796*
G37*
G36*
X034651D02*
X034206D01*
X034214Y031761*
X034262Y031688*
X034335Y031639*
X034421Y031622*
X034651*
Y031796*
G37*
G36*
X035195D02*
X034751D01*
Y031622*
X034981*
X035067Y031639*
X035139Y031688*
X035188Y031761*
X035195Y031796*
G37*
G36*
X034651Y032071D02*
X034421D01*
X034335Y032054*
X034262Y032005*
X034214Y031932*
X034206Y031896*
X034651*
Y032071*
G37*
G36*
X029661Y040599D02*
X029554Y040584D01*
X029455Y040543*
X029369Y040477*
X029303Y040392*
X029262Y040292*
X029248Y040185*
X029262Y040078*
X029303Y039978*
X029369Y039893*
X029455Y039827*
X029480Y039816*
Y039766*
X029455Y039756*
X029369Y039690*
X029303Y039604*
X029262Y039505*
X029248Y039398*
X029262Y039291*
X029303Y039191*
X029369Y039105*
X029455Y039039*
X029480Y039029*
Y038979*
X029455Y038968*
X029369Y038903*
X029303Y038817*
X029262Y038717*
X029248Y038610*
X029262Y038503*
X029303Y038403*
X029369Y038318*
X029455Y038252*
X029480Y038242*
Y038192*
X029455Y038181*
X029369Y038115*
X029303Y038030*
X029262Y037930*
X029248Y037823*
X029262Y037716*
X029303Y037616*
X029369Y037530*
X029455Y037465*
X029480Y037454*
Y037404*
X029455Y037394*
X029369Y037328*
X029303Y037242*
X029262Y037142*
X029248Y037035*
X029262Y036928*
X029303Y036829*
X029369Y036743*
X029455Y036677*
X029480Y036667*
Y036617*
X029455Y036606*
X029369Y036540*
X029303Y036455*
X029262Y036355*
X029248Y036248*
X029262Y036141*
X029303Y036041*
X029369Y035956*
X029455Y035890*
X029480Y035879*
Y035829*
X029455Y035819*
X029369Y035753*
X029303Y035667*
X029262Y035568*
X029248Y035461*
X029262Y035354*
X029303Y035254*
X029369Y035168*
X029455Y035102*
X029480Y035092*
Y035042*
X029455Y035031*
X029369Y034966*
X029303Y034880*
X029262Y034780*
X029248Y034673*
X029262Y034566*
X029303Y034466*
X029369Y034381*
X029455Y034315*
X029480Y034305*
Y034255*
X029455Y034244*
X029369Y034178*
X029303Y034093*
X029262Y033993*
X029248Y033886*
X029262Y033779*
X029303Y033679*
X029369Y033593*
X029455Y033528*
X029480Y033517*
Y033467*
X029455Y033457*
X029369Y033391*
X029303Y033305*
X029262Y033205*
X029248Y033098*
X029262Y032991*
X029303Y032892*
X029369Y032806*
X029455Y032740*
X029554Y032699*
X029661Y032685*
X029768Y032699*
X029868Y032740*
X029954Y032806*
X030020Y032892*
X030061Y032991*
X030075Y033098*
X030061Y033205*
X030020Y033305*
X029954Y033391*
X029868Y033457*
X029843Y033467*
Y033517*
X029868Y033528*
X029954Y033593*
X030020Y033679*
X030061Y033779*
X030075Y033886*
X030061Y033993*
X030020Y034093*
X029954Y034178*
X029868Y034244*
X029843Y034255*
Y034305*
X029868Y034315*
X029954Y034381*
X030020Y034466*
X030061Y034566*
X030075Y034673*
X030061Y034780*
X030020Y034880*
X029954Y034966*
X029868Y035031*
X029843Y035042*
Y035092*
X029868Y035102*
X029954Y035168*
X030020Y035254*
X030061Y035354*
X030075Y035461*
X030061Y035568*
X030020Y035667*
X029954Y035753*
X029868Y035819*
X029843Y035829*
Y035879*
X029868Y035890*
X029954Y035956*
X030020Y036041*
X030061Y036141*
X030075Y036248*
X030061Y036355*
X030020Y036455*
X029954Y036540*
X029868Y036606*
X029843Y036617*
Y036667*
X029868Y036677*
X029954Y036743*
X030020Y036829*
X030061Y036928*
X030075Y037035*
X030061Y037142*
X030020Y037242*
X029954Y037328*
X029868Y037394*
X029843Y037404*
Y037454*
X029868Y037465*
X029954Y037530*
X030020Y037616*
X030061Y037716*
X030075Y037823*
X030061Y037930*
X030020Y038030*
X029954Y038115*
X029868Y038181*
X029843Y038192*
Y038242*
X029868Y038252*
X029954Y038318*
X030020Y038403*
X030061Y038503*
X030075Y038610*
X030061Y038717*
X030020Y038817*
X029954Y038903*
X029868Y038968*
X029843Y038979*
Y039029*
X029868Y039039*
X029954Y039105*
X030020Y039191*
X030061Y039291*
X030075Y039398*
X030061Y039505*
X030020Y039604*
X029954Y039690*
X029868Y039756*
X029843Y039766*
Y039816*
X029868Y039827*
X029954Y039893*
X030020Y039978*
X030061Y040078*
X030075Y040185*
X030061Y040292*
X030020Y040392*
X029954Y040477*
X029868Y040543*
X029768Y040584*
X029661Y040599*
G37*
G36*
X050786Y032848D02*
X050341D01*
Y032665*
X050563*
X050652Y032683*
X050728Y032733*
X050778Y032809*
X050786Y032848*
G37*
G36*
X025331Y033988D02*
X025211Y033976D01*
X025096Y033941*
X024990Y033885*
X024896Y033808*
X024820Y033715*
X024763Y033609*
X024728Y033494*
X024717Y033374*
X024728Y033254*
X024763Y033139*
X024820Y033033*
X024896Y032940*
X024990Y032863*
X025096Y032807*
X025211Y032772*
X025331Y032760*
X025451Y032772*
X025566Y032807*
X025672Y032863*
X025765Y032940*
X025841Y033033*
X025898Y033139*
X025933Y033254*
X025945Y033374*
X025933Y033494*
X025898Y033609*
X025841Y033715*
X025765Y033808*
X025672Y033885*
X025566Y033941*
X025451Y033976*
X025331Y033988*
G37*
G36*
X048363Y033089D02*
X047819D01*
X047746Y033075*
X047684Y033033*
X047642Y032971*
X047628Y032898*
X047642Y032824*
X047684Y032762*
X047746Y032721*
X047819Y032706*
X048363*
X048437Y032721*
X048499Y032762*
X048540Y032824*
X048555Y032898*
X048540Y032971*
X048499Y033033*
X048437Y033075*
X048363Y033089*
G37*
G36*
X050241Y032848D02*
X049797D01*
X049805Y032809*
X049855Y032733*
X049930Y032683*
X050019Y032665*
X050241*
Y032848*
G37*
G36*
X038770Y040135D02*
X037876D01*
X037884Y040068*
X037930Y039958*
X038002Y039864*
X038096Y039792*
X038065Y039716*
X038030Y039690*
X037965Y039604*
X037923Y039505*
X037909Y039398*
X037923Y039291*
X037965Y039191*
X038030Y039105*
X038116Y039039*
X038142Y039029*
Y038979*
X038116Y038968*
X038030Y038903*
X037965Y038817*
X037923Y038717*
X037909Y038610*
X037923Y038503*
X037965Y038403*
X038030Y038318*
X038116Y038252*
X038142Y038242*
Y038192*
X038116Y038181*
X038030Y038115*
X037965Y038030*
X037923Y037930*
X037909Y037823*
X037923Y037716*
X037965Y037616*
X038030Y037530*
X038116Y037465*
X038142Y037454*
Y037404*
X038116Y037394*
X038030Y037328*
X037965Y037242*
X037923Y037142*
X037909Y037035*
X037923Y036928*
X037965Y036829*
X038030Y036743*
X038116Y036677*
X038142Y036667*
Y036617*
X038116Y036606*
X038030Y036540*
X037965Y036455*
X037923Y036355*
X037909Y036248*
X037923Y036141*
X037965Y036041*
X038030Y035956*
X038116Y035890*
X038142Y035879*
Y035829*
X038116Y035819*
X038030Y035753*
X037965Y035667*
X037923Y035568*
X037909Y035461*
X037923Y035354*
X037965Y035254*
X038030Y035168*
X038116Y035102*
X038142Y035092*
Y035042*
X038116Y035031*
X038030Y034966*
X037965Y034880*
X037923Y034780*
X037909Y034673*
X037923Y034566*
X037965Y034466*
X038030Y034381*
X038116Y034315*
X038142Y034305*
Y034255*
X038116Y034244*
X038030Y034178*
X037965Y034093*
X037923Y033993*
X037909Y033886*
X037923Y033779*
X037965Y033679*
X038030Y033593*
X038079Y033556*
X038063Y033508*
X037913*
Y032688*
X038160*
Y032238*
X038048*
X037678Y032608*
Y032930*
X037125*
Y032377*
X037447*
X037769Y032056*
X037749Y032010*
X037261*
X037251Y032016*
X037181Y032030*
X036621*
X036551Y032016*
X036541Y032010*
X036165*
X036103Y031997*
X036050Y031962*
X035885Y031796*
X035849Y031744*
X035837Y031681*
Y029623*
X035224Y029010*
X035161*
Y029026*
X034241*
Y028948*
X033756*
X033717Y028941*
X033684Y028919*
X033517Y028752*
X033324*
Y028926*
X032771*
Y028373*
X033324*
Y028548*
X033559*
X033598Y028555*
X033631Y028578*
X033798Y028744*
X034241*
Y028666*
X034542*
X034550Y028627*
X034585Y028574*
X034757Y028402*
X034753Y028374*
X034762Y028306*
X034789Y028243*
X034830Y028189*
X034885Y028147*
X034948Y028121*
X035016Y028112*
X035044Y028115*
X035128Y028031*
Y027900*
X035085Y027882*
X034999Y027816*
X034933Y027730*
X034892Y027631*
X034878Y027524*
X034892Y027417*
X034933Y027317*
X034999Y027231*
X035085Y027165*
X035184Y027124*
X035291Y027110*
X035398Y027124*
X035498Y027165*
X035584Y027231*
X035649Y027317*
X035691Y027417*
X035705Y027524*
X035691Y027631*
X035649Y027730*
X035584Y027816*
X035498Y027882*
X035454Y027900*
Y028098*
X035442Y028161*
X035407Y028214*
X035274Y028346*
X035278Y028374*
X035269Y028442*
X035243Y028505*
X035201Y028559*
X035147Y028601*
X035108Y028617*
X035117Y028666*
X035161*
Y028683*
X035291*
X035354Y028696*
X035407Y028731*
X036115Y029440*
X036151Y029493*
X036163Y029555*
Y031614*
X036233Y031683*
X036541*
X036551Y031677*
X036621Y031663*
X037181*
X037251Y031677*
X037261Y031683*
X038094*
X038157Y031696*
X038210Y031731*
X038438Y031959*
X038474Y032012*
X038486Y032075*
Y032688*
X038733*
Y033508*
X038582*
X038566Y033556*
X038615Y033593*
X038681Y033679*
X038722Y033779*
X038736Y033886*
X038722Y033993*
X038681Y034093*
X038615Y034178*
X038530Y034244*
X038504Y034255*
Y034305*
X038530Y034315*
X038615Y034381*
X038681Y034466*
X038722Y034566*
X038736Y034673*
X038722Y034780*
X038681Y034880*
X038615Y034966*
X038530Y035031*
X038504Y035042*
Y035092*
X038530Y035102*
X038615Y035168*
X038681Y035254*
X038722Y035354*
X038736Y035461*
X038722Y035568*
X038681Y035667*
X038615Y035753*
X038530Y035819*
X038504Y035829*
Y035879*
X038530Y035890*
X038615Y035956*
X038681Y036041*
X038722Y036141*
X038736Y036248*
X038722Y036355*
X038681Y036455*
X038615Y036540*
X038530Y036606*
X038504Y036617*
Y036667*
X038530Y036677*
X038615Y036743*
X038681Y036829*
X038722Y036928*
X038736Y037035*
X038722Y037142*
X038681Y037242*
X038615Y037328*
X038530Y037394*
X038504Y037404*
Y037454*
X038530Y037465*
X038615Y037530*
X038681Y037616*
X038722Y037716*
X038736Y037823*
X038722Y037930*
X038681Y038030*
X038615Y038115*
X038530Y038181*
X038504Y038192*
Y038242*
X038530Y038252*
X038615Y038318*
X038681Y038403*
X038722Y038503*
X038736Y038610*
X038722Y038717*
X038681Y038817*
X038615Y038903*
X038530Y038968*
X038504Y038979*
Y039029*
X038530Y039039*
X038615Y039105*
X038681Y039191*
X038722Y039291*
X038736Y039398*
X038722Y039505*
X038681Y039604*
X038615Y039690*
X038581Y039716*
X038550Y039792*
X038644Y039864*
X038716Y039958*
X038761Y040068*
X038770Y040135*
G37*
G36*
X034981Y032071D02*
X034751D01*
Y031896*
X035195*
X035188Y031932*
X035139Y032005*
X035067Y032054*
X034981Y032071*
G37*
G36*
X035282Y033060D02*
X034690D01*
Y032586*
X035282*
Y033060*
G37*
G36*
X056591Y033243D02*
X056523Y033234D01*
X056459Y033207*
X056405Y033166*
X056363Y033111*
X056337Y033048*
X056328Y032980*
X056337Y032912*
X056363Y032849*
X056405Y032795*
X056459Y032753*
X056471Y032749*
X056480Y032699*
X056076Y032295*
X054625*
X054379Y032541*
X054346Y032563*
X054307Y032570*
X054231*
X054219Y032600*
X054178Y032654*
X054123Y032696*
X054060Y032722*
X053992Y032731*
X053924Y032722*
X053861Y032696*
X053807Y032654*
X053765Y032600*
X053739Y032536*
X053730Y032469*
X053739Y032401*
X053765Y032337*
X053807Y032283*
X053861Y032241*
X053924Y032215*
X053992Y032206*
X054060Y032215*
X054123Y032241*
X054178Y032283*
X054219Y032337*
X054224Y032349*
X054273Y032358*
X054511Y032121*
X054544Y032099*
X054583Y032091*
X056118*
X056157Y032099*
X056190Y032121*
X056663Y032593*
X056685Y032626*
X056693Y032665*
Y032741*
X056722Y032753*
X056776Y032795*
X056818Y032849*
X056844Y032912*
X056853Y032980*
X056844Y033048*
X056818Y033111*
X056776Y033166*
X056722Y033207*
X056658Y033234*
X056591Y033243*
G37*
G36*
X029375Y031796D02*
X028931D01*
X028938Y031761*
X028987Y031688*
X029059Y031639*
X029145Y031622*
X029375*
Y031796*
G37*
G36*
X025331Y032335D02*
X025211Y032323D01*
X025096Y032288*
X024990Y032231*
X024896Y032155*
X024820Y032062*
X024763Y031955*
X024728Y031840*
X024717Y031720*
X024728Y031601*
X024763Y031485*
X024820Y031379*
X024896Y031286*
X024990Y031210*
X025096Y031153*
X025211Y031118*
X025331Y031106*
X025451Y031118*
X025566Y031153*
X025672Y031210*
X025765Y031286*
X025841Y031379*
X025898Y031485*
X025933Y031601*
X025945Y031720*
X025933Y031840*
X025898Y031955*
X025841Y032062*
X025765Y032155*
X025672Y032231*
X025566Y032288*
X025451Y032323*
X025331Y032335*
G37*
G36*
X047852Y031356D02*
X047585D01*
Y031089*
X047852*
Y031356*
G37*
G36*
X029705Y031530D02*
X029145D01*
X029075Y031516*
X029015Y031476*
X028976Y031417*
X028962Y031346*
X028976Y031276*
X029015Y031217*
X029075Y031177*
X029145Y031163*
X029705*
X029775Y031177*
X029835Y031217*
X029875Y031276*
X029889Y031346*
X029875Y031417*
X029835Y031476*
X029775Y031516*
X029705Y031530*
G37*
G36*
X027496Y032335D02*
X027376Y032323D01*
X027261Y032288*
X027155Y032231*
X027062Y032155*
X026985Y032062*
X026929Y031955*
X026894Y031840*
X026882Y031720*
X026894Y031601*
X026929Y031485*
X026985Y031379*
X027062Y031286*
X027155Y031210*
X027261Y031153*
X027376Y031118*
X027496Y031106*
X027616Y031118*
X027731Y031153*
X027837Y031210*
X027930Y031286*
X028007Y031379*
X028063Y031485*
X028098Y031601*
X028110Y031720*
X028098Y031840*
X028063Y031955*
X028007Y032062*
X027930Y032155*
X027837Y032231*
X027731Y032288*
X027616Y032323*
X027496Y032335*
G37*
G36*
X051257Y031080D02*
X051011D01*
Y030834*
X051039Y030838*
X051112Y030868*
X051175Y030916*
X051223Y030979*
X051253Y031052*
X051257Y031080*
G37*
G36*
X050911D02*
X050665D01*
X050668Y031052*
X050699Y030979*
X050747Y030916*
X050809Y030868*
X050882Y030838*
X050911Y030834*
Y031080*
G37*
G36*
X047485Y031356D02*
X047219D01*
Y031089*
X047485*
Y031356*
G37*
G36*
X030370Y032022D02*
X030302Y032013D01*
X030239Y031987*
X030185Y031945*
X030143Y031891*
X030117Y031828*
X030108Y031760*
X030117Y031692*
X030143Y031629*
X030185Y031574*
X030239Y031533*
X030268Y031521*
Y031408*
X029836Y030976*
X029835*
X029775Y031016*
X029705Y031030*
X029145*
X029075Y031016*
X029015Y030976*
X028976Y030917*
X028962Y030846*
X028976Y030776*
X029015Y030717*
X029075Y030677*
X029145Y030663*
X029705*
X029775Y030677*
X029835Y030717*
X029854Y030745*
X029889Y030752*
X029922Y030774*
X030442Y031294*
X030464Y031327*
X030472Y031366*
Y031521*
X030501Y031533*
X030556Y031574*
X030597Y031629*
X030623Y031692*
X030632Y031760*
X030623Y031828*
X030597Y031891*
X030556Y031945*
X030501Y031987*
X030438Y032013*
X030370Y032022*
G37*
G36*
X063913Y032413D02*
X063794Y032402D01*
X063678Y032367*
X063572Y032310*
X063479Y032233*
X063403Y032140*
X063346Y032034*
X063311Y031919*
X063299Y031799*
X063311Y031679*
X063346Y031564*
X063381Y031498*
X062696Y030812*
X062660Y030759*
X062648Y030697*
Y029791*
X062660Y029729*
X062696Y029676*
X064113Y028259*
X064166Y028223*
X064228Y028211*
X066680*
X066954Y027937*
Y027095*
X066932Y027078*
X066890Y027024*
X066864Y026961*
X066855Y026893*
X066864Y026825*
X066890Y026762*
X066932Y026707*
X066986Y026666*
X067049Y026639*
X067117Y026630*
X067185Y026639*
X067248Y026666*
X067303Y026707*
X067344Y026762*
X067370Y026825*
X067379Y026893*
X067370Y026961*
X067344Y027024*
X067303Y027078*
X067280Y027095*
Y028005*
X067268Y028067*
X067232Y028120*
X066863Y028489*
X066810Y028525*
X066748Y028537*
X064296*
X062974Y029859*
Y030629*
X063612Y031267*
X063678Y031232*
X063794Y031197*
X063913Y031185*
X064033Y031197*
X064148Y031232*
X064255Y031289*
X064348Y031365*
X064424Y031458*
X064481Y031564*
X064516Y031679*
X064528Y031799*
X064516Y031919*
X064481Y032034*
X064424Y032140*
X064348Y032233*
X064255Y032310*
X064148Y032367*
X064033Y032402*
X063913Y032413*
G37*
G36*
X061748D02*
X061628Y032402D01*
X061513Y032367*
X061407Y032310*
X061314Y032233*
X061237Y032140*
X061181Y032034*
X061146Y031919*
X061134Y031799*
X061146Y031679*
X061181Y031564*
X061216Y031498*
X060609Y030891*
X060574Y030838*
X060561Y030776*
Y029909*
X060574Y029847*
X060609Y029794*
X061421Y028982*
Y027106*
X061420Y027105*
X061366Y027063*
X061324Y027009*
X061298Y026946*
X061289Y026878*
X061298Y026810*
X061324Y026747*
X061366Y026693*
X061420Y026651*
X061483Y026625*
X061551Y026616*
X061619Y026625*
X061682Y026651*
X061737Y026693*
X061778Y026747*
X061804Y026810*
X061813Y026878*
X061804Y026946*
X061778Y027009*
X061747Y027049*
Y029050*
X061735Y029112*
X061700Y029165*
X060888Y029977*
Y030708*
X061447Y031267*
X061513Y031232*
X061628Y031197*
X061748Y031185*
X061868Y031197*
X061983Y031232*
X062089Y031289*
X062182Y031365*
X062259Y031458*
X062315Y031564*
X062350Y031679*
X062362Y031799*
X062350Y031919*
X062315Y032034*
X062259Y032140*
X062182Y032233*
X062089Y032310*
X061983Y032367*
X061868Y032402*
X061748Y032413*
G37*
G36*
X047852Y031722D02*
X047585D01*
Y031456*
X047852*
Y031722*
G37*
G36*
X047485D02*
X047219D01*
Y031456*
X047485*
Y031722*
G37*
G36*
X037181Y031530D02*
X036621D01*
X036551Y031516*
X036491Y031476*
X036451Y031417*
X036437Y031346*
X036451Y031276*
X036491Y031217*
X036551Y031177*
X036621Y031163*
X037181*
X037251Y031177*
X037311Y031217*
X037350Y031276*
X037364Y031346*
X037350Y031417*
X037311Y031476*
X037251Y031516*
X037181Y031530*
G37*
G36*
X034981D02*
X034421D01*
X034351Y031516*
X034291Y031476*
X034251Y031417*
X034237Y031346*
X034251Y031276*
X034291Y031217*
X034351Y031177*
X034421Y031163*
X034981*
X035051Y031177*
X035111Y031217*
X035150Y031276*
X035164Y031346*
X035150Y031417*
X035111Y031476*
X035051Y031516*
X034981Y031530*
G37*
G36*
X051011Y031426D02*
Y031180D01*
X051257*
X051253Y031208*
X051223Y031281*
X051175Y031344*
X051112Y031392*
X051039Y031422*
X051011Y031426*
G37*
G36*
X050911D02*
X050882Y031422D01*
X050809Y031392*
X050747Y031344*
X050699Y031281*
X050668Y031208*
X050665Y031180*
X050911*
Y031426*
G37*
G36*
X041337Y035403D02*
X040995D01*
Y035061*
X041048Y035068*
X041144Y035107*
X041227Y035171*
X041290Y035253*
X041330Y035350*
X041337Y035403*
G37*
G36*
X040895D02*
X040553D01*
X040560Y035350*
X040600Y035253*
X040663Y035171*
X040746Y035107*
X040842Y035068*
X040895Y035061*
Y035403*
G37*
G36*
X050517Y035765D02*
X050250D01*
Y035498*
X050517*
Y035765*
G37*
G36*
X041945Y035811D02*
X041852Y035799D01*
X041766Y035763*
X041691Y035706*
X041635Y035632*
X041599Y035545*
X041587Y035453*
X041599Y035360*
X041635Y035274*
X041691Y035199*
X041766Y035142*
X041852Y035107*
X041945Y035094*
X042038Y035107*
X042124Y035142*
X042198Y035199*
X042255Y035274*
X042291Y035360*
X042303Y035453*
X042291Y035545*
X042255Y035632*
X042198Y035706*
X042124Y035763*
X042038Y035799*
X041945Y035811*
G37*
G36*
X057594Y035544D02*
X057240D01*
X057117Y035528*
X057001Y035480*
X056903Y035405*
X056827Y035306*
X056779Y035191*
X056763Y035067*
X056779Y034943*
X056827Y034828*
X056903Y034729*
X057001Y034653*
X057117Y034606*
X057240Y034589*
X057594*
X057718Y034606*
X057833Y034653*
X057932Y034729*
X058008Y034828*
X058056Y034943*
X058072Y035067*
X058056Y035191*
X058008Y035306*
X057932Y035405*
X057833Y035480*
X057718Y035528*
X057594Y035544*
G37*
G36*
X046354Y035298D02*
X046256Y035285D01*
X046165Y035248*
X046087Y035187*
X046027Y035109*
X045989Y035018*
X045976Y034920*
X045989Y034822*
X046027Y034731*
X046087Y034653*
X046165Y034592*
X046256Y034555*
X046354Y034542*
X046452Y034555*
X046543Y034592*
X046622Y034653*
X046682Y034731*
X046720Y034822*
X046733Y034920*
X046720Y035018*
X046682Y035109*
X046622Y035187*
X046543Y035248*
X046452Y035285*
X046354Y035298*
G37*
G36*
X047614Y035250D02*
X047546Y035241D01*
X047483Y035215*
X047429Y035174*
X047387Y035119*
X047361Y035056*
X047352Y034988*
X047361Y034920*
X047373Y034891*
X046666Y034185*
X046622Y034187*
X046543Y034248*
X046452Y034285*
X046354Y034298*
X046256Y034285*
X046165Y034248*
X046087Y034187*
X046027Y034109*
X045989Y034018*
X045976Y033920*
X045989Y033822*
X046027Y033731*
X046087Y033653*
X046165Y033592*
X046256Y033555*
X046354Y033542*
X046452Y033555*
X046543Y033592*
X046622Y033653*
X046682Y033731*
X046720Y033822*
X046733Y033920*
X046728Y033957*
X047517Y034747*
X047546Y034735*
X047614Y034726*
X047682Y034735*
X047745Y034761*
X047800Y034803*
X047841Y034857*
X047867Y034920*
X047876Y034988*
X047867Y035056*
X047841Y035119*
X047800Y035174*
X047745Y035215*
X047682Y035241*
X047614Y035250*
G37*
G36*
X059445Y035544D02*
X059091D01*
X058967Y035528*
X058852Y035480*
X058753Y035405*
X058677Y035306*
X058629Y035191*
X058613Y035067*
X058629Y034943*
X058677Y034828*
X058753Y034729*
X058852Y034653*
X058967Y034606*
X059091Y034589*
X059445*
X059568Y034606*
X059684Y034653*
X059783Y034729*
X059858Y034828*
X059906Y034943*
X059922Y035067*
X059906Y035191*
X059858Y035306*
X059783Y035405*
X059684Y035480*
X059568Y035528*
X059445Y035544*
G37*
G36*
X025331Y037295D02*
X025211Y037283D01*
X025096Y037248*
X024990Y037192*
X024896Y037115*
X024820Y037022*
X024763Y036916*
X024728Y036801*
X024717Y036681*
X024728Y036561*
X024763Y036446*
X024820Y036340*
X024896Y036247*
X024990Y036170*
X025096Y036114*
X025211Y036079*
X025331Y036067*
X025451Y036079*
X025566Y036114*
X025672Y036170*
X025765Y036247*
X025841Y036340*
X025898Y036446*
X025933Y036561*
X025945Y036681*
X025933Y036801*
X025898Y036916*
X025841Y037022*
X025765Y037115*
X025672Y037192*
X025566Y037248*
X025451Y037283*
X025331Y037295*
G37*
G36*
X051462Y036316D02*
X051195D01*
Y036050*
X051462*
Y036316*
G37*
G36*
X055213Y038085D02*
X055145Y038076D01*
X055081Y038050*
X055027Y038008*
X054985Y037954*
X054959Y037891*
X054950Y037823*
X054959Y037755*
X054985Y037692*
X055027Y037637*
X055081Y037596*
X055145Y037570*
X055213Y037561*
X055280Y037570*
X055344Y037596*
X055398Y037637*
X055415Y037660*
X060617*
X061216Y037061*
X061181Y036995*
X061146Y036880*
X061134Y036760*
X061146Y036640*
X061181Y036525*
X061237Y036419*
X061314Y036326*
X061407Y036249*
X061513Y036192*
X061628Y036158*
X061748Y036146*
X061868Y036158*
X061983Y036192*
X062089Y036249*
X062182Y036326*
X062259Y036419*
X062315Y036525*
X062350Y036640*
X062362Y036760*
X062350Y036880*
X062315Y036995*
X062259Y037101*
X062182Y037194*
X062089Y037270*
X061983Y037327*
X061868Y037362*
X061748Y037374*
X061628Y037362*
X061513Y037327*
X061447Y037292*
X060800Y037938*
X060747Y037974*
X060685Y037986*
X055415*
X055398Y038008*
X055344Y038050*
X055280Y038076*
X055213Y038085*
G37*
G36*
X027496Y037295D02*
X027376Y037283D01*
X027261Y037248*
X027155Y037192*
X027062Y037115*
X026985Y037022*
X026929Y036916*
X026894Y036801*
X026882Y036681*
X026894Y036561*
X026929Y036446*
X026985Y036340*
X027062Y036247*
X027155Y036170*
X027261Y036114*
X027376Y036079*
X027496Y036067*
X027616Y036079*
X027731Y036114*
X027837Y036170*
X027930Y036247*
X028007Y036340*
X028063Y036446*
X028098Y036561*
X028110Y036681*
X028098Y036801*
X028063Y036916*
X028007Y037022*
X027930Y037115*
X027837Y037192*
X027731Y037248*
X027616Y037283*
X027496Y037295*
G37*
G36*
X040895Y035845D02*
X040842Y035838D01*
X040746Y035798*
X040663Y035735*
X040600Y035652*
X040560Y035556*
X040553Y035503*
X040895*
Y035845*
G37*
G36*
X050883Y035765D02*
X050617D01*
Y035498*
X050883*
Y035765*
G37*
G36*
Y036131D02*
X050617D01*
Y035865*
X050883*
Y036131*
G37*
G36*
X050517D02*
X050250D01*
Y035865*
X050517*
Y036131*
G37*
G36*
X063162Y036021D02*
X061437D01*
X061374Y036008*
X061322Y035973*
X059113Y033764*
X059078Y033711*
X059065Y033649*
Y031189*
X058185Y030309*
X057683*
X057621Y030296*
X057568Y030261*
X055176Y027870*
X055149Y027873*
X055081Y027865*
X055017Y027838*
X054963Y027797*
X054922Y027742*
X054895Y027679*
X054886Y027611*
X054895Y027543*
X054922Y027480*
X054963Y027426*
X055017Y027384*
X055081Y027358*
X055149Y027349*
X055216Y027358*
X055280Y027384*
X055334Y027426*
X055376Y027480*
X055402Y027543*
X055411Y027611*
X055407Y027639*
X057751Y029983*
X058253*
X058315Y029995*
X058368Y030030*
X059344Y031006*
X059379Y031059*
X059391Y031121*
Y033581*
X061121Y035310*
X061164Y035285*
X061146Y035226*
X061134Y035106*
X061146Y034986*
X061181Y034871*
X061237Y034765*
X061314Y034672*
X061407Y034596*
X061513Y034539*
X061628Y034504*
X061744Y034493*
X061741Y034443*
X061276*
X061213Y034430*
X061160Y034395*
X059507Y032741*
X059471Y032688*
X059459Y032626*
Y031745*
X059454Y031723*
Y030484*
X058846Y029876*
X058244*
X058182Y029863*
X058129Y029828*
X056239Y027938*
X056204Y027885*
X056191Y027823*
Y022080*
X055888*
X055870Y022103*
X055816Y022144*
X055753Y022171*
X055685Y022180*
X055617Y022171*
X055554Y022144*
X055500Y022103*
X055458Y022048*
X055432Y021985*
X055423Y021917*
X055432Y021849*
X055458Y021786*
X055500Y021732*
X055554Y021690*
X055617Y021664*
X055685Y021655*
X055753Y021664*
X055816Y021690*
X055870Y021732*
X055888Y021754*
X056276*
X056338Y021767*
X056391Y021802*
X056470Y021881*
X056505Y021934*
X056517Y021996*
Y027755*
X058312Y029549*
X058913*
X058976Y029562*
X059029Y029597*
X059733Y030301*
X059768Y030354*
X059781Y030417*
Y031705*
X059785Y031727*
Y032558*
X061343Y034116*
X061741*
X061744Y034066*
X061628Y034055*
X061513Y034020*
X061407Y033963*
X061314Y033887*
X061237Y033794*
X061181Y033688*
X061146Y033573*
X061134Y033453*
X061146Y033333*
X061181Y033218*
X061226Y033133*
X059875Y031782*
X059844Y031736*
X059834Y031681*
Y028549*
X059830*
X059767Y028522*
X059712Y028481*
X059671Y028426*
X059644Y028363*
X059635Y028295*
X059644Y028227*
X059671Y028164*
X059712Y028110*
X059767Y028068*
X059830Y028042*
X059898Y028033*
X059966Y028042*
X060029Y028068*
X060083Y028110*
X060125Y028164*
X060151Y028227*
X060160Y028295*
X060151Y028363*
X060125Y028426*
X060119Y028434*
Y031622*
X061428Y032931*
X061513Y032885*
X061628Y032850*
X061748Y032839*
X061868Y032850*
X061983Y032885*
X062089Y032942*
X062182Y033018*
X062259Y033112*
X062315Y033218*
X062350Y033333*
X062362Y033453*
X062350Y033573*
X062315Y033688*
X062259Y033794*
X062182Y033887*
X062089Y033963*
X061983Y034020*
X061868Y034055*
X061753Y034066*
X061754Y034106*
X061755Y034116*
X062074*
X062696Y033495*
X062749Y033460*
X062811Y033447*
X063300*
X063311Y033333*
X063346Y033218*
X063403Y033112*
X063479Y033018*
X063572Y032942*
X063678Y032885*
X063794Y032850*
X063913Y032839*
X064033Y032850*
X064148Y032885*
X064255Y032942*
X064348Y033018*
X064424Y033112*
X064481Y033218*
X064516Y033333*
X064528Y033453*
X064516Y033573*
X064481Y033688*
X064424Y033794*
X064348Y033887*
X064255Y033963*
X064148Y034020*
X064033Y034055*
X063913Y034067*
X063794Y034055*
X063678Y034020*
X063572Y033963*
X063479Y033887*
X063403Y033794*
X063392Y033773*
X062879*
X062257Y034395*
X062204Y034430*
X062142Y034443*
X061755*
X061753Y034493*
X061868Y034504*
X061983Y034539*
X062089Y034596*
X062182Y034672*
X062259Y034765*
X062315Y034871*
X062350Y034986*
X062362Y035106*
X062350Y035226*
X062315Y035341*
X062259Y035447*
X062182Y035541*
X062089Y035617*
X062035Y035646*
X062047Y035694*
X063095*
X063381Y035408*
X063346Y035341*
X063311Y035226*
X063299Y035106*
X063311Y034986*
X063346Y034871*
X063403Y034765*
X063479Y034672*
X063572Y034596*
X063678Y034539*
X063794Y034504*
X063913Y034492*
X064033Y034504*
X064148Y034539*
X064255Y034596*
X064348Y034672*
X064424Y034765*
X064481Y034871*
X064516Y034986*
X064528Y035106*
X064516Y035226*
X064481Y035341*
X064424Y035447*
X064348Y035541*
X064255Y035617*
X064148Y035674*
X064033Y035709*
X063913Y035720*
X063794Y035709*
X063678Y035674*
X063612Y035638*
X063278Y035973*
X063225Y036008*
X063162Y036021*
G37*
G36*
X037718Y033312D02*
X037451D01*
Y033046*
X037718*
Y033312*
G37*
G36*
X037351D02*
X037085D01*
Y033046*
X037351*
Y033312*
G37*
G36*
X048363Y033589D02*
X047819D01*
X047746Y033575*
X047684Y033533*
X047642Y033471*
X047628Y033398*
X047642Y033324*
X047684Y033262*
X047746Y033221*
X047819Y033206*
X048363*
X048437Y033221*
X048499Y033262*
X048540Y033324*
X048555Y033398*
X048540Y033471*
X048499Y033533*
X048437Y033575*
X048363Y033589*
G37*
G36*
X040945Y033831D02*
X040847Y033818D01*
X040756Y033780*
X040677Y033720*
X040617Y033642*
X040580Y033551*
X040567Y033453*
X040580Y033355*
X040617Y033264*
X040677Y033185*
X040756Y033125*
X040847Y033087*
X040945Y033075*
X041043Y033087*
X041130Y033124*
X041463Y032790*
X041496Y032768*
X041535Y032760*
X043480*
X043519Y032768*
X043552Y032790*
X043885Y033122*
X043923Y033107*
X044016Y033094*
X044108Y033107*
X044195Y033142*
X044269Y033199*
X044326Y033274*
X044362Y033360*
X044374Y033453*
X044362Y033545*
X044326Y033632*
X044269Y033706*
X044195Y033763*
X044108Y033799*
X044016Y033811*
X043923Y033799*
X043837Y033763*
X043762Y033706*
X043705Y033632*
X043670Y033545*
X043657Y033453*
X043670Y033360*
X043705Y033274*
X043724Y033250*
X043438Y032964*
X041578*
X041274Y033268*
X041310Y033355*
X041323Y033453*
X041310Y033551*
X041272Y033642*
X041212Y033720*
X041134Y033780*
X041043Y033818*
X040945Y033831*
G37*
G36*
X056472Y036392D02*
X056405Y036383D01*
X056341Y036357*
X056287Y036315*
X056245Y036261*
X056219Y036198*
X056210Y036130*
X056219Y036062*
X056245Y035999*
X056287Y035944*
X056309Y035927*
Y033638*
X055603Y032932*
X055351*
X055334Y032954*
X055280Y032996*
X055216Y033022*
X055149Y033031*
X055081Y033022*
X055017Y032996*
X054963Y032954*
X054922Y032900*
X054895Y032837*
X054886Y032769*
X054895Y032701*
X054922Y032638*
X054963Y032583*
X055017Y032542*
X055081Y032515*
X055149Y032506*
X055216Y032515*
X055280Y032542*
X055334Y032583*
X055351Y032606*
X055670*
X055733Y032618*
X055786Y032653*
X056588Y033456*
X056623Y033508*
X056636Y033571*
Y035927*
X056658Y035944*
X056700Y035999*
X056726Y036062*
X056735Y036130*
X056726Y036198*
X056700Y036261*
X056658Y036315*
X056604Y036357*
X056540Y036383*
X056472Y036392*
G37*
G36*
X027496Y033988D02*
X027376Y033976D01*
X027261Y033941*
X027155Y033885*
X027062Y033808*
X026985Y033715*
X026929Y033609*
X026894Y033494*
X026882Y033374*
X026894Y033254*
X026929Y033139*
X026985Y033033*
X027062Y032940*
X027155Y032863*
X027261Y032807*
X027376Y032772*
X027496Y032760*
X027616Y032772*
X027731Y032807*
X027837Y032863*
X027930Y032940*
X028007Y033033*
X028063Y033139*
X028098Y033254*
X028110Y033374*
X028098Y033494*
X028063Y033609*
X028007Y033715*
X027930Y033808*
X027837Y033885*
X027731Y033941*
X027616Y033976*
X027496Y033988*
G37*
G36*
X050563Y033130D02*
X050341D01*
Y032948*
X050786*
X050778Y032987*
X050728Y033062*
X050652Y033112*
X050563Y033130*
G37*
G36*
X050241D02*
X050019D01*
X049930Y033112*
X049855Y033062*
X049805Y032987*
X049797Y032948*
X050241*
Y033130*
G37*
G36*
X037054Y034969D02*
X036580D01*
Y034062*
X037054*
Y034969*
G37*
G36*
X050563Y034089D02*
X050019D01*
X049946Y034075*
X049884Y034033*
X049842Y033971*
X049828Y033898*
X049842Y033824*
X049884Y033762*
X049946Y033721*
X050019Y033706*
X050563*
X050637Y033721*
X050699Y033762*
X050740Y033824*
X050755Y033898*
X050740Y033971*
X050699Y034033*
X050637Y034075*
X050563Y034089*
G37*
G36*
X027496Y035642D02*
X027376Y035630D01*
X027261Y035595*
X027155Y035538*
X027062Y035462*
X026985Y035369*
X026929Y035263*
X026894Y035147*
X026882Y035028*
X026894Y034908*
X026929Y034793*
X026985Y034686*
X027062Y034593*
X027155Y034517*
X027261Y034460*
X027376Y034425*
X027496Y034413*
X027616Y034425*
X027731Y034460*
X027837Y034517*
X027930Y034593*
X028007Y034686*
X028063Y034793*
X028098Y034908*
X028110Y035028*
X028098Y035147*
X028063Y035263*
X028007Y035369*
X027930Y035462*
X027837Y035538*
X027731Y035595*
X027616Y035630*
X027496Y035642*
G37*
G36*
X025331D02*
X025211Y035630D01*
X025096Y035595*
X024990Y035538*
X024896Y035462*
X024820Y035369*
X024763Y035263*
X024728Y035147*
X024717Y035028*
X024728Y034908*
X024763Y034793*
X024820Y034686*
X024896Y034593*
X024990Y034517*
X025096Y034460*
X025211Y034425*
X025331Y034413*
X025451Y034425*
X025566Y034460*
X025672Y034517*
X025765Y034593*
X025841Y034686*
X025898Y034793*
X025933Y034908*
X025945Y035028*
X025933Y035147*
X025898Y035263*
X025841Y035369*
X025765Y035462*
X025672Y035538*
X025566Y035595*
X025451Y035630*
X025331Y035642*
G37*
G36*
X037351Y033679D02*
X037085D01*
Y033412*
X037351*
Y033679*
G37*
G36*
X050563Y033589D02*
X050019D01*
X049946Y033575*
X049884Y033533*
X049842Y033471*
X049828Y033398*
X049842Y033324*
X049884Y033262*
X049946Y033221*
X050019Y033206*
X050563*
X050637Y033221*
X050699Y033262*
X050740Y033324*
X050755Y033398*
X050740Y033471*
X050699Y033533*
X050637Y033575*
X050563Y033589*
G37*
G36*
X048363Y034089D02*
X047819D01*
X047746Y034075*
X047684Y034033*
X047642Y033971*
X047628Y033898*
X047642Y033824*
X047684Y033762*
X047746Y033721*
X047819Y033706*
X048363*
X048437Y033721*
X048499Y033762*
X048540Y033824*
X048555Y033898*
X048540Y033971*
X048499Y034033*
X048437Y034075*
X048363Y034089*
G37*
G36*
X037718Y033679D02*
X037451D01*
Y033412*
X037718*
Y033679*
G37*
G36*
X029291Y027937D02*
X029184Y027923D01*
X029085Y027882*
X028999Y027816*
X028933Y027730*
X028892Y027631*
X028878Y027524*
X028892Y027417*
X028933Y027317*
X028999Y027231*
X029085Y027165*
X029184Y027124*
X029291Y027110*
X029398Y027124*
X029498Y027165*
X029584Y027231*
X029649Y027317*
X029691Y027417*
X029705Y027524*
X029691Y027631*
X029649Y027730*
X029584Y027816*
X029498Y027882*
X029398Y027923*
X029291Y027937*
G37*
G36*
X028291D02*
X028184Y027923D01*
X028085Y027882*
X027999Y027816*
X027933Y027730*
X027892Y027631*
X027878Y027524*
X027892Y027417*
X027933Y027317*
X027999Y027231*
X028085Y027165*
X028184Y027124*
X028291Y027110*
X028398Y027124*
X028498Y027165*
X028584Y027231*
X028649Y027317*
X028691Y027417*
X028705Y027524*
X028691Y027631*
X028649Y027730*
X028584Y027816*
X028498Y027882*
X028398Y027923*
X028291Y027937*
G37*
G36*
X033291D02*
X033184Y027923D01*
X033085Y027882*
X032999Y027816*
X032933Y027730*
X032892Y027631*
X032878Y027524*
X032892Y027417*
X032933Y027317*
X032999Y027231*
X033085Y027165*
X033184Y027124*
X033291Y027110*
X033398Y027124*
X033498Y027165*
X033584Y027231*
X033649Y027317*
X033691Y027417*
X033705Y027524*
X033691Y027631*
X033649Y027730*
X033584Y027816*
X033498Y027882*
X033398Y027923*
X033291Y027937*
G37*
G36*
X032291D02*
X032184Y027923D01*
X032085Y027882*
X031999Y027816*
X031933Y027730*
X031892Y027631*
X031878Y027524*
X031892Y027417*
X031933Y027317*
X031999Y027231*
X032085Y027165*
X032184Y027124*
X032291Y027110*
X032398Y027124*
X032498Y027165*
X032584Y027231*
X032649Y027317*
X032691Y027417*
X032705Y027524*
X032691Y027631*
X032649Y027730*
X032584Y027816*
X032498Y027882*
X032398Y027923*
X032291Y027937*
G37*
G36*
X047852Y027234D02*
X047585D01*
Y026967*
X047852*
Y027234*
G37*
G36*
X047485D02*
X047219D01*
Y026967*
X047485*
Y027234*
G37*
G36*
X034739Y027474D02*
X034341D01*
Y027076*
X034409Y027085*
X034518Y027131*
X034612Y027203*
X034684Y027297*
X034730Y027406*
X034739Y027474*
G37*
G36*
X034241D02*
X033844D01*
X033853Y027406*
X033898Y027297*
X033970Y027203*
X034064Y027131*
X034174Y027085*
X034241Y027076*
Y027474*
G37*
G36*
Y027971D02*
X034174Y027962D01*
X034064Y027917*
X033970Y027845*
X033898Y027751*
X033853Y027641*
X033844Y027574*
X034241*
Y027971*
G37*
G36*
X048757Y027773D02*
X048491D01*
Y027506*
X048757*
Y027773*
G37*
G36*
X043903Y027852D02*
X043636D01*
Y027585*
X043903*
Y027852*
G37*
G36*
X034341Y027971D02*
Y027574D01*
X034739*
X034730Y027641*
X034684Y027751*
X034612Y027845*
X034518Y027917*
X034409Y027962*
X034341Y027971*
G37*
G36*
X031291Y027912D02*
X031191Y027899D01*
X031097Y027860*
X031017Y027798*
X030955Y027718*
X030916Y027624*
X030903Y027524*
X030916Y027423*
X030955Y027329*
X031017Y027249*
X031097Y027187*
X031191Y027149*
X031291Y027135*
X031392Y027149*
X031486Y027187*
X031566Y027249*
X031628Y027329*
X031666Y027423*
X031680Y027524*
X031666Y027624*
X031628Y027718*
X031566Y027798*
X031486Y027860*
X031392Y027899*
X031291Y027912*
G37*
G36*
X030291D02*
X030191Y027899D01*
X030097Y027860*
X030017Y027798*
X029955Y027718*
X029916Y027624*
X029903Y027524*
X029916Y027423*
X029955Y027329*
X030017Y027249*
X030097Y027187*
X030191Y027149*
X030291Y027135*
X030392Y027149*
X030485Y027187*
X030566Y027249*
X030628Y027329*
X030666Y027423*
X030680Y027524*
X030666Y027624*
X030628Y027718*
X030566Y027798*
X030485Y027860*
X030392Y027899*
X030291Y027912*
G37*
G36*
X048391Y027773D02*
X048124D01*
Y027506*
X048391*
Y027773*
G37*
G36*
X041198Y028493D02*
X040645D01*
Y027940*
X040819*
Y027862*
X040827Y027823*
X040849Y027790*
X040916Y027723*
X040904Y027694*
X040895Y027626*
X040904Y027558*
X040930Y027495*
X040972Y027441*
X041026Y027399*
X041090Y027373*
X041157Y027364*
X041225Y027373*
X041289Y027399*
X041343Y027441*
X041385Y027495*
X041411Y027558*
X041420Y027626*
X041411Y027694*
X041385Y027757*
X041343Y027811*
X041289Y027853*
X041225Y027879*
X041157Y027888*
X041090Y027879*
X041075Y027873*
X041040Y027909*
X041053Y027940*
X041198*
Y028493*
G37*
G36*
X031291Y021937D02*
X031184Y021923D01*
X031085Y021882*
X030999Y021816*
X030933Y021730*
X030892Y021631*
X030878Y021524*
X030892Y021417*
X030933Y021317*
X030999Y021231*
X031085Y021165*
X031184Y021124*
X031291Y021110*
X031398Y021124*
X031498Y021165*
X031584Y021231*
X031649Y021317*
X031691Y021417*
X031705Y021524*
X031691Y021631*
X031649Y021730*
X031584Y021816*
X031498Y021882*
X031398Y021923*
X031291Y021937*
G37*
G36*
X030291D02*
X030184Y021923D01*
X030085Y021882*
X029999Y021816*
X029933Y021730*
X029892Y021631*
X029878Y021524*
X029892Y021417*
X029933Y021317*
X029999Y021231*
X030085Y021165*
X030184Y021124*
X030291Y021110*
X030398Y021124*
X030498Y021165*
X030584Y021231*
X030649Y021317*
X030691Y021417*
X030705Y021524*
X030691Y021631*
X030649Y021730*
X030584Y021816*
X030498Y021882*
X030398Y021923*
X030291Y021937*
G37*
G36*
X035341Y021971D02*
Y021574D01*
X035739*
X035730Y021641*
X035684Y021751*
X035612Y021845*
X035518Y021917*
X035409Y021962*
X035341Y021971*
G37*
G36*
X035241D02*
X035174Y021962D01*
X035064Y021917*
X034970Y021845*
X034898Y021751*
X034853Y021641*
X034844Y021574*
X035241*
Y021971*
G37*
G36*
X035739Y021474D02*
X035341D01*
Y021076*
X035409Y021085*
X035518Y021131*
X035612Y021203*
X035684Y021297*
X035730Y021406*
X035739Y021474*
G37*
G36*
X035241D02*
X034844D01*
X034853Y021406*
X034898Y021297*
X034970Y021203*
X035064Y021131*
X035174Y021085*
X035241Y021076*
Y021474*
G37*
G36*
X029291Y021937D02*
X029184Y021923D01*
X029085Y021882*
X028999Y021816*
X028933Y021730*
X028892Y021631*
X028878Y021524*
X028892Y021417*
X028933Y021317*
X028999Y021231*
X029085Y021165*
X029184Y021124*
X029291Y021110*
X029398Y021124*
X029498Y021165*
X029584Y021231*
X029649Y021317*
X029691Y021417*
X029705Y021524*
X029691Y021631*
X029649Y021730*
X029584Y021816*
X029498Y021882*
X029398Y021923*
X029291Y021937*
G37*
G36*
X028291D02*
X028184Y021923D01*
X028085Y021882*
X027999Y021816*
X027933Y021730*
X027892Y021631*
X027878Y021524*
X027892Y021417*
X027933Y021317*
X027999Y021231*
X028085Y021165*
X028184Y021124*
X028291Y021110*
X028398Y021124*
X028498Y021165*
X028584Y021231*
X028649Y021317*
X028691Y021417*
X028705Y021524*
X028691Y021631*
X028649Y021730*
X028584Y021816*
X028498Y021882*
X028398Y021923*
X028291Y021937*
G37*
G36*
X045753Y025147D02*
X045487D01*
Y024881*
X045753*
Y025147*
G37*
G36*
X046120Y024781D02*
X045853D01*
Y024514*
X046120*
Y024781*
G37*
G36*
X047852Y026867D02*
X047585D01*
Y026601*
X047852*
Y026867*
G37*
G36*
X047485D02*
X047219D01*
Y026601*
X047485*
Y026867*
G37*
G36*
X061748Y030760D02*
X061628Y030748D01*
X061513Y030713*
X061407Y030656*
X061314Y030580*
X061237Y030487*
X061181Y030381*
X061146Y030265*
X061134Y030146*
X061146Y030026*
X061181Y029911*
X061237Y029804*
X061314Y029711*
X061407Y029635*
X061513Y029578*
X061628Y029543*
X061748Y029532*
X061868Y029543*
X061983Y029578*
X062049Y029614*
X062451Y029212*
Y024426*
X061633Y023608*
X061605Y023612*
X061537Y023603*
X061474Y023577*
X061420Y023535*
X061378Y023481*
X061352Y023417*
X061343Y023349*
X061352Y023282*
X061378Y023218*
X061420Y023164*
X061474Y023122*
X061537Y023096*
X061605Y023087*
X061673Y023096*
X061736Y023122*
X061791Y023164*
X061832Y023218*
X061859Y023282*
X061868Y023349*
X061864Y023377*
X062730Y024243*
X062765Y024296*
X062777Y024358*
Y029280*
X062765Y029342*
X062730Y029395*
X062280Y029844*
X062315Y029911*
X062350Y030026*
X062362Y030146*
X062350Y030265*
X062315Y030381*
X062259Y030487*
X062182Y030580*
X062089Y030656*
X061983Y030713*
X061868Y030748*
X061748Y030760*
G37*
G36*
X050410Y025147D02*
X049857D01*
Y024594*
X050032*
Y023613*
X049601Y023182*
X049572Y023194*
X049504Y023203*
X049436Y023194*
X049373Y023168*
X049318Y023126*
X049277Y023072*
X049251Y023009*
X049242Y022941*
X049251Y022873*
X049277Y022810*
X049318Y022756*
X049373Y022714*
X049436Y022688*
X049504Y022679*
X049572Y022688*
X049635Y022714*
X049689Y022756*
X049731Y022810*
X049757Y022873*
X049766Y022941*
X049757Y023009*
X049745Y023038*
X050206Y023499*
X050228Y023532*
X050236Y023571*
Y024594*
X050410*
Y025147*
G37*
G36*
X045753Y024781D02*
X045487D01*
Y024514*
X045753*
Y024781*
G37*
G36*
X049662Y025147D02*
X049109D01*
Y024594*
X049284*
Y024350*
X049279Y024347*
X049237Y024293*
X049211Y024229*
X049202Y024161*
X049211Y024094*
X049237Y024030*
X049279Y023976*
X049333Y023934*
X049397Y023908*
X049465Y023899*
X049532Y023908*
X049596Y023934*
X049650Y023976*
X049692Y024030*
X049718Y024094*
X049727Y024161*
X049718Y024229*
X049692Y024293*
X049650Y024347*
X049596Y024389*
X049532Y024415*
X049488Y024421*
Y024594*
X049662*
Y025147*
G37*
G36*
X044269Y027852D02*
X044003D01*
Y027585*
X044269*
Y027852*
G37*
G36*
X066787Y030799D02*
X066660Y030787D01*
X066537Y030750*
X066424Y030689*
X066325Y030608*
X066244Y030509*
X066183Y030396*
X066146Y030273*
X066134Y030146*
X066146Y030018*
X066183Y029896*
X066244Y029782*
X066325Y029683*
X066424Y029602*
X066537Y029542*
X066660Y029505*
X066787Y029492*
X066915Y029505*
X067038Y029542*
X067151Y029602*
X067250Y029683*
X067331Y029782*
X067391Y029896*
X067429Y030018*
X067441Y030146*
X067429Y030273*
X067391Y030396*
X067331Y030509*
X067250Y030608*
X067151Y030689*
X067038Y030750*
X066915Y030787*
X066787Y030799*
G37*
G36*
X027496Y030681D02*
X027376Y030669D01*
X027261Y030634*
X027155Y030578*
X027062Y030501*
X026985Y030408*
X026929Y030302*
X026894Y030187*
X026882Y030067*
X026894Y029947*
X026929Y029832*
X026985Y029726*
X027062Y029633*
X027155Y029556*
X027261Y029500*
X027376Y029465*
X027496Y029453*
X027616Y029465*
X027731Y029500*
X027837Y029556*
X027930Y029633*
X028007Y029726*
X028063Y029832*
X028098Y029947*
X028110Y030067*
X028098Y030187*
X028063Y030302*
X028007Y030408*
X027930Y030501*
X027837Y030578*
X027731Y030634*
X027616Y030669*
X027496Y030681*
G37*
G36*
X049661Y031311D02*
X048244D01*
X048205Y031303*
X048172Y031281*
X047700Y030808*
X047677Y030775*
X047670Y030736*
Y028810*
X047121Y028261*
X047091Y028273*
X047024Y028282*
X046956Y028273*
X046892Y028247*
X046838Y028205*
X046797Y028151*
X046770Y028088*
X046761Y028020*
X046770Y027952*
X046797Y027889*
X046838Y027834*
X046892Y027793*
X046956Y027766*
X047024Y027757*
X047091Y027766*
X047155Y027793*
X047209Y027834*
X047251Y027889*
X047277Y027952*
X047286Y028020*
X047277Y028088*
X047265Y028117*
X047844Y028696*
X047866Y028729*
X047874Y028768*
Y030694*
X048286Y031107*
X049619*
X050135Y030591*
X050103Y030514*
X050090Y030421*
X050103Y030329*
X050138Y030242*
X050195Y030168*
X050270Y030111*
X050356Y030075*
X050449Y030063*
X050542Y030075*
X050628Y030111*
X050702Y030168*
X050759Y030242*
X050795Y030329*
X050807Y030421*
X050795Y030514*
X050759Y030600*
X050702Y030675*
X050628Y030732*
X050542Y030767*
X050449Y030780*
X050356Y030767*
X050279Y030735*
X049734Y031281*
X049700Y031303*
X049661Y031311*
G37*
G36*
X031905Y030030D02*
X031345D01*
X031275Y030016*
X031215Y029976*
X031197Y029948*
X031055*
X031016Y029941*
X030983Y029919*
X030940Y029875*
X030910Y029887*
X030843Y029896*
X030775Y029887*
X030711Y029861*
X030657Y029819*
X030615Y029765*
X030589Y029702*
X030580Y029634*
X030589Y029566*
X030615Y029503*
X030657Y029448*
X030711Y029407*
X030775Y029381*
X030843Y029372*
X030910Y029381*
X030974Y029407*
X031028Y029448*
X031070Y029503*
X031096Y029566*
X031105Y029634*
X031096Y029702*
X031095Y029703*
X031123Y029745*
X031197*
X031215Y029717*
X031275Y029677*
X031345Y029663*
X031905*
X031975Y029677*
X032035Y029717*
X032075Y029776*
X032089Y029846*
X032075Y029917*
X032035Y029976*
X031975Y030016*
X031905Y030030*
G37*
G36*
X048717Y030068D02*
X048164D01*
Y029515*
X048520*
X048637Y029397*
X048674Y029373*
X048717Y029364*
X050844*
X050852Y029345*
X050893Y029291*
X050948Y029249*
X051011Y029223*
X051079Y029214*
X051147Y029223*
X051210Y029249*
X051264Y029291*
X051306Y029345*
X051332Y029409*
X051341Y029476*
X051332Y029544*
X051306Y029608*
X051264Y029662*
X051210Y029703*
X051147Y029730*
X051079Y029739*
X051011Y029730*
X050948Y029703*
X050893Y029662*
X050852Y029608*
X050844Y029589*
X048763*
X048717Y029634*
Y030068*
G37*
G36*
X041238Y029242D02*
X040971D01*
Y028975*
X041238*
Y029242*
G37*
G36*
X025331Y030681D02*
X025211Y030669D01*
X025096Y030634*
X024990Y030578*
X024896Y030501*
X024820Y030408*
X024763Y030302*
X024728Y030187*
X024717Y030067*
X024728Y029947*
X024763Y029832*
X024820Y029726*
X024896Y029633*
X024990Y029556*
X025096Y029500*
X025211Y029465*
X025331Y029453*
X025451Y029465*
X025566Y029500*
X025672Y029556*
X025765Y029633*
X025841Y029726*
X025898Y029832*
X025933Y029947*
X025945Y030067*
X025933Y030187*
X025898Y030302*
X025841Y030408*
X025765Y030501*
X025672Y030578*
X025566Y030634*
X025451Y030669*
X025331Y030681*
G37*
G36*
X022457Y030721D02*
X022329Y030708D01*
X022207Y030671*
X022094Y030610*
X021994Y030529*
X021913Y030430*
X021853Y030317*
X021816Y030194*
X021803Y030067*
X021816Y029939*
X021853Y029817*
X021913Y029704*
X021994Y029605*
X022094Y029523*
X022207Y029463*
X022329Y029426*
X022457Y029413*
X022584Y029426*
X022707Y029463*
X022820Y029523*
X022919Y029605*
X023000Y029704*
X023061Y029817*
X023098Y029939*
X023110Y030067*
X023098Y030194*
X023061Y030317*
X023000Y030430*
X022919Y030529*
X022820Y030610*
X022707Y030671*
X022584Y030708*
X022457Y030721*
G37*
G36*
X048391Y030817D02*
X048124D01*
Y030550*
X048391*
Y030817*
G37*
G36*
X039898Y031983D02*
X039830Y031974D01*
X039767Y031948*
X039712Y031906*
X039671Y031852*
X039644Y031788*
X039635Y031720*
X039644Y031653*
X039671Y031589*
X039712Y031535*
X039767Y031493*
X039796Y031481*
Y031133*
X039111Y030448*
X037329*
X037311Y030476*
X037251Y030516*
X037181Y030530*
X036621*
X036551Y030516*
X036491Y030476*
X036451Y030417*
X036437Y030346*
X036451Y030276*
X036491Y030217*
X036551Y030177*
X036621Y030163*
X037181*
X037251Y030177*
X037311Y030217*
X037329Y030245*
X039154*
X039193Y030252*
X039226Y030274*
X039970Y031018*
X039992Y031052*
X040000Y031091*
Y031481*
X040029Y031493*
X040083Y031535*
X040125Y031589*
X040151Y031653*
X040160Y031720*
X040151Y031788*
X040125Y031852*
X040083Y031906*
X040029Y031948*
X039966Y031974*
X039898Y031983*
G37*
G36*
X063913Y039028D02*
X063794Y039016D01*
X063678Y038981*
X063572Y038924*
X063479Y038848*
X063403Y038755*
X063346Y038648*
X063311Y038533*
X063299Y038413*
X063311Y038294*
X063346Y038178*
X063403Y038072*
X063479Y037979*
X063572Y037903*
X063678Y037846*
X063750Y037824*
Y037349*
X063678Y037327*
X063572Y037270*
X063479Y037194*
X063403Y037101*
X063346Y036995*
X063311Y036880*
X063299Y036760*
X063311Y036640*
X063346Y036525*
X063403Y036419*
X063479Y036326*
X063572Y036249*
X063678Y036192*
X063794Y036158*
X063913Y036146*
X064033Y036158*
X064148Y036192*
X064215Y036228*
X064813Y035629*
Y031276*
X064215Y030678*
X064148Y030713*
X064033Y030748*
X063913Y030760*
X063794Y030748*
X063678Y030713*
X063572Y030656*
X063479Y030580*
X063403Y030487*
X063346Y030381*
X063311Y030265*
X063299Y030146*
X063311Y030026*
X063346Y029911*
X063403Y029804*
X063479Y029711*
X063572Y029635*
X063678Y029578*
X063794Y029543*
X063913Y029532*
X064033Y029543*
X064148Y029578*
X064255Y029635*
X064348Y029711*
X064424Y029804*
X064481Y029911*
X064503Y029983*
X064597*
X065652Y028928*
X065704Y028893*
X065767Y028880*
X066152*
X066169Y028858*
X066223Y028816*
X066286Y028790*
X066354Y028781*
X066422Y028790*
X066485Y028816*
X066540Y028858*
X066581Y028912*
X066608Y028975*
X066617Y029043*
X066608Y029111*
X066581Y029174*
X066540Y029229*
X066485Y029270*
X066422Y029297*
X066354Y029306*
X066286Y029297*
X066223Y029270*
X066169Y029229*
X066152Y029206*
X065834*
X064780Y030261*
X064727Y030296*
X064665Y030309*
X064503*
X064481Y030381*
X064445Y030447*
X065092Y031093*
X065127Y031146*
X065140Y031209*
Y035697*
X065127Y035759*
X065092Y035812*
X064445Y036459*
X064481Y036525*
X064516Y036640*
X064528Y036760*
X064516Y036880*
X064481Y036995*
X064424Y037101*
X064348Y037194*
X064255Y037270*
X064148Y037327*
X064077Y037349*
Y037824*
X064148Y037846*
X064255Y037903*
X064348Y037979*
X064424Y038072*
X064481Y038178*
X064516Y038294*
X064528Y038413*
X064516Y038533*
X064481Y038648*
X064424Y038755*
X064348Y038848*
X064255Y038924*
X064148Y038981*
X064033Y039016*
X063913Y039028*
G37*
G36*
X048757Y030817D02*
X048491D01*
Y030550*
X048757*
Y030817*
G37*
G36*
Y030450D02*
X048491D01*
Y030183*
X048757*
Y030450*
G37*
G36*
X048391D02*
X048124D01*
Y030183*
X048391*
Y030450*
G37*
G36*
X047103Y031682D02*
X046550D01*
Y031129*
X046725*
X046732Y031094*
X046733Y031091*
X046755Y031058*
X047097Y030715*
X047085Y030686*
X047076Y030618*
X047085Y030550*
X047111Y030487*
X047153Y030433*
X047207Y030391*
X047271Y030365*
X047339Y030356*
X047406Y030365*
X047470Y030391*
X047524Y030433*
X047566Y030487*
X047592Y030550*
X047601Y030618*
X047592Y030686*
X047566Y030749*
X047524Y030804*
X047470Y030845*
X047406Y030871*
X047339Y030880*
X047271Y030871*
X047242Y030859*
X047018Y031083*
X047037Y031129*
X047103*
Y031682*
G37*
G36*
X053717Y031904D02*
X053649Y031895D01*
X053585Y031869*
X053531Y031827*
X053489Y031773*
X053463Y031710*
X053454Y031642*
X053463Y031574*
X053489Y031511*
X053531Y031456*
X053585Y031415*
X053649Y031388*
X053717Y031379*
X053751Y031384*
X054156Y030979*
X054189Y030957*
X054228Y030949*
X055997*
X056271Y030676*
X056259Y030647*
X056250Y030579*
X056259Y030511*
X056285Y030448*
X056326Y030393*
X056381Y030352*
X056444Y030325*
X056512Y030317*
X056580Y030325*
X056643Y030352*
X056697Y030393*
X056739Y030448*
X056765Y030511*
X056774Y030579*
X056765Y030647*
X056739Y030710*
X056697Y030764*
X056643Y030806*
X056580Y030832*
X056512Y030841*
X056444Y030832*
X056415Y030820*
X056111Y031123*
X056078Y031145*
X056039Y031153*
X054271*
X053930Y031493*
X053944Y031511*
X053970Y031574*
X053979Y031642*
X053970Y031710*
X053944Y031773*
X053902Y031827*
X053848Y031869*
X053784Y031895*
X053717Y031904*
G37*
G36*
X044269Y028218D02*
X044003D01*
Y027952*
X044269*
Y028218*
G37*
G36*
X043903D02*
X043636D01*
Y027952*
X043903*
Y028218*
G37*
G36*
X041946Y028533D02*
X041680D01*
Y028267*
X041946*
Y028533*
G37*
G36*
X041580D02*
X041313D01*
Y028267*
X041580*
Y028533*
G37*
G36*
X048757Y028139D02*
X048491D01*
Y027873*
X048757*
Y028139*
G37*
G36*
X048391D02*
X048124D01*
Y027873*
X048391*
Y028139*
G37*
G36*
X041946Y028167D02*
X041680D01*
Y027900*
X041946*
Y028167*
G37*
G36*
X041580D02*
X041313D01*
Y027900*
X041580*
Y028167*
G37*
G36*
X031905Y029530D02*
X031345D01*
X031275Y029516*
X031215Y029476*
X031176Y029417*
X031162Y029346*
X031176Y029276*
X031215Y029217*
X031275Y029177*
X031345Y029163*
X031905*
X031975Y029177*
X032035Y029217*
X032044Y029230*
X032094Y029233*
X032117Y029207*
X032116Y029201*
X032125Y029133*
X032151Y029070*
X032193Y029015*
X032247Y028974*
X032310Y028947*
X032378Y028939*
X032446Y028947*
X032509Y028974*
X032563Y029015*
X032605Y029070*
X032631Y029133*
X032640Y029201*
X032631Y029269*
X032605Y029332*
X032563Y029386*
X032509Y029428*
X032446Y029454*
X032378Y029463*
X032310Y029454*
X032274Y029439*
X032271Y029441*
X032232Y029448*
X032054*
X032035Y029476*
X031975Y029516*
X031905Y029530*
G37*
G36*
X053205Y031313D02*
X053137Y031304D01*
X053074Y031278*
X053019Y031237*
X052978Y031182*
X052951Y031119*
X052942Y031051*
X052951Y030983*
X052978Y030920*
X053019Y030866*
X053074Y030824*
X053137Y030798*
X053205Y030789*
X053273Y030798*
X053302Y030810*
X053654Y030458*
Y029243*
X053625Y029231*
X053570Y029189*
X053529Y029135*
X053503Y029072*
X053494Y029004*
X053503Y028936*
X053529Y028873*
X053570Y028819*
X053625Y028777*
X053688Y028751*
X053756Y028742*
X053824Y028751*
X053887Y028777*
X053941Y028819*
X053983Y028873*
X054009Y028936*
X054018Y029004*
X054009Y029072*
X053983Y029135*
X053941Y029189*
X053887Y029231*
X053858Y029243*
Y030500*
X053850Y030539*
X053828Y030572*
X053446Y030954*
X053458Y030983*
X053467Y031051*
X053458Y031119*
X053432Y031182*
X053390Y031237*
X053336Y031278*
X053273Y031304*
X053205Y031313*
G37*
G36*
X040871Y029242D02*
X040605D01*
Y028975*
X040871*
Y029242*
G37*
G36*
X051079Y029109D02*
X051011Y029100D01*
X050948Y029074*
X050893Y029032*
X050852Y028978*
X050844Y028959*
X048992*
X048949Y028950*
X048913Y028926*
X048764Y028777*
X048717Y028796*
Y028808*
X048164*
Y028255*
X048717*
Y028427*
X048720Y028428*
X048756Y028452*
X049039Y028734*
X050844*
X050852Y028715*
X050893Y028661*
X050948Y028619*
X051011Y028593*
X051079Y028584*
X051147Y028593*
X051210Y028619*
X051264Y028661*
X051306Y028715*
X051332Y028779*
X051341Y028846*
X051332Y028914*
X051306Y028978*
X051264Y029032*
X051210Y029074*
X051147Y029100*
X051079Y029109*
G37*
G36*
X041906Y029202D02*
X041353D01*
Y028649*
X041906*
Y028744*
X042651*
X042663Y028715*
X042704Y028661*
X042759Y028619*
X042822Y028593*
X042890Y028584*
X042958Y028593*
X043021Y028619*
X043075Y028661*
X043117Y028715*
X043143Y028779*
X043152Y028846*
X043143Y028914*
X043117Y028978*
X043075Y029032*
X043021Y029074*
X042958Y029100*
X042890Y029109*
X042822Y029100*
X042759Y029074*
X042704Y029032*
X042663Y028978*
X042651Y028948*
X041906*
Y029202*
G37*
G36*
X041866Y031193D02*
X041779Y031181D01*
X041697Y031147*
X041627Y031094*
X041573Y031024*
X041539Y030942*
X041528Y030854*
X041539Y030767*
X041573Y030685*
X041627Y030615*
X041697Y030561*
X041779Y030527*
X041866Y030516*
X041954Y030527*
X042035Y030561*
X042105Y030615*
X042159Y030685*
X042187Y030752*
X043084*
X045129Y028707*
X045117Y028678*
X045108Y028610*
X045117Y028542*
X045143Y028479*
X045185Y028425*
X045239Y028383*
X045302Y028357*
X045370Y028348*
X045438Y028357*
X045501Y028383*
X045556Y028425*
X045597Y028479*
X045623Y028542*
X045632Y028610*
X045623Y028678*
X045597Y028741*
X045556Y028796*
X045501Y028837*
X045438Y028864*
X045370Y028872*
X045302Y028864*
X045273Y028851*
X043198Y030926*
X043165Y030949*
X043126Y030956*
X042187*
X042159Y031024*
X042105Y031094*
X042035Y031147*
X041954Y031181*
X041866Y031193*
G37*
G36*
X041238Y028875D02*
X040971D01*
Y028609*
X041238*
Y028875*
G37*
G36*
X040871D02*
X040605D01*
Y028609*
X040871*
Y028875*
G37*
G36*
X045293Y047025D02*
X045026D01*
Y046758*
X045293*
Y047025*
G37*
G36*
X044926D02*
X044660D01*
Y046758*
X044926*
Y047025*
G37*
G36*
X045293Y047391D02*
X045026D01*
Y047125*
X045293*
Y047391*
G37*
G36*
X044926D02*
X044660D01*
Y047125*
X044926*
Y047391*
G37*
G36*
X027496Y047217D02*
X027376Y047205D01*
X027261Y047170*
X027155Y047113*
X027062Y047037*
X026985Y046944*
X026929Y046837*
X026894Y046722*
X026882Y046602*
X026894Y046483*
X026929Y046367*
X026985Y046261*
X027062Y046168*
X027155Y046092*
X027261Y046035*
X027376Y046000*
X027496Y045988*
X027616Y046000*
X027731Y046035*
X027837Y046092*
X027930Y046168*
X028007Y046261*
X028063Y046367*
X028098Y046483*
X028110Y046602*
X028098Y046722*
X028063Y046837*
X028007Y046944*
X027930Y047037*
X027837Y047113*
X027731Y047170*
X027616Y047205*
X027496Y047217*
G37*
G36*
X025331D02*
X025211Y047205D01*
X025096Y047170*
X024990Y047113*
X024896Y047037*
X024820Y046944*
X024763Y046837*
X024728Y046722*
X024717Y046602*
X024728Y046483*
X024763Y046367*
X024820Y046261*
X024896Y046168*
X024990Y046092*
X025096Y046035*
X025211Y046000*
X025331Y045988*
X025451Y046000*
X025566Y046035*
X025672Y046092*
X025765Y046168*
X025841Y046261*
X025898Y046367*
X025933Y046483*
X025945Y046602*
X025933Y046722*
X025898Y046837*
X025841Y046944*
X025765Y047037*
X025672Y047113*
X025566Y047170*
X025451Y047205*
X025331Y047217*
G37*
G36*
X055780Y047095D02*
X055672Y047081D01*
X055573Y047039*
X055487Y046974*
X055421Y046888*
X055380Y046788*
X055366Y046681*
X055380Y046574*
X055421Y046474*
X055487Y046389*
X055573Y046323*
X055672Y046282*
X055780Y046268*
X055887Y046282*
X055986Y046323*
X056072Y046389*
X056138Y046474*
X056164Y046538*
X057259*
Y046365*
X057812*
Y046997*
X057259*
Y046824*
X056164*
X056138Y046888*
X056072Y046974*
X055986Y047039*
X055887Y047081*
X055780Y047095*
G37*
G36*
X049416Y047129D02*
X048509D01*
Y046222*
X049416*
Y047129*
G37*
G36*
X059506Y047891D02*
X059239D01*
Y047585*
X059506*
Y047891*
G37*
G36*
X059139D02*
X058872D01*
Y047585*
X059139*
Y047891*
G37*
G36*
X022457Y048910D02*
X022329Y048897D01*
X022207Y048860*
X022094Y048799*
X021994Y048718*
X021913Y048619*
X021853Y048506*
X021816Y048383*
X021803Y048256*
X021816Y048128*
X021853Y048006*
X021913Y047893*
X021994Y047794*
X022094Y047712*
X022207Y047652*
X022329Y047615*
X022457Y047602*
X022584Y047615*
X022707Y047652*
X022820Y047712*
X022919Y047794*
X023000Y047893*
X023061Y048006*
X023098Y048128*
X023110Y048256*
X023098Y048383*
X023061Y048506*
X023000Y048619*
X022919Y048718*
X022820Y048799*
X022707Y048860*
X022584Y048897*
X022457Y048910*
G37*
G36*
X051828Y049369D02*
X051007D01*
Y048639*
X051282*
Y048256*
X051290Y048213*
X051314Y048177*
X051669Y047822*
X051705Y047798*
X051748Y047789*
X053952*
Y047586*
X054505*
Y048218*
X053952*
Y048014*
X051794*
X051506Y048302*
Y048639*
X051828*
Y049369*
G37*
G36*
X035746Y047733D02*
X035302D01*
Y047290*
X035746*
Y047733*
G37*
G36*
X035202D02*
X034758D01*
Y047290*
X035202*
Y047733*
G37*
G36*
X046310Y048009D02*
X045869D01*
Y047568*
X045948Y047578*
X046068Y047628*
X046171Y047707*
X046250Y047810*
X046300Y047930*
X046310Y048009*
G37*
G36*
X045769D02*
X045328D01*
X045338Y047930*
X045388Y047810*
X045467Y047707*
X045570Y047628*
X045690Y047578*
X045769Y047568*
Y048009*
G37*
G36*
X061748Y045721D02*
X061613Y045707D01*
X061483Y045668*
X061363Y045604*
X061258Y045518*
X061172Y045413*
X061108Y045293*
X061068Y045163*
X061055Y045028*
X061068Y044892*
X061108Y044762*
X061172Y044642*
X061258Y044537*
X061363Y044451*
X061483Y044387*
X061613Y044348*
X061748Y044334*
X061883Y044348*
X062013Y044387*
X062133Y044451*
X062238Y044537*
X062324Y044642*
X062389Y044762*
X062428Y044892*
X062441Y045028*
X062428Y045163*
X062389Y045293*
X062324Y045413*
X062238Y045518*
X062133Y045604*
X062013Y045668*
X061883Y045707*
X061748Y045721*
G37*
G36*
X041789Y044360D02*
X041522D01*
Y044093*
X041789*
Y044360*
G37*
G36*
X027496Y045563D02*
X027376Y045551D01*
X027261Y045516*
X027155Y045459*
X027062Y045383*
X026985Y045290*
X026929Y045184*
X026894Y045069*
X026882Y044949*
X026894Y044829*
X026929Y044714*
X026985Y044608*
X027062Y044515*
X027155Y044438*
X027261Y044381*
X027376Y044346*
X027496Y044335*
X027616Y044346*
X027731Y044381*
X027837Y044438*
X027930Y044515*
X028007Y044608*
X028063Y044714*
X028098Y044829*
X028110Y044949*
X028098Y045069*
X028063Y045184*
X028007Y045290*
X027930Y045383*
X027837Y045459*
X027731Y045516*
X027616Y045551*
X027496Y045563*
G37*
G36*
X025331D02*
X025211Y045551D01*
X025096Y045516*
X024990Y045459*
X024896Y045383*
X024820Y045290*
X024763Y045184*
X024728Y045069*
X024717Y044949*
X024728Y044829*
X024763Y044714*
X024820Y044608*
X024896Y044515*
X024990Y044438*
X025096Y044381*
X025211Y044346*
X025331Y044335*
X025451Y044346*
X025566Y044381*
X025672Y044438*
X025765Y044515*
X025841Y044608*
X025898Y044714*
X025933Y044829*
X025945Y044949*
X025933Y045069*
X025898Y045184*
X025841Y045290*
X025765Y045383*
X025672Y045459*
X025566Y045516*
X025451Y045551*
X025331Y045563*
G37*
G36*
X041422Y043993D02*
X041156D01*
Y043727*
X041422*
Y043993*
G37*
G36*
X038422Y045245D02*
X037515D01*
Y044568*
X036857Y043911*
X036798Y043903*
X036735Y043877*
X036681Y043835*
X036664Y043813*
X035724*
X035662Y043800*
X035609Y043765*
X033255Y041411*
X032339*
X032276Y041399*
X032223Y041363*
X030937Y040077*
X030883Y040131*
Y040540*
X030330*
Y039987*
X030739*
X030793Y039933*
X030333Y039474*
X030298Y039421*
X030286Y039358*
Y033217*
X030298Y033154*
X030333Y033101*
X031239Y032196*
X031357Y032077*
X031343Y032030*
X031275Y032016*
X031265Y032010*
X031087*
X031024Y031997*
X030971Y031962*
X030814Y031804*
X030778Y031751*
X030766Y031689*
Y030654*
X030594Y030482*
X030549Y030504*
X030554Y030539*
X030545Y030607*
X030518Y030670*
X030477Y030725*
X030422Y030766*
X030359Y030793*
X030291Y030802*
X030223Y030793*
X030160Y030766*
X030106Y030725*
X030064Y030670*
X030038Y030607*
X030029Y030539*
X030036Y030486*
X030003Y030448*
X029854*
X029835Y030476*
X029775Y030516*
X029705Y030530*
X029145*
X029075Y030516*
X029015Y030476*
X028976Y030417*
X028962Y030346*
X028976Y030276*
X029015Y030217*
X029075Y030177*
X029145Y030163*
X029705*
X029775Y030177*
X029835Y030217*
X029854Y030245*
X030098*
X030137Y030252*
X030171Y030274*
X030194Y030298*
X030223Y030286*
X030291Y030277*
X030327Y030282*
X030349Y030237*
X030176Y030064*
X030141Y030011*
X030128Y029949*
Y029010*
X029885*
Y029026*
X028965*
Y029010*
X028722*
X028705Y029032*
X028651Y029074*
X028588Y029100*
X028520Y029109*
X028452Y029100*
X028389Y029074*
X028334Y029032*
X028317Y029010*
X028159*
X028140Y029056*
X028318Y029234*
X029004*
X029015Y029217*
X029075Y029177*
X029145Y029163*
X029705*
X029775Y029177*
X029835Y029217*
X029875Y029276*
X029889Y029346*
X029875Y029417*
X029835Y029476*
X029775Y029516*
X029705Y029530*
X029145*
X029075Y029516*
X029015Y029476*
X029004Y029459*
X028272*
X028252Y029455*
X028228Y029499*
X028464Y029734*
X029004*
X029015Y029717*
X029075Y029677*
X029145Y029663*
X029705*
X029775Y029677*
X029835Y029717*
X029875Y029776*
X029889Y029846*
X029875Y029917*
X029835Y029976*
X029775Y030016*
X029705Y030030*
X029145*
X029075Y030016*
X029015Y029976*
X029004Y029959*
X028417*
X028374Y029950*
X028338Y029926*
X027804Y029392*
X026709*
X026666Y029383*
X026629Y029359*
X025763Y028493*
X025739Y028456*
X025730Y028413*
Y026209*
X025739Y026166*
X025763Y026129*
X026472Y025421*
X026508Y025396*
X026551Y025388*
X031505*
X032179Y024713*
Y021921*
X032085Y021882*
X031999Y021816*
X031933Y021730*
X031892Y021631*
X031878Y021524*
X031892Y021417*
X031933Y021317*
X031999Y021231*
X032085Y021165*
X032184Y021124*
X032291Y021110*
X032398Y021124*
X032498Y021165*
X032584Y021231*
X032649Y021317*
X032691Y021417*
X032705Y021524*
X032691Y021631*
X032649Y021730*
X032584Y021816*
X032498Y021882*
X032403Y021921*
Y024760*
X032400Y024780*
X032444Y024803*
X033179Y024068*
Y021921*
X033085Y021882*
X032999Y021816*
X032933Y021730*
X032892Y021631*
X032878Y021524*
X032892Y021417*
X032933Y021317*
X032999Y021231*
X033085Y021165*
X033184Y021124*
X033291Y021110*
X033398Y021124*
X033498Y021165*
X033584Y021231*
X033649Y021317*
X033691Y021417*
X033705Y021524*
X033691Y021631*
X033649Y021730*
X033584Y021816*
X033498Y021882*
X033403Y021921*
Y024114*
X033395Y024157*
X033371Y024193*
X031749Y025816*
X031712Y025840*
X031722Y025888*
X033452*
X034128Y025212*
Y021900*
X034085Y021882*
X033999Y021816*
X033933Y021730*
X033892Y021631*
X033878Y021524*
X033892Y021417*
X033933Y021317*
X033999Y021231*
X034085Y021165*
X034184Y021124*
X034291Y021110*
X034398Y021124*
X034498Y021165*
X034584Y021231*
X034649Y021317*
X034691Y021417*
X034705Y021524*
X034691Y021631*
X034649Y021730*
X034584Y021816*
X034498Y021882*
X034454Y021900*
Y025280*
X034442Y025342*
X034407Y025395*
X033635Y026167*
X033582Y026202*
X033520Y026214*
X027012*
X026557Y026670*
Y028070*
X027170Y028683*
X028317*
X028334Y028661*
X028389Y028619*
X028452Y028593*
X028520Y028584*
X028588Y028593*
X028651Y028619*
X028705Y028661*
X028722Y028683*
X028965*
Y028666*
X029885*
Y028683*
X030291*
X030354Y028696*
X030407Y028731*
X030442Y028784*
X030454Y028846*
Y029881*
X031044Y030471*
X031080Y030524*
X031092Y030587*
Y031621*
X031154Y031683*
X031265*
X031275Y031677*
X031345Y031663*
X031905*
X031975Y031677*
X032035Y031717*
X032075Y031776*
X032089Y031846*
X032075Y031917*
X032035Y031976*
X031975Y032016*
X031905Y032030*
X031788*
Y032040*
X031776Y032103*
X031775Y032104*
X031799Y032148*
X032507*
X032648Y032007*
Y031401*
X032601Y031385*
X032563Y031433*
X032509Y031475*
X032446Y031501*
X032378Y031510*
X032310Y031501*
X032247Y031475*
X032193Y031433*
X032151Y031379*
X032137Y031347*
X032088Y031352*
X032075Y031417*
X032035Y031476*
X031975Y031516*
X031905Y031530*
X031345*
X031275Y031516*
X031215Y031476*
X031176Y031417*
X031162Y031346*
X031176Y031276*
X031215Y031217*
X031275Y031177*
X031345Y031163*
X031905*
X031975Y031177*
X032035Y031217*
X032069Y031268*
X032116Y031250*
Y031248*
X032125Y031180*
X032137Y031151*
X031991Y031005*
X031975Y031016*
X031905Y031030*
X031345*
X031275Y031016*
X031215Y030976*
X031176Y030917*
X031162Y030846*
X031176Y030776*
X031215Y030717*
X031275Y030677*
X031345Y030663*
X031905*
X031975Y030677*
X032035Y030717*
X032059Y030753*
X032060Y030752*
X032103Y030729*
X032085Y030686*
X032076Y030618*
X032085Y030550*
X032093Y030531*
X032038Y030476*
X032035*
X031975Y030516*
X031905Y030530*
X031345*
X031275Y030516*
X031215Y030476*
X031176Y030417*
X031162Y030346*
X031176Y030276*
X031215Y030217*
X031275Y030177*
X031345Y030163*
X031905*
X031975Y030177*
X032035Y030217*
X032047Y030234*
X032067*
X032110Y030243*
X032146Y030267*
X032252Y030373*
X032271Y030365*
X032339Y030356*
X032406Y030365*
X032470Y030391*
X032524Y030433*
X032566Y030487*
X032592Y030550*
X032598Y030597*
X032648Y030593*
Y030392*
X032601Y030373*
X032547Y030331*
X032505Y030277*
X032479Y030214*
X032470Y030146*
X032479Y030078*
X032505Y030015*
X032547Y029960*
X032601Y029919*
X032664Y029892*
X032732Y029883*
X032800Y029892*
X032863Y029919*
X032918Y029960*
X032959Y030015*
X032975Y030052*
X033024Y030042*
Y029635*
X032771*
Y029082*
X033324*
Y029635*
X033228*
Y029755*
X033274Y029775*
X033774Y029274*
X033807Y029252*
X033846Y029244*
X034272*
X034291Y029217*
X034351Y029177*
X034421Y029163*
X034981*
X035051Y029177*
X035111Y029217*
X035150Y029276*
X035164Y029346*
X035150Y029417*
X035111Y029476*
X035051Y029516*
X034981Y029530*
X034421*
X034351Y029516*
X034291Y029476*
X034272Y029448*
X033889*
X033228Y030109*
Y036445*
X033220Y036484*
X033198Y036517*
X032371Y037344*
X032338Y037366*
X032299Y037374*
X031331*
Y037399*
Y037445*
X032533*
X033300Y036678*
Y030854*
X033307Y030815*
X033329Y030782*
X033837Y030274*
X033870Y030252*
X033909Y030245*
X034272*
X034291Y030217*
X034351Y030177*
X034421Y030163*
X034981*
X035051Y030177*
X035111Y030217*
X035150Y030276*
X035164Y030346*
X035150Y030417*
X035111Y030476*
X035051Y030516*
X034981Y030530*
X034421*
X034351Y030516*
X034291Y030476*
X034272Y030448*
X033952*
X033504Y030897*
Y036720*
X033496Y036759*
X033474Y036793*
X032647Y037619*
X032614Y037641*
X032575Y037649*
X032256*
X032241Y037697*
X032257Y037707*
X033438Y038889*
X033474Y038942*
X033486Y039004*
Y041180*
X035792Y043486*
X036664*
X036681Y043464*
X036735Y043422*
X036798Y043396*
X036866Y043387*
X036934Y043396*
X036997Y043422*
X037052Y043464*
X037093Y043518*
X037119Y043582*
X037128Y043650*
X037120Y043712*
X037746Y044338*
X038422*
Y045245*
G37*
G36*
X041422Y044360D02*
X041156D01*
Y044093*
X041422*
Y044360*
G37*
G36*
X041789Y043993D02*
X041522D01*
Y043727*
X041789*
Y043993*
G37*
G36*
X051868Y045649D02*
X051467D01*
Y045294*
X051868*
Y045649*
G37*
G36*
X051367D02*
X050967D01*
Y045294*
X051367*
Y045649*
G37*
G36*
X038751Y048629D02*
Y048138D01*
Y047646*
X038830Y047657*
X038860Y047670*
X038888Y047628*
X037173Y045913*
X037123*
X037018Y046019*
Y047330*
X037359*
Y048237*
X036452*
Y047330*
X036793*
Y045972*
X036802Y045930*
X036811Y045916*
X036788Y045872*
X035164*
X035147Y045885*
X035084Y045911*
X035016Y045920*
X034948Y045911*
X034885Y045885*
X034830Y045843*
X034789Y045789*
X034762Y045725*
X034753Y045657*
X034762Y045590*
X034789Y045526*
X034830Y045472*
X034885Y045430*
X034948Y045404*
X035016Y045395*
X035084Y045404*
X035147Y045430*
X035164Y045443*
X037220*
X037302Y045460*
X037372Y045506*
X039440Y047575*
X039487Y047556*
Y041445*
X039503Y041363*
X039549Y041293*
X040849Y039994*
X040918Y039948*
X041000Y039932*
X045528*
X045609Y039948*
X045679Y039994*
X045968Y040283*
X045989Y040286*
X046052Y040312*
X046107Y040354*
X046148Y040408*
X046175Y040472*
X046184Y040539*
X046175Y040607*
X046148Y040670*
X046107Y040725*
X046052Y040766*
X045989Y040793*
X045921Y040802*
X045853Y040793*
X045790Y040766*
X045736Y040725*
X045694Y040670*
X045668Y040607*
X045665Y040586*
X045439Y040360*
X041089*
X039915Y041534*
Y047684*
X040154*
Y048591*
X039247*
Y048159*
X039240Y048152*
X039221Y048151*
X039197Y048150*
X039182Y048267*
X039132Y048387*
X039053Y048490*
X038950Y048569*
X038830Y048619*
X038751Y048629*
G37*
G36*
X044013Y047962D02*
X043499D01*
Y047592*
X042660Y046753*
X042638Y046720*
X042630Y046681*
Y046347*
X042456*
Y045991*
Y045676*
Y045361*
Y045326*
X042341*
X041929Y045739*
Y047072*
X042305Y047448*
X042674*
Y047962*
X042160*
Y047592*
X041755Y047186*
X041733Y047153*
X041725Y047114*
Y045697*
X041733Y045658*
X041755Y045625*
X042227Y045152*
X042260Y045130*
X042299Y045122*
X042456*
Y045046*
Y045011*
X042184*
X041456Y045739*
Y046681*
X041449Y046720*
X041426Y046753*
X041141Y047038*
Y047448*
X041296*
Y047962*
X040783*
Y047448*
X040937*
Y046996*
X040945Y046957*
X040967Y046924*
X041252Y046639*
Y045697*
X041260Y045658*
X041282Y045625*
X042070Y044837*
X042103Y044815*
X042142Y044807*
X042456*
Y044731*
Y044416*
X042987*
Y044279*
X043063*
Y044204*
X043044Y044185*
X042538*
X041899Y044824*
X041866Y044846*
X041827Y044854*
X041749*
Y045029*
X041196*
Y044475*
X041749*
Y044620*
X041795Y044639*
X042424Y044011*
X042445Y043996*
X042431Y043948*
X042299*
X042260Y043941*
X042227Y043919*
X041942Y043633*
X040924*
X040866Y043692*
Y043767*
X041040*
Y044320*
X040907*
Y044475*
X041040*
Y045029*
X040907*
Y046445*
X040896Y046500*
X040883Y046518*
X040865Y046546*
X040625Y046785*
X040632Y046839*
X040623Y046906*
X040597Y046970*
X040556Y047024*
X040501Y047066*
X040438Y047092*
X040370Y047101*
X040302Y047092*
X040239Y047066*
X040185Y047024*
X040143Y046970*
X040117Y046906*
X040108Y046839*
X040117Y046771*
X040143Y046707*
X040185Y046653*
X040239Y046611*
X040302Y046585*
X040370Y046576*
X040423Y046583*
X040621Y046386*
Y045029*
X040487*
Y044475*
X040621*
Y044320*
X040487*
Y043767*
X040662*
Y043650*
X040670Y043611*
X040692Y043578*
X040810Y043459*
X040843Y043437*
X040882Y043430*
X041984*
X042023Y043437*
X042056Y043459*
X042341Y043745*
X043006*
Y043730*
Y043709*
Y043463*
X043639*
Y043730*
X043464*
X043441Y043765*
X043436Y043776*
X043671Y044011*
X043693Y044044*
X043700Y044083*
Y044416*
X043875*
Y044691*
X043915*
Y044859*
X043282*
Y044832*
X043009*
Y045046*
Y045361*
Y045676*
Y045932*
X043322*
Y045676*
Y045361*
Y045128*
X043282*
Y044959*
X043915*
Y045122*
X044068*
X044087Y045103*
Y044476*
X044095Y044437*
X044117Y044404*
X044491Y044030*
X044476Y043982*
X044465Y043980*
X044432Y043958*
X044164Y043690*
X043755*
Y043137*
X044308*
Y043546*
X044546Y043784*
X044678*
Y041681*
X044685Y041642*
X044707Y041609*
X044944Y041373*
X044977Y041351*
X045016Y041343*
X046351*
X049196Y038499*
X049229Y038477*
X049268Y038469*
X050252*
X050291Y038477*
X050324Y038499*
X050470Y038645*
X050499Y038633*
X050567Y038624*
X050635Y038633*
X050657Y038642*
X050681Y038626*
X050699Y038611*
X050691Y038571*
Y037791*
X050281Y037381*
X050236Y037403*
X050240Y037429*
X050229Y037507*
X050199Y037580*
X050151Y037643*
X050088Y037691*
X050015Y037721*
X049987Y037725*
Y037429*
Y037133*
X050015Y037137*
X050059Y037155*
X050100Y037127*
Y036955*
X050081Y036948*
X050027Y036906*
X049985Y036852*
X049959Y036788*
X049950Y036720*
X049959Y036653*
X049967Y036634*
X049779Y036445*
X049755Y036409*
X049746Y036366*
Y036091*
X049582*
Y035927*
X048638*
X048595Y035919*
X048558Y035894*
X048084Y035420*
X047795Y035709*
Y036657*
X047844Y036666*
X047860Y036629*
X047901Y036574*
X047955Y036533*
X048019Y036507*
X048087Y036498*
X048154Y036507*
X048218Y036533*
X048272Y036574*
X048314Y036629*
X048326Y036658*
X049189*
X049228Y036666*
X049261Y036688*
X049537Y036963*
X049559Y036996*
X049567Y037035*
Y037547*
X049559Y037586*
X049537Y037619*
X047922Y039234*
X047889Y039256*
X047850Y039263*
X040531*
X040518Y039293*
X040477Y039347*
X040422Y039389*
X040359Y039415*
X040291Y039424*
X040223Y039415*
X040160Y039389*
X040106Y039347*
X040064Y039293*
X040038Y039229*
X040029Y039161*
X040038Y039094*
X040064Y039030*
X040106Y038976*
X040160Y038934*
X040223Y038908*
X040291Y038899*
X040359Y038908*
X040422Y038934*
X040477Y038976*
X040518Y039030*
X040531Y039059*
X047808*
X049363Y037505*
Y037078*
X049147Y036862*
X048326*
X048314Y036891*
X048272Y036945*
X048218Y036987*
X048154Y037013*
X048087Y037022*
X048019Y037013*
X047955Y036987*
X047901Y036945*
X047860Y036891*
X047844Y036853*
X047795Y036863*
Y036993*
X048041Y037239*
X048063Y037272*
X048070Y037311*
Y037544*
X048100Y037556*
X048154Y037598*
X048196Y037652*
X048222Y037716*
X048231Y037783*
X048222Y037851*
X048196Y037915*
X048154Y037969*
X048100Y038011*
X048036Y038037*
X047969Y038046*
X047901Y038037*
X047837Y038011*
X047783Y037969*
X047741Y037915*
X047715Y037851*
X047706Y037783*
X047715Y037716*
X047727Y037686*
X047611Y037570*
X047300*
Y037745*
X046747*
Y037192*
X047300*
Y037367*
X047654*
X047693Y037374*
X047726Y037396*
X047820Y037491*
X047867Y037472*
Y037353*
X047621Y037108*
X047599Y037074*
X047591Y037035*
Y035667*
X047599Y035628*
X047621Y035595*
X047979Y035236*
Y034589*
X047819*
X047746Y034575*
X047684Y034533*
X047642Y034471*
X047628Y034398*
X047642Y034324*
X047684Y034262*
X047746Y034221*
X047819Y034206*
X048363*
X048437Y034221*
X048499Y034262*
X048540Y034324*
X048555Y034398*
X048540Y034471*
X048499Y034533*
X048437Y034575*
X048363Y034589*
X048203*
Y035222*
X048684Y035703*
X049582*
Y035538*
X050135*
Y036091*
X049970*
Y036320*
X050126Y036475*
X050145Y036467*
X050213Y036458*
X050280Y036467*
X050344Y036493*
X050398Y036535*
X050440Y036589*
X050466Y036653*
X050475Y036720*
X050466Y036788*
X050458Y036807*
X050613Y036963*
X051235*
Y036798*
X051788*
Y037351*
X051235*
Y037187*
X050567*
X050524Y037178*
X050488Y037154*
X050371Y037037*
X050325Y037057*
Y037107*
X050882Y037665*
X050907Y037701*
X050915Y037744*
Y038524*
X051125Y038734*
X051235*
Y038570*
X051788*
Y039123*
X051235*
Y038959*
X051079*
X051036Y038950*
X050999Y038926*
X050860Y038787*
X050819Y038814*
X050820Y038818*
X050829Y038886*
X050820Y038954*
X050794Y039017*
X050752Y039071*
X050698Y039113*
X050635Y039139*
X050567Y039148*
X050499Y039139*
X050436Y039113*
X050381Y039071*
X050340Y039017*
X050324Y038979*
X050275Y038989*
Y039158*
X050304Y039171*
X050359Y039212*
X050400Y039267*
X050427Y039330*
X050435Y039398*
X050427Y039466*
X050400Y039529*
X050359Y039583*
X050304Y039625*
X050241Y039651*
X050173Y039660*
X050105Y039651*
X050042Y039625*
X049988Y039583*
X049946Y039529*
X049920Y039466*
X049911Y039398*
X049920Y039330*
X049946Y039267*
X049988Y039212*
X050042Y039171*
X050071Y039158*
Y038928*
X050013Y038870*
X049467*
X046584Y041753*
X046562Y041768*
X046577Y041815*
X046627*
X049156Y039286*
X049189Y039264*
X049228Y039256*
X049265*
X049277Y039227*
X049318Y039173*
X049373Y039131*
X049436Y039105*
X049504Y039096*
X049572Y039105*
X049635Y039131*
X049689Y039173*
X049731Y039227*
X049757Y039290*
X049766Y039358*
X049757Y039426*
X049731Y039489*
X049689Y039544*
X049635Y039585*
X049572Y039612*
X049504Y039621*
X049436Y039612*
X049373Y039585*
X049318Y039544*
X049285Y039499*
X049235Y039496*
X046741Y041989*
X046708Y042012*
X046669Y042019*
X045609*
X045315Y042314*
Y044159*
X045845Y044689*
X046197*
X046236Y044697*
X046269Y044719*
X046545Y044995*
X046567Y045028*
X046574Y045067*
Y045461*
X046567Y045500*
X046545Y045533*
X046151Y045926*
X046118Y045949*
X046079Y045956*
X045530*
X045253Y046234*
Y046643*
X044700*
Y046090*
X045109*
X045196Y046002*
X045177Y045956*
X043875*
Y045991*
Y046347*
X043343*
Y046485*
X042987*
Y046347*
X042834*
Y046639*
X043643Y047448*
X044013*
Y047962*
G37*
G36*
X051367Y045194D02*
X050967D01*
Y044839*
X051367*
Y045194*
G37*
G36*
X063913Y045642D02*
X063794Y045630D01*
X063678Y045595*
X063572Y045538*
X063479Y045462*
X063403Y045369*
X063346Y045263*
X063311Y045147*
X063299Y045028*
X063311Y044908*
X063346Y044793*
X063403Y044686*
X063479Y044593*
X063572Y044517*
X063678Y044460*
X063794Y044425*
X063913Y044413*
X064033Y044425*
X064148Y044460*
X064255Y044517*
X064348Y044593*
X064424Y044686*
X064481Y044793*
X064516Y044908*
X064528Y045028*
X064516Y045147*
X064481Y045263*
X064424Y045369*
X064348Y045462*
X064255Y045538*
X064148Y045595*
X064033Y045630*
X063913Y045642*
G37*
G36*
X031472Y046293D02*
X031328Y046274D01*
X031194Y046219*
X031079Y046130*
X030990Y046015*
X030935Y045880*
X030916Y045736*
X030935Y045592*
X030990Y045458*
X031079Y045342*
X031194Y045254*
X031328Y045198*
X031472Y045179*
X031617Y045198*
X031751Y045254*
X031866Y045342*
X031955Y045458*
X032010Y045592*
X032029Y045736*
X032010Y045880*
X031955Y046015*
X031866Y046130*
X031751Y046219*
X031617Y046274*
X031472Y046293*
G37*
G36*
X051868Y045194D02*
X051467D01*
Y044839*
X051868*
Y045194*
G37*
G36*
X045273Y048513D02*
X044365D01*
Y047605*
X045273*
Y048044*
X045277*
Y048074*
X045273*
Y048513*
G37*
G36*
X052367Y048954D02*
X051967D01*
Y048599*
X052367*
Y048954*
G37*
G36*
X061798Y049063D02*
Y048385D01*
X062477*
X062467Y048478*
X062426Y048615*
X062358Y048742*
X062267Y048853*
X062156Y048944*
X062029Y049012*
X061891Y049054*
X061798Y049063*
G37*
G36*
X048903Y049157D02*
X048824Y049146D01*
X048704Y049097*
X048601Y049017*
X048522Y048914*
X048472Y048794*
X048461Y048715*
X048903*
Y049157*
G37*
G36*
X052868Y048954D02*
X052467D01*
Y048599*
X052868*
Y048954*
G37*
G36*
X038651Y048629D02*
X038572Y048619D01*
X038452Y048569*
X038349Y048490*
X038270Y048387*
X038220Y048267*
X038209Y048188*
X038651*
Y048629*
G37*
G36*
X049444Y048615D02*
X049003D01*
Y048174*
X049082Y048184*
X049202Y048234*
X049305Y048313*
X049384Y048416*
X049434Y048536*
X049444Y048615*
G37*
G36*
X061698Y049063D02*
X061605Y049054D01*
X061467Y049012*
X061341Y048944*
X061229Y048853*
X061138Y048742*
X061070Y048615*
X061029Y048478*
X061020Y048385*
X061698*
Y049063*
G37*
G36*
X042310Y049633D02*
Y048945D01*
Y048256*
X042394Y048268*
X042519Y048319*
X042626Y048402*
X042708Y048509*
X042756Y048625*
X042806*
X042846Y048529*
X042922Y048430*
X043021Y048354*
X043136Y048307*
X043260Y048290*
X043383Y048307*
X043499Y048354*
X043597Y048430*
X043673Y048529*
X043721Y048644*
X043737Y048768*
Y049122*
X043721Y049246*
X043673Y049361*
X043597Y049460*
X043499Y049536*
X043383Y049583*
X043260Y049600*
X043136Y049583*
X043021Y049536*
X042922Y049460*
X042846Y049361*
X042806Y049265*
X042756*
X042708Y049381*
X042626Y049488*
X042519Y049570*
X042394Y049622*
X042310Y049633*
G37*
G36*
X054848Y049426D02*
X054581D01*
Y049160*
X054848*
Y049426*
G37*
G36*
X052868Y049409D02*
X052467D01*
Y049054*
X052868*
Y049409*
G37*
G36*
X042210Y049633D02*
X042126Y049622D01*
X042001Y049570*
X041894Y049488*
X041811Y049381*
X041763Y049265*
X041713*
X041673Y049361*
X041597Y049460*
X041499Y049536*
X041383Y049583*
X041260Y049600*
X041136Y049583*
X041021Y049536*
X040922Y049460*
X040846Y049361*
X040799Y049246*
X040782Y049122*
Y048768*
X040799Y048644*
X040846Y048529*
X040922Y048430*
X041021Y048354*
X041136Y048307*
X041260Y048290*
X041383Y048307*
X041499Y048354*
X041597Y048430*
X041673Y048529*
X041713Y048625*
X041763*
X041811Y048509*
X041894Y048402*
X042001Y048319*
X042126Y048268*
X042210Y048256*
Y048945*
Y049633*
G37*
G36*
X055214Y049426D02*
X054948D01*
Y049160*
X055214*
Y049426*
G37*
G36*
X031422Y049279D02*
X031356Y049273D01*
X031245Y049239*
X031142Y049184*
X031052Y049110*
X030978Y049020*
X030923Y048917*
X030889Y048805*
X030882Y048739*
X031422*
Y049279*
G37*
G36*
X049003Y049157D02*
Y048715D01*
X049444*
X049434Y048794*
X049384Y048914*
X049305Y049017*
X049202Y049097*
X049082Y049146*
X049003Y049157*
G37*
G36*
X052367Y049409D02*
X051967D01*
Y049054*
X052367*
Y049409*
G37*
G36*
X031522Y049279D02*
Y048739D01*
X032063*
X032056Y048805*
X032022Y048917*
X031967Y049020*
X031893Y049110*
X031803Y049184*
X031700Y049239*
X031589Y049273*
X031522Y049279*
G37*
G36*
X066787Y048988D02*
X066660Y048976D01*
X066537Y048939*
X066424Y048878*
X066325Y048797*
X066244Y048698*
X066183Y048585*
X066146Y048462*
X066134Y048335*
X066146Y048207*
X066183Y048084*
X066244Y047971*
X066325Y047872*
X066424Y047791*
X066537Y047731*
X066660Y047694*
X066787Y047681*
X066915Y047694*
X067038Y047731*
X067151Y047791*
X067250Y047872*
X067331Y047971*
X067391Y048084*
X067429Y048207*
X067441Y048335*
X067429Y048462*
X067391Y048585*
X067331Y048698*
X067250Y048797*
X067151Y048878*
X067038Y048939*
X066915Y048976*
X066787Y048988*
G37*
G36*
X038651Y048088D02*
X038209D01*
X038220Y048009*
X038270Y047889*
X038349Y047786*
X038452Y047707*
X038572Y047657*
X038651Y047646*
Y048088*
G37*
G36*
X035202Y048277D02*
X034758D01*
Y047833*
X035202*
Y048277*
G37*
G36*
X063913Y048949D02*
X063794Y048937D01*
X063678Y048902*
X063572Y048845*
X063479Y048769*
X063403Y048676*
X063346Y048570*
X063311Y048454*
X063299Y048335*
X063311Y048215*
X063346Y048100*
X063403Y047993*
X063479Y047900*
X063572Y047824*
X063678Y047767*
X063794Y047732*
X063913Y047720*
X064033Y047732*
X064148Y047767*
X064255Y047824*
X064348Y047900*
X064424Y047993*
X064481Y048100*
X064516Y048215*
X064528Y048335*
X064516Y048454*
X064481Y048570*
X064424Y048676*
X064348Y048769*
X064255Y048845*
X064148Y048902*
X064033Y048937*
X063913Y048949*
G37*
G36*
X062477Y048285D02*
X061798D01*
Y047606*
X061891Y047615*
X062029Y047657*
X062156Y047725*
X062267Y047816*
X062358Y047927*
X062426Y048054*
X062467Y048192*
X062477Y048285*
G37*
G36*
X061698D02*
X061020D01*
X061029Y048192*
X061070Y048054*
X061138Y047927*
X061229Y047816*
X061341Y047725*
X061467Y047657*
X061605Y047615*
X061698Y047606*
Y048285*
G37*
G36*
X027496Y048870D02*
X027376Y048858D01*
X027261Y048823*
X027155Y048767*
X027062Y048690*
X026985Y048597*
X026929Y048491*
X026894Y048376*
X026882Y048256*
X026894Y048136*
X026929Y048021*
X026985Y047915*
X027062Y047822*
X027155Y047745*
X027261Y047689*
X027376Y047654*
X027496Y047642*
X027616Y047654*
X027731Y047689*
X027837Y047745*
X027930Y047822*
X028007Y047915*
X028063Y048021*
X028098Y048136*
X028110Y048256*
X028098Y048376*
X028063Y048491*
X028007Y048597*
X027930Y048690*
X027837Y048767*
X027731Y048823*
X027616Y048858*
X027496Y048870*
G37*
G36*
X025331D02*
X025211Y048858D01*
X025096Y048823*
X024990Y048767*
X024896Y048690*
X024820Y048597*
X024763Y048491*
X024728Y048376*
X024717Y048256*
X024728Y048136*
X024763Y048021*
X024820Y047915*
X024896Y047822*
X024990Y047745*
X025096Y047689*
X025211Y047654*
X025331Y047642*
X025451Y047654*
X025566Y047689*
X025672Y047745*
X025765Y047822*
X025841Y047915*
X025898Y048021*
X025933Y048136*
X025945Y048256*
X025933Y048376*
X025898Y048491*
X025841Y048597*
X025765Y048690*
X025672Y048767*
X025566Y048823*
X025451Y048858*
X025331Y048870*
G37*
G36*
X045769Y048550D02*
X045690Y048540D01*
X045570Y048490*
X045467Y048411*
X045388Y048308*
X045338Y048188*
X045328Y048109*
X045769*
Y048550*
G37*
G36*
X032063Y048639D02*
X031522D01*
Y048099*
X031589Y048105*
X031700Y048139*
X031803Y048194*
X031893Y048268*
X031967Y048358*
X032022Y048461*
X032056Y048573*
X032063Y048639*
G37*
G36*
X048903Y048615D02*
X048461D01*
X048472Y048536*
X048522Y048416*
X048601Y048313*
X048704Y048234*
X048824Y048184*
X048903Y048174*
Y048615*
G37*
G36*
X045869Y048550D02*
Y048109D01*
X046310*
X046300Y048188*
X046250Y048308*
X046171Y048411*
X046068Y048490*
X045948Y048540*
X045869Y048550*
G37*
G36*
X059139Y048297D02*
X058872D01*
Y047991*
X059139*
Y048297*
G37*
G36*
X035746Y048277D02*
X035302D01*
Y047833*
X035746*
Y048277*
G37*
G36*
X031422Y048639D02*
X030882D01*
X030889Y048573*
X030923Y048461*
X030978Y048358*
X031052Y048268*
X031142Y048194*
X031245Y048139*
X031356Y048105*
X031422Y048099*
Y048639*
G37*
G36*
X059506Y048297D02*
X059239D01*
Y047991*
X059506*
Y048297*
G37*
G36*
X037054Y038710D02*
X036501D01*
Y037999*
X036565*
Y037971*
Y037964*
Y037925*
X035370*
X035331Y037917*
X035298Y037895*
X033881Y036478*
X033859Y036445*
X033851Y036406*
Y031248*
X033859Y031209*
X033881Y031176*
X034244Y030813*
X034251Y030776*
X034291Y030717*
X034351Y030677*
X034421Y030663*
X034981*
X035051Y030677*
X035111Y030717*
X035150Y030776*
X035164Y030846*
X035150Y030917*
X035111Y030976*
X035051Y031016*
X034981Y031030*
X034421*
X034351Y031016*
X034338Y031007*
X034055Y031290*
Y036363*
X035412Y037721*
X036525*
Y037597*
X037079*
Y037736*
X037039*
Y037964*
X037054Y037999*
Y038007*
Y038710*
G37*
G36*
X045450Y038493D02*
X044897D01*
Y037940*
X045450*
Y038115*
X045800*
X045812Y038085*
X045854Y038031*
X045908Y037989*
X045971Y037963*
X046039Y037954*
X046107Y037963*
X046170Y037989*
X046225Y038031*
X046266Y038085*
X046293Y038149*
X046302Y038217*
X046293Y038284*
X046266Y038348*
X046225Y038402*
X046170Y038444*
X046107Y038470*
X046039Y038479*
X045971Y038470*
X045908Y038444*
X045854Y038402*
X045812Y038348*
X045800Y038318*
X045450*
Y038493*
G37*
G36*
X044415Y038533D02*
X044148D01*
Y038267*
X044415*
Y038533*
G37*
G36*
X043521Y038532D02*
X042968D01*
Y038124*
X042668Y037824*
X042180*
Y037649*
X041583*
X041579Y037654*
X041525Y037696*
X041516Y037699*
Y037749*
X041525Y037753*
X041579Y037795*
X041621Y037849*
X041647Y037912*
X041656Y037980*
X041647Y038048*
X041635Y038077*
X041712Y038154*
X042180*
Y037979*
X042733*
Y038532*
X042180*
Y038358*
X041669*
X041630Y038350*
X041597Y038328*
X041491Y038222*
X041462Y038234*
X041394Y038243*
X041326Y038234*
X041263Y038207*
X041208Y038166*
X041167Y038111*
X041140Y038048*
X041131Y037980*
X041140Y037912*
X041167Y037849*
X041208Y037795*
X041263Y037753*
X041272Y037749*
Y037699*
X041263Y037696*
X041208Y037654*
X041167Y037600*
X041140Y037536*
X041131Y037469*
X041140Y037401*
X041167Y037337*
X041208Y037283*
X041263Y037241*
X041326Y037215*
X041394Y037206*
X041462Y037215*
X041525Y037241*
X041579Y037283*
X041621Y037337*
X041647Y037401*
X041653Y037445*
X042180*
Y037271*
X042733*
Y037601*
X042921Y037789*
X042968Y037770*
Y037271*
X043521*
X043558Y037286*
X044914Y035930*
Y035795*
X044837Y035763*
X044762Y035706*
X044705Y035632*
X044670Y035545*
X044657Y035453*
X044670Y035360*
X044676Y035345*
X044650Y035327*
X044606Y035351*
Y035815*
X044598Y035854*
X044576Y035887*
X044222Y036241*
X044189Y036263*
X044150Y036271*
X042390*
X042374Y036319*
X042381Y036324*
X042426Y036382*
X042454Y036451*
X042457Y036474*
X041905*
X041908Y036451*
X041937Y036382*
X041981Y036324*
X041988Y036319*
X041972Y036271*
X041790*
X041596Y036466*
X041608Y036495*
X041617Y036563*
X041608Y036631*
X041581Y036694*
X041540Y036748*
X041485Y036790*
X041422Y036816*
X041354Y036825*
X041286Y036816*
X041223Y036790*
X041169Y036748*
X041127Y036694*
X041101Y036631*
X041092Y036563*
X041101Y036495*
X041127Y036432*
X041169Y036378*
X041223Y036336*
X041286Y036310*
X041354Y036301*
X041422Y036310*
X041451Y036322*
X041653Y036121*
X041633Y036074*
X041512*
X041473Y036067*
X041440Y036045*
X041172Y035777*
X041144Y035798*
X041048Y035838*
X040995Y035845*
Y035503*
X041337*
X041330Y035556*
X041303Y035620*
X041554Y035870*
X043454*
X043671Y035653*
X043670Y035652*
X043631Y035556*
X043624Y035503*
X044016*
Y035403*
X043624*
X043631Y035350*
X043670Y035253*
X043734Y035171*
X043816Y035107*
X043835Y035100*
X043825Y035051*
X043323*
X043284Y035043*
X043251Y035021*
X042785Y034555*
X042287*
X042255Y034632*
X042198Y034706*
X042124Y034763*
X042038Y034799*
X041945Y034811*
X041852Y034799*
X041766Y034763*
X041691Y034706*
X041635Y034632*
X041599Y034546*
X041587Y034453*
X041599Y034360*
X041631Y034283*
X041454Y034106*
X041154*
X041138Y034153*
X041198Y034199*
X041255Y034274*
X041291Y034360*
X041303Y034453*
X041291Y034546*
X041255Y034632*
X041198Y034706*
X041124Y034763*
X041038Y034799*
X040945Y034811*
X040852Y034799*
X040766Y034763*
X040691Y034706*
X040635Y034632*
X040599Y034546*
X040587Y034453*
X040599Y034360*
X040635Y034274*
X040691Y034199*
X040752Y034153*
X040736Y034106*
X040291*
X040252Y034098*
X040219Y034076*
X039274Y033131*
X039252Y033098*
X039244Y033059*
Y031172*
X039021Y030948*
X037329*
X037311Y030976*
X037251Y031016*
X037181Y031030*
X036621*
X036551Y031016*
X036491Y030976*
X036451Y030917*
X036437Y030846*
X036451Y030776*
X036491Y030717*
X036551Y030677*
X036621Y030663*
X037181*
X037251Y030677*
X037311Y030717*
X037329Y030745*
X039063*
X039102Y030752*
X039135Y030774*
X039419Y031058*
X039441Y031091*
X039448Y031130*
Y033017*
X040334Y033902*
X041496*
X041535Y033910*
X041568Y033932*
X041775Y034139*
X041852Y034107*
X041945Y034094*
X042038Y034107*
X042124Y034142*
X042198Y034199*
X042255Y034274*
X042287Y034351*
X042827*
X042866Y034359*
X042899Y034381*
X043365Y034847*
X043911*
X043920Y034798*
X043837Y034763*
X043762Y034706*
X043705Y034632*
X043670Y034546*
X043657Y034453*
X043670Y034360*
X043705Y034274*
X043762Y034199*
X043837Y034142*
X043901Y034116*
X043892Y034067*
X043047*
X043008Y034059*
X042975Y034037*
X042493Y033555*
X042300*
Y033808*
X041590*
Y033097*
X042300*
Y033351*
X042535*
X042574Y033359*
X042608Y033381*
X043089Y033863*
X044462*
X044660Y033664*
Y033242*
X044107Y032689*
X041118*
X041079Y032681*
X041046Y032659*
X040455Y032068*
X040433Y032035*
X040426Y031996*
Y031251*
X039123Y029948*
X037329*
X037311Y029976*
X037251Y030016*
X037181Y030030*
X036621*
X036551Y030016*
X036491Y029976*
X036451Y029917*
X036437Y029846*
X036451Y029776*
X036491Y029717*
X036551Y029677*
X036621Y029663*
X037181*
X037251Y029677*
X037311Y029717*
X037329Y029745*
X039165*
X039204Y029752*
X039237Y029774*
X040600Y031137*
X040622Y031170*
X040630Y031209*
Y031954*
X041160Y032485*
X041289*
X041304Y032437*
X041282Y032422*
X040849Y031989*
X040827Y031956*
X040819Y031917*
Y031172*
X039096Y029448*
X037329*
X037311Y029476*
X037251Y029516*
X037181Y029530*
X036621*
X036551Y029516*
X036491Y029476*
X036451Y029417*
X036437Y029346*
X036451Y029276*
X036491Y029217*
X036551Y029177*
X036621Y029163*
X037181*
X037251Y029177*
X037311Y029217*
X037329Y029244*
X039102*
X039121Y029198*
X038172Y028249*
X038150Y028216*
X038142Y028177*
Y026802*
X038113Y026790*
X038059Y026748*
X038017Y026694*
X037991Y026631*
X037982Y026563*
X037991Y026495*
X038017Y026432*
X038059Y026378*
X038113Y026336*
X038176Y026310*
X038244Y026301*
X038312Y026310*
X038375Y026336*
X038430Y026378*
X038471Y026432*
X038497Y026495*
X038506Y026563*
X038497Y026631*
X038471Y026694*
X038430Y026748*
X038375Y026790*
X038346Y026802*
Y028135*
X042184Y031973*
X042848*
X043487Y031333*
X043520Y031311*
X043559Y031304*
X043792*
X043804Y031274*
X043846Y031220*
X043900Y031178*
X043964Y031152*
X044032Y031143*
X044099Y031152*
X044163Y031178*
X044217Y031220*
X044259Y031274*
X044285Y031338*
X044294Y031406*
X044285Y031473*
X044259Y031537*
X044217Y031591*
X044163Y031633*
X044099Y031659*
X044032Y031668*
X043964Y031659*
X043900Y031633*
X043846Y031591*
X043804Y031537*
X043792Y031507*
X043601*
X042962Y032147*
X042929Y032169*
X042890Y032177*
X042142*
X042103Y032169*
X042070Y032147*
X041069Y031147*
X041023Y031166*
Y031875*
X041397Y032248*
X045055*
X045094Y032256*
X045127Y032278*
X045373Y032524*
X046115*
X046127Y032495*
X046169Y032441*
X046223Y032399*
X046286Y032373*
X046354Y032364*
X046422Y032373*
X046485Y032399*
X046540Y032441*
X046581Y032495*
X046608Y032558*
X046617Y032626*
X046608Y032694*
X046581Y032757*
X046540Y032811*
X046485Y032853*
X046422Y032879*
X046354Y032888*
X046286Y032879*
X046223Y032853*
X046169Y032811*
X046127Y032757*
X046115Y032728*
X045331*
X045292Y032720*
X045259Y032698*
X045013Y032452*
X044215*
X044200Y032500*
X044222Y032515*
X044805Y033097*
X045371*
Y033808*
X044805*
X044576Y034037*
X044543Y034059*
X044504Y034067*
X044140*
X044130Y034116*
X044195Y034142*
X044269Y034199*
X044326Y034274*
X044362Y034360*
X044374Y034453*
X044362Y034546*
X044326Y034632*
X044269Y034706*
X044195Y034763*
X044111Y034798*
X044121Y034847*
X044477*
X044702Y034623*
X044670Y034546*
X044657Y034453*
X044670Y034360*
X044705Y034274*
X044762Y034199*
X044837Y034142*
X044923Y034107*
X045016Y034094*
X045108Y034107*
X045195Y034142*
X045269Y034199*
X045326Y034274*
X045362Y034360*
X045374Y034453*
X045362Y034546*
X045326Y034632*
X045269Y034706*
X045195Y034763*
X045111Y034798*
X045121Y034847*
X045328*
X045544Y034631*
Y033492*
X045551Y033453*
X045574Y033420*
X045967Y033026*
X046000Y033004*
X046039Y032996*
X046785*
X047975Y031806*
X048008Y031784*
X048047Y031776*
X048874*
X048913Y031784*
X048946Y031806*
X049300Y032160*
X049323Y032193*
X049330Y032232*
Y034358*
X049323Y034397*
X049300Y034430*
X048930Y034800*
X048944Y034818*
X048970Y034881*
X048979Y034949*
X048970Y035017*
X048944Y035080*
X048902Y035134*
X048848Y035176*
X048784Y035202*
X048717Y035211*
X048649Y035202*
X048585Y035176*
X048531Y035134*
X048489Y035080*
X048463Y035017*
X048454Y034949*
X048463Y034881*
X048489Y034818*
X048531Y034763*
X048585Y034722*
X048649Y034696*
X048717Y034687*
X048751Y034691*
X049126Y034316*
Y032275*
X048832Y031980*
X048089*
X046899Y033171*
X046866Y033193*
X046827Y033200*
X046082*
X045748Y033534*
Y034673*
X045740Y034712*
X045718Y034745*
X045442Y035021*
X045409Y035043*
X045370Y035051*
X045067*
X045063Y035101*
X045108Y035107*
X045195Y035142*
X045269Y035199*
X045326Y035274*
X045362Y035360*
X045374Y035453*
X045362Y035545*
X045326Y035632*
X045269Y035706*
X045195Y035763*
X045118Y035795*
Y035972*
X045110Y036011*
X045088Y036045*
X043521Y037612*
Y037824*
X043021*
X043002Y037870*
X043112Y037979*
X043521*
Y038532*
G37*
G36*
X061748Y039028D02*
X061628Y039016D01*
X061513Y038981*
X061407Y038924*
X061314Y038848*
X061237Y038755*
X061181Y038648*
X061146Y038533*
X061134Y038413*
X061146Y038294*
X061181Y038178*
X061237Y038072*
X061314Y037979*
X061407Y037903*
X061513Y037846*
X061628Y037811*
X061748Y037799*
X061868Y037811*
X061983Y037846*
X062089Y037903*
X062182Y037979*
X062259Y038072*
X062315Y038178*
X062350Y038294*
X062362Y038413*
X062350Y038533*
X062315Y038648*
X062259Y038755*
X062182Y038848*
X062089Y038924*
X061983Y038981*
X061868Y039016*
X061748Y039028*
G37*
G36*
X039071Y044227D02*
X039003Y044218D01*
X038940Y044192*
X038885Y044150*
X038844Y044096*
X038818Y044032*
X038809Y043965*
X038818Y043897*
X038844Y043833*
X038885Y043779*
X038940Y043737*
X038969Y043725*
Y041445*
X038977Y041406*
X038999Y041373*
X040731Y039641*
X040764Y039618*
X040803Y039611*
X047651*
X049274Y037987*
X049307Y037965*
X049343Y037958*
X049356Y037928*
X049397Y037874*
X049452Y037832*
X049515Y037806*
X049583Y037797*
X049651Y037806*
X049714Y037832*
X049768Y037874*
X049810Y037928*
X049836Y037991*
X049845Y038059*
X049836Y038127*
X049810Y038190*
X049768Y038244*
X049714Y038286*
X049651Y038312*
X049583Y038321*
X049515Y038312*
X049452Y038286*
X049397Y038244*
X049380Y038222*
X049330Y038219*
X047765Y039785*
X047732Y039807*
X047693Y039815*
X040845*
X039173Y041487*
Y043725*
X039202Y043737*
X039256Y043779*
X039298Y043833*
X039324Y043897*
X039333Y043965*
X039324Y044032*
X039298Y044096*
X039256Y044150*
X039202Y044192*
X039139Y044218*
X039071Y044227*
G37*
G36*
X044781Y038167D02*
X044515D01*
Y037900*
X044781*
Y038167*
G37*
G36*
X044415D02*
X044148D01*
Y037900*
X044415*
Y038167*
G37*
G36*
X044781Y038533D02*
X044515D01*
Y038267*
X044781*
Y038533*
G37*
G36*
X061748Y040681D02*
X061628Y040669D01*
X061513Y040634*
X061407Y040578*
X061314Y040501*
X061237Y040408*
X061181Y040302*
X061146Y040187*
X061134Y040067*
X061146Y039947*
X061181Y039832*
X061237Y039726*
X061314Y039633*
X061407Y039556*
X061513Y039500*
X061628Y039465*
X061748Y039453*
X061868Y039465*
X061983Y039500*
X062089Y039556*
X062182Y039633*
X062259Y039726*
X062315Y039832*
X062350Y039947*
X062362Y040067*
X062350Y040187*
X062315Y040302*
X062259Y040408*
X062182Y040501*
X062089Y040578*
X061983Y040634*
X061868Y040669*
X061748Y040681*
G37*
G36*
X027496Y040602D02*
X027376Y040591D01*
X027261Y040556*
X027155Y040499*
X027062Y040422*
X026985Y040329*
X026929Y040223*
X026894Y040108*
X026882Y039988*
X026894Y039868*
X026929Y039753*
X026985Y039647*
X027062Y039554*
X027155Y039478*
X027261Y039421*
X027376Y039386*
X027496Y039374*
X027616Y039386*
X027731Y039421*
X027837Y039478*
X027930Y039554*
X028007Y039647*
X028063Y039753*
X028098Y039868*
X028110Y039988*
X028098Y040108*
X028063Y040223*
X028007Y040329*
X027930Y040422*
X027837Y040499*
X027731Y040556*
X027616Y040591*
X027496Y040602*
G37*
G36*
X051462Y039872D02*
X051195D01*
Y039605*
X051462*
Y039872*
G37*
G36*
X063913Y040681D02*
X063794Y040669D01*
X063678Y040634*
X063572Y040578*
X063479Y040501*
X063403Y040408*
X063346Y040302*
X063311Y040187*
X063299Y040067*
X063311Y039947*
X063346Y039832*
X063403Y039726*
X063479Y039633*
X063572Y039556*
X063678Y039500*
X063794Y039465*
X063913Y039453*
X064033Y039465*
X064148Y039500*
X064255Y039556*
X064348Y039633*
X064424Y039726*
X064481Y039832*
X064516Y039947*
X064528Y040067*
X064516Y040187*
X064481Y040302*
X064424Y040408*
X064348Y040501*
X064255Y040578*
X064148Y040634*
X064033Y040669*
X063913Y040681*
G37*
G36*
X051462Y039505D02*
X051195D01*
Y039239*
X051462*
Y039505*
G37*
G36*
X059445Y040072D02*
X059091D01*
X058967Y040056*
X058852Y040008*
X058753Y039932*
X058677Y039833*
X058629Y039718*
X058613Y039594*
X058629Y039471*
X058677Y039356*
X058753Y039257*
X058852Y039181*
X058967Y039133*
X059091Y039117*
X059445*
X059568Y039133*
X059684Y039181*
X059783Y039257*
X059858Y039356*
X059906Y039471*
X059922Y039594*
X059906Y039718*
X059858Y039833*
X059783Y039932*
X059684Y040008*
X059568Y040056*
X059445Y040072*
G37*
G36*
X025331Y040602D02*
X025211Y040591D01*
X025096Y040556*
X024990Y040499*
X024896Y040422*
X024820Y040329*
X024763Y040223*
X024728Y040108*
X024717Y039988*
X024728Y039868*
X024763Y039753*
X024820Y039647*
X024896Y039554*
X024990Y039478*
X025096Y039421*
X025211Y039386*
X025331Y039374*
X025451Y039386*
X025566Y039421*
X025672Y039478*
X025765Y039554*
X025841Y039647*
X025898Y039753*
X025933Y039868*
X025945Y039988*
X025933Y040108*
X025898Y040223*
X025841Y040329*
X025765Y040422*
X025672Y040499*
X025566Y040556*
X025451Y040591*
X025331Y040602*
G37*
G36*
X051828Y039505D02*
X051562D01*
Y039239*
X051828*
Y039505*
G37*
G36*
X027496Y038949D02*
X027376Y038937D01*
X027261Y038902*
X027155Y038845*
X027062Y038769*
X026985Y038676*
X026929Y038570*
X026894Y038454*
X026882Y038335*
X026894Y038215*
X026929Y038100*
X026985Y037993*
X027062Y037900*
X027155Y037824*
X027261Y037767*
X027376Y037732*
X027496Y037721*
X027616Y037732*
X027731Y037767*
X027837Y037824*
X027930Y037900*
X028007Y037993*
X028063Y038100*
X028098Y038215*
X028110Y038335*
X028098Y038454*
X028063Y038570*
X028007Y038676*
X027930Y038769*
X027837Y038845*
X027731Y038902*
X027616Y038937*
X027496Y038949*
G37*
G36*
X042131Y036799D02*
X042108Y036796D01*
X042040Y036768*
X041981Y036723*
X041937Y036665*
X041908Y036597*
X041905Y036574*
X042131*
Y036799*
G37*
G36*
X044741Y037784D02*
X044188D01*
Y037231*
X044597*
X045101Y036727*
X045134Y036705*
X045173Y036697*
X045210*
X045222Y036668*
X045263Y036614*
X045318Y036572*
X045381Y036546*
X045449Y036537*
X045517Y036546*
X045580Y036572*
X045634Y036614*
X045676Y036668*
X045702Y036731*
X045711Y036799*
X045702Y036867*
X045676Y036930*
X045634Y036985*
X045580Y037026*
X045517Y037053*
X045449Y037061*
X045381Y037053*
X045318Y037026*
X045263Y036985*
X045229Y036940*
X045180Y036937*
X044971Y037145*
X044991Y037191*
X045123*
Y037458*
X044857*
Y037325*
X044811Y037306*
X044741Y037376*
Y037784*
G37*
G36*
X046974Y037076D02*
X046707D01*
Y036810*
X046974*
Y037076*
G37*
G36*
X042231Y036799D02*
Y036574D01*
X042457*
X042454Y036597*
X042426Y036665*
X042381Y036723*
X042322Y036768*
X042254Y036796*
X042231Y036799*
G37*
G36*
X051828Y036683D02*
X051562D01*
Y036416*
X051828*
Y036683*
G37*
G36*
X051462D02*
X051195D01*
Y036416*
X051462*
Y036683*
G37*
G36*
X047340Y036710D02*
X047074D01*
Y036443*
X047340*
Y036710*
G37*
G36*
X046974D02*
X046707D01*
Y036443*
X046974*
Y036710*
G37*
G36*
X047340Y037076D02*
X047074D01*
Y036810*
X047340*
Y037076*
G37*
G36*
X045123Y037824D02*
X044857D01*
Y037558*
X045123*
Y037824*
G37*
G36*
X049887Y037725D02*
X049859Y037721D01*
X049786Y037691*
X049723Y037643*
X049675Y037580*
X049645Y037507*
X049641Y037479*
X049887*
Y037725*
G37*
G36*
X025331Y038949D02*
X025211Y038937D01*
X025096Y038902*
X024990Y038845*
X024896Y038769*
X024820Y038676*
X024763Y038570*
X024728Y038454*
X024717Y038335*
X024728Y038215*
X024763Y038100*
X024820Y037993*
X024896Y037900*
X024990Y037824*
X025096Y037767*
X025211Y037732*
X025331Y037721*
X025451Y037732*
X025566Y037767*
X025672Y037824*
X025765Y037900*
X025841Y037993*
X025898Y038100*
X025933Y038215*
X025945Y038335*
X025933Y038454*
X025898Y038570*
X025841Y038676*
X025765Y038769*
X025672Y038845*
X025566Y038902*
X025451Y038937*
X025331Y038949*
G37*
G36*
X045490Y037824D02*
X045223D01*
Y037558*
X045490*
Y037824*
G37*
G36*
X049887Y037379D02*
X049641D01*
X049645Y037351*
X049675Y037278*
X049723Y037215*
X049786Y037167*
X049859Y037137*
X049887Y037133*
Y037379*
G37*
G36*
X037079Y037497D02*
X036525D01*
Y037374*
X035921*
X035882Y037366*
X035849Y037344*
X035495Y036989*
X035473Y036956*
X035465Y036917*
Y030267*
X035164Y029966*
X035114Y029971*
X035111Y029976*
X035051Y030016*
X034981Y030030*
X034421*
X034351Y030016*
X034291Y029976*
X034251Y029917*
X034237Y029846*
X034251Y029776*
X034291Y029717*
X034351Y029677*
X034421Y029663*
X034981*
X035051Y029677*
X035111Y029717*
X035129Y029745*
X035189*
X035228Y029752*
X035261Y029774*
X035639Y030152*
X035661Y030185*
X035669Y030224*
Y036875*
X035963Y037170*
X036565*
Y037123*
Y036847*
X037039*
Y037123*
Y037359*
X037079*
Y037497*
G37*
G36*
X045490Y037458D02*
X045223D01*
Y037191*
X045490*
Y037458*
G37*
G36*
X047693Y038998D02*
D01*
X041236*
X041193Y038989*
X041157Y038965*
X040724Y038532*
X040700Y038496*
X040691Y038453*
Y036846*
X039700Y035855*
X039676Y035819*
X039667Y035776*
Y035223*
X039648Y035215*
X039594Y035174*
X039552Y035119*
X039526Y035056*
X039517Y034988*
X039526Y034920*
X039552Y034857*
X039594Y034803*
X039648Y034761*
X039712Y034735*
X039780Y034726*
X039847Y034735*
X039911Y034761*
X039965Y034803*
X040007Y034857*
X040033Y034920*
X040042Y034988*
X040033Y035056*
X040007Y035119*
X039965Y035174*
X039911Y035215*
X039892Y035223*
Y035729*
X040882Y036720*
X040907Y036756*
X040915Y036799*
Y038406*
X041283Y038774*
X047646*
X048604Y037816*
Y037664*
X048585Y037656*
X048531Y037615*
X048489Y037560*
X048463Y037497*
X048454Y037429*
X048463Y037361*
X048489Y037298*
X048531Y037244*
X048585Y037202*
X048649Y037176*
X048717Y037167*
X048784Y037176*
X048848Y037202*
X048902Y037244*
X048944Y037298*
X048970Y037361*
X048979Y037429*
X048970Y037497*
X048944Y037560*
X048902Y037615*
X048848Y037656*
X048829Y037664*
Y037862*
X048820Y037905*
X048796Y037942*
X047772Y038965*
X047736Y038989*
X047693Y038998*
G37*
G36*
X063913Y042258D02*
X063774Y042239D01*
X063645Y042186*
X063534Y042100*
X063448Y041989*
X063395Y041859*
X063376Y041720*
X063395Y041581*
X063448Y041452*
X063534Y041341*
X063645Y041255*
X063774Y041202*
X063913Y041183*
X064052Y041202*
X064182Y041255*
X064293Y041341*
X064378Y041452*
X064432Y041581*
X064450Y041720*
X064432Y041859*
X064378Y041989*
X064293Y042100*
X064182Y042186*
X064052Y042239*
X063913Y042258*
G37*
G36*
X048323Y043282D02*
X048255Y043273D01*
X048192Y043247*
X048137Y043205*
X048096Y043151*
X048070Y043088*
X048061Y043020*
X048070Y042952*
X048096Y042889*
X048137Y042834*
X048192Y042793*
X048255Y042766*
X048323Y042757*
X048391Y042766*
X048420Y042778*
X048536Y042662*
Y041448*
X048507Y041436*
X048452Y041394*
X048411Y041340*
X048384Y041277*
X048382Y041261*
X048333Y041254*
X048314Y041300*
X048272Y041355*
X048218Y041396*
X048189Y041408*
Y042193*
X048181Y042232*
X048159Y042265*
X047934Y042490*
X047946Y042519*
X047955Y042587*
X047946Y042654*
X047920Y042718*
X047878Y042772*
X047824Y042814*
X047761Y042840*
X047693Y042849*
X047625Y042840*
X047562Y042814*
X047507Y042772*
X047466Y042718*
X047440Y042654*
X047431Y042587*
X047440Y042519*
X047466Y042455*
X047507Y042401*
X047562Y042359*
X047625Y042333*
X047693Y042324*
X047761Y042333*
X047790Y042345*
X047985Y042151*
Y041408*
X047955Y041396*
X047901Y041355*
X047860Y041300*
X047833Y041237*
X047824Y041169*
X047833Y041101*
X047860Y041038*
X047901Y040984*
X047955Y040942*
X048019Y040916*
X048087Y040907*
X048154Y040916*
X048218Y040942*
X048272Y040984*
X048314Y041038*
X048340Y041101*
X048342Y041117*
X048392Y041124*
X048411Y041078*
X048452Y041023*
X048507Y040982*
X048570Y040955*
X048638Y040946*
X048706Y040955*
X048769Y040982*
X048823Y041023*
X048865Y041078*
X048891Y041141*
X048900Y041209*
X048891Y041277*
X048865Y041340*
X048823Y041394*
X048769Y041436*
X048740Y041448*
Y042705*
X048732Y042744*
X048710Y042777*
X048564Y042923*
X048576Y042952*
X048585Y043020*
X048576Y043088*
X048550Y043151*
X048508Y043205*
X048454Y043247*
X048391Y043273*
X048323Y043282*
G37*
G36*
X059445Y042828D02*
X059091D01*
X058967Y042812*
X058852Y042764*
X058753Y042688*
X058677Y042589*
X058629Y042474*
X058613Y042350*
X058629Y042227*
X058677Y042112*
X058753Y042013*
X058852Y041937*
X058967Y041889*
X059091Y041873*
X059445*
X059568Y041889*
X059684Y041937*
X059783Y042013*
X059858Y042112*
X059906Y042227*
X059922Y042350*
X059906Y042474*
X059858Y042589*
X059783Y042688*
X059684Y042764*
X059568Y042812*
X059445Y042828*
G37*
G36*
X061748Y042258D02*
X061609Y042239D01*
X061480Y042186*
X061368Y042100*
X061283Y041989*
X061229Y041859*
X061211Y041720*
X061229Y041581*
X061283Y041452*
X061368Y041341*
X061480Y041255*
X061609Y041202*
X061748Y041183*
X061887Y041202*
X062017Y041255*
X062128Y041341*
X062213Y041452*
X062267Y041581*
X062285Y041720*
X062267Y041859*
X062213Y041989*
X062128Y042100*
X062017Y042186*
X061887Y042239*
X061748Y042258*
G37*
G36*
X030923Y041289D02*
X030656D01*
Y041022*
X030923*
Y041289*
G37*
G36*
X025331Y042256D02*
X025211Y042244D01*
X025096Y042209*
X024990Y042152*
X024896Y042076*
X024820Y041983*
X024763Y041877*
X024728Y041762*
X024717Y041642*
X024728Y041522*
X024763Y041407*
X024820Y041301*
X024896Y041207*
X024990Y041131*
X025096Y041074*
X025211Y041039*
X025331Y041028*
X025451Y041039*
X025566Y041074*
X025672Y041131*
X025765Y041207*
X025841Y041301*
X025898Y041407*
X025933Y041522*
X025945Y041642*
X025933Y041762*
X025898Y041877*
X025841Y041983*
X025765Y042076*
X025672Y042152*
X025566Y042209*
X025451Y042244*
X025331Y042256*
G37*
G36*
X027496D02*
X027376Y042244D01*
X027261Y042209*
X027155Y042152*
X027062Y042076*
X026985Y041983*
X026929Y041877*
X026894Y041762*
X026882Y041642*
X026894Y041522*
X026929Y041407*
X026985Y041301*
X027062Y041207*
X027155Y041131*
X027261Y041074*
X027376Y041039*
X027496Y041028*
X027616Y041039*
X027731Y041074*
X027837Y041131*
X027930Y041207*
X028007Y041301*
X028063Y041407*
X028098Y041522*
X028110Y041642*
X028098Y041762*
X028063Y041877*
X028007Y041983*
X027930Y042076*
X027837Y042152*
X027731Y042209*
X027616Y042244*
X027496Y042256*
G37*
G36*
X046173Y043000D02*
X046066Y042986D01*
X045966Y042945*
X045881Y042879*
X045815Y042793*
X045774Y042694*
X045760Y042587*
X045774Y042480*
X045815Y042380*
X045881Y042294*
X045966Y042228*
X046066Y042187*
X046173Y042173*
X046280Y042187*
X046380Y042228*
X046466Y042294*
X046531Y042380*
X046573Y042480*
X046587Y042587*
X046573Y042694*
X046531Y042793*
X046466Y042879*
X046380Y042945*
X046280Y042986*
X046173Y043000*
G37*
G36*
X063913Y043988D02*
X063794Y043976D01*
X063678Y043941*
X063572Y043885*
X063479Y043808*
X063403Y043715*
X063346Y043609*
X063311Y043494*
X063299Y043374*
X063311Y043254*
X063346Y043139*
X063403Y043033*
X063479Y042940*
X063572Y042863*
X063678Y042807*
X063794Y042772*
X063913Y042760*
X064033Y042772*
X064148Y042807*
X064255Y042863*
X064348Y042940*
X064424Y043033*
X064481Y043139*
X064516Y043254*
X064528Y043374*
X064516Y043494*
X064481Y043609*
X064424Y043715*
X064348Y043808*
X064255Y043885*
X064148Y043941*
X064033Y043976*
X063913Y043988*
G37*
G36*
X043273Y043363D02*
X043006D01*
Y043097*
X043273*
Y043363*
G37*
G36*
X043639D02*
X043373D01*
Y043097*
X043639*
Y043363*
G37*
G36*
X061748Y043988D02*
X061628Y043976D01*
X061513Y043941*
X061407Y043885*
X061314Y043808*
X061237Y043715*
X061181Y043609*
X061146Y043494*
X061134Y043374*
X061146Y043254*
X061181Y043139*
X061237Y043033*
X061314Y042940*
X061407Y042863*
X061513Y042807*
X061628Y042772*
X061748Y042760*
X061868Y042772*
X061983Y042807*
X062089Y042863*
X062182Y042940*
X062259Y043033*
X062315Y043139*
X062350Y043254*
X062362Y043374*
X062350Y043494*
X062315Y043609*
X062259Y043715*
X062182Y043808*
X062089Y043885*
X061983Y043941*
X061868Y043976*
X061748Y043988*
G37*
G36*
X050173Y043000D02*
X050066Y042986D01*
X049966Y042945*
X049881Y042879*
X049815Y042793*
X049774Y042694*
X049760Y042587*
X049774Y042480*
X049815Y042380*
X049881Y042294*
X049966Y042228*
X050066Y042187*
X050173Y042173*
X050280Y042187*
X050380Y042228*
X050466Y042294*
X050531Y042380*
X050573Y042480*
X050587Y042587*
X050573Y042694*
X050531Y042793*
X050466Y042879*
X050380Y042945*
X050280Y042986*
X050173Y043000*
G37*
G36*
X025331Y043909D02*
X025211Y043898D01*
X025096Y043863*
X024990Y043806*
X024896Y043730*
X024820Y043636*
X024763Y043530*
X024728Y043415*
X024717Y043295*
X024728Y043175*
X024763Y043060*
X024820Y042954*
X024896Y042861*
X024990Y042785*
X025096Y042728*
X025211Y042693*
X025331Y042681*
X025451Y042693*
X025566Y042728*
X025672Y042785*
X025765Y042861*
X025841Y042954*
X025898Y043060*
X025933Y043175*
X025945Y043295*
X025933Y043415*
X025898Y043530*
X025841Y043636*
X025765Y043730*
X025672Y043806*
X025566Y043863*
X025451Y043898*
X025331Y043909*
G37*
G36*
X027496D02*
X027376Y043898D01*
X027261Y043863*
X027155Y043806*
X027062Y043730*
X026985Y043636*
X026929Y043530*
X026894Y043415*
X026882Y043295*
X026894Y043175*
X026929Y043060*
X026985Y042954*
X027062Y042861*
X027155Y042785*
X027261Y042728*
X027376Y042693*
X027496Y042681*
X027616Y042693*
X027731Y042728*
X027837Y042785*
X027930Y042861*
X028007Y042954*
X028063Y043060*
X028098Y043175*
X028110Y043295*
X028098Y043415*
X028063Y043530*
X028007Y043636*
X027930Y043730*
X027837Y043806*
X027731Y043863*
X027616Y043898*
X027496Y043909*
G37*
G36*
X030556Y040922D02*
X030290D01*
Y040656*
X030556*
Y040922*
G37*
G36*
X030923D02*
X030656D01*
Y040656*
X030923*
Y040922*
G37*
G36*
X038273Y040632D02*
X038205Y040623D01*
X038096Y040578*
X038002Y040506*
X037930Y040412*
X037884Y040303*
X037876Y040235*
X038273*
Y040632*
G37*
G36*
X050923Y040659D02*
X050656D01*
Y040393*
X050923*
Y040659*
G37*
G36*
X050556D02*
X050290D01*
Y040393*
X050556*
Y040659*
G37*
G36*
X038373Y040632D02*
Y040235D01*
X038770*
X038761Y040303*
X038716Y040412*
X038644Y040506*
X038550Y040578*
X038440Y040623*
X038373Y040632*
G37*
G36*
X050923Y040293D02*
X050656D01*
Y040026*
X050923*
Y040293*
G37*
G36*
X030556Y041289D02*
X030290D01*
Y041022*
X030556*
Y041289*
G37*
G36*
X051828Y039872D02*
X051562D01*
Y039605*
X051828*
Y039872*
G37*
G36*
X050556Y040293D02*
X050290D01*
Y040026*
X050556*
Y040293*
G37*
G36*
X042260Y042473D02*
X042101Y042458D01*
X041949Y042412*
X041809Y042337*
X041686Y042236*
X041585Y042113*
X041510Y041972*
X041463Y041820*
X041448Y041661*
X041463Y041503*
X041510Y041351*
X041585Y041210*
X041686Y041087*
X041809Y040986*
X041949Y040911*
X042101Y040865*
X042260Y040849*
X042418Y040865*
X042571Y040911*
X042711Y040986*
X042834Y041087*
X042935Y041210*
X043010Y041351*
X043056Y041503*
X043072Y041661*
X043056Y041820*
X043010Y041972*
X042935Y042113*
X042834Y042236*
X042711Y042337*
X042571Y042412*
X042418Y042458*
X042260Y042473*
G37*
G36*
X050055Y041432D02*
X049987Y041423D01*
X049924Y041396*
X049870Y041355*
X049828Y041300*
X049802Y041237*
X049793Y041169*
X049802Y041101*
X049811Y041080*
X049794Y041055*
X049785Y041012*
Y040619*
X049621*
Y040066*
X050174*
Y040619*
X050010*
Y040875*
X050047Y040908*
X050055Y040907*
X050123Y040916*
X050186Y040942*
X050241Y040984*
X050282Y041038*
X050308Y041101*
X050317Y041169*
X050308Y041237*
X050282Y041300*
X050241Y041355*
X050186Y041396*
X050123Y041423*
X050055Y041432*
G37*
%LNpcb1-3*%
%LPD*%
G36*
X033160Y039072D02*
X032054Y037966D01*
X031395*
Y037999*
Y038001*
Y038710*
X030842*
Y038007*
Y037999*
X030856Y037971*
Y037964*
Y037674*
Y037399*
Y037123*
Y036847*
X031331*
Y037123*
Y037170*
X032257*
X033024Y036403*
Y032075*
X032974*
X032962Y032137*
X032926Y032190*
X032690Y032426*
X032637Y032462*
X032575Y032474*
X031422*
X030612Y033284*
Y039291*
X031115Y039794*
X032406Y041085*
X033160*
Y039072*
G37*
G36*
X046370Y045418D02*
Y045109D01*
X046155Y044893*
X045803*
X045764Y044886*
X045731Y044863*
X045463Y044596*
X045422Y044623*
X045426Y044634*
X045430Y044663*
X045184*
Y044417*
X045212Y044420*
X045223Y044425*
X045251Y044383*
X045141Y044273*
X045118Y044240*
X045111Y044201*
Y044108*
X045063Y044094*
X045048Y044115*
X044488Y044676*
Y045201*
X044700*
Y045027*
X044980*
X044990Y044978*
X044983Y044975*
X044920Y044927*
X044872Y044864*
X044842Y044791*
X044838Y044763*
X045430*
X045426Y044791*
X045396Y044864*
X045348Y044927*
X045285Y044975*
X045253Y044988*
Y045027*
Y045103*
Y045580*
X044700*
Y045405*
X044428*
X044222Y045611*
X044189Y045634*
X044150Y045641*
X043875*
Y045676*
Y045752*
X046037*
X046370Y045418*
G37*
%LNpcb1-4*%
%LPC*%
G36*
X031316Y034458D02*
X030842D01*
Y033550*
X031316*
Y034458*
G37*
G36*
X045635Y045620D02*
X045368D01*
Y045353*
X045635*
Y045620*
G37*
G36*
X046002D02*
X045735D01*
Y045353*
X046002*
Y045620*
G37*
G36*
Y045253D02*
X045735D01*
Y044987*
X046002*
Y045253*
G37*
G36*
X045084Y044663D02*
X044838D01*
X044842Y044634*
X044872Y044561*
X044920Y044499*
X044983Y044451*
X045056Y044420*
X045084Y044417*
Y044663*
G37*
G36*
X045635Y045253D02*
X045368D01*
Y044987*
X045635*
Y045253*
G37*
G36*
X032920Y033060D02*
X032328D01*
Y032586*
X032920*
Y033060*
G37*
%LNpcb1-5*%
%LPD*%
G54D10*
X049386Y025579D03*
Y024870D03*
X050134Y025579D03*
Y024870D03*
X044976Y047075D03*
Y046366D03*
X043953Y027902D03*
Y028610D03*
X048441Y027823D03*
Y028531D03*
Y030500D03*
Y029791D03*
X051512Y036366D03*
Y037075D03*
Y039555D03*
Y038846D03*
X047024Y036760D03*
Y037469D03*
X054583Y046720D03*
Y046012D03*
X042457Y037547D03*
Y038256D03*
X043244D03*
Y037547D03*
X030606Y040972D03*
Y040264D03*
X033047Y028650D03*
Y029358D03*
X037401Y033362D03*
Y032654D03*
G54D14*
X050291Y034398D03*
G54D15*
X048091Y034398D03*
X050291Y033898D03*
Y033398D03*
X048091D03*
Y033898D03*
X050291Y032898D03*
X048091D03*
G54D38*
X055882Y047941D03*
G54D39*
X056827Y047941D03*
G54D41*
X045803Y024831D03*
X046512D03*
X040764Y044752D03*
X041472D03*
Y044043D03*
X040764D03*
X045685Y045303D03*
X044976D03*
X043323Y043413D03*
X044032D03*
X047535Y026917D03*
X046827D03*
X047535Y031406D03*
X046827D03*
X050567Y035815D03*
X049858D03*
X050606Y040343D03*
X049898D03*
X055606Y049476D03*
X054898D03*
X045173Y038217D03*
X044465D03*
Y037508D03*
X045173D03*
X041630Y028925D03*
X040921D03*
Y028217D03*
X041630D03*
G54D44*
X046827Y031130D02*
Y031406D01*
Y031130D02*
X047339Y030618D01*
X047772Y030736D02*
X048244Y031209D01*
X047772Y028768D02*
Y030736D01*
X047024Y028020D02*
X047772Y028768D01*
X049386Y024240D02*
X049465Y024161D01*
X049386Y024240D02*
Y024870D01*
X041394Y037469D02*
X041472Y037547D01*
X042457*
X041394Y037980D02*
X041669Y038256D01*
X042457*
X041276Y037469D02*
X041394D01*
X047693Y035667D02*
X048091Y035269D01*
X047693Y035667D02*
Y037035D01*
X047969Y037311*
Y037783*
X047024Y037469D02*
X047654D01*
X047969Y037783*
X046827Y026248D02*
Y026917D01*
X046197Y025618D02*
X046827Y026248D01*
X042142Y032075D02*
X042890D01*
X043559Y031406*
X044032*
X046827Y033098D02*
X048047Y031878D01*
X048874*
X049228Y032232*
Y034358*
X048717Y034870D02*
X049228Y034358D01*
X048717Y034870D02*
Y034949D01*
X046039Y033098D02*
X046827D01*
X045646Y033492D02*
X046039Y033098D01*
X045646Y033492D02*
Y034673D01*
X045370Y034949D02*
X045646Y034673D01*
X044858Y034949D02*
X045370D01*
X044504Y035303D02*
X044858Y034949D01*
X044504Y035303D02*
Y035815D01*
X045016Y035453D02*
Y035972D01*
X043441Y037547D02*
X045016Y035972D01*
X043244Y037547D02*
X043441D01*
X047693Y042587D02*
X048087Y042193D01*
Y041169D02*
Y042193D01*
X051433Y041445D02*
X051984Y041996D01*
X051433Y041051D02*
Y041445D01*
X048323Y043020D02*
X048638Y042705D01*
Y041209D02*
Y042705D01*
X039071Y041445D02*
Y043965D01*
Y041445D02*
X040803Y039713D01*
X047693*
X049346Y038059*
X049583*
X050134Y023571D02*
Y024870D01*
X049504Y022941D02*
X050134Y023571D01*
X041472Y044752D02*
X041827D01*
X043087Y044083D02*
X043165Y044161D01*
Y044555*
X041827Y044752D02*
X042496Y044083D01*
X043087*
X042732Y046681D02*
X043756Y047705D01*
X042732Y046169D02*
Y046681D01*
X041827Y047114D02*
X042417Y047705D01*
X041827Y045697D02*
Y047114D01*
Y045697D02*
X042299Y045224D01*
X042732*
X041039Y046996D02*
Y047705D01*
Y046996D02*
X041354Y046681D01*
Y045697D02*
Y046681D01*
Y045697D02*
X042142Y044909D01*
X042732*
X040945Y035453D02*
X040992D01*
X041512Y035972*
X043496*
X044016Y035453*
X040945Y033453D02*
X041535Y032862D01*
X043480*
X044016Y033398*
Y033453*
X036389Y028335D02*
X036901Y028846D01*
X045528Y038217D02*
X046039D01*
X045173D02*
X045528D01*
X041630Y028925D02*
X041709Y028846D01*
X042890*
X044465Y037508D02*
X045173Y036799D01*
X045449*
X040921Y027862D02*
Y028217D01*
Y027862D02*
X041157Y027626D01*
X042457Y037547D02*
X042535D01*
X043244Y038256*
X042063Y026327D02*
X045370D01*
X045528Y026484*
Y027547D02*
X046512Y028531D01*
X045528Y026484D02*
Y027547D01*
X046512Y028531D02*
Y029240D01*
X046039Y029713D02*
X046512Y029240D01*
X043638Y026681D02*
X045055D01*
X045252Y026878*
Y027626*
X046039Y028413*
Y029004*
X043047Y026012D02*
X045567D01*
X045843Y026287*
Y027547D02*
X047024Y028728D01*
X045843Y026287D02*
Y027547D01*
X047024Y028728D02*
Y029516D01*
X052378Y034319D02*
Y035224D01*
X053598Y036445*
Y037587*
X053992Y032469D02*
X054307D01*
X054583Y032193*
X056118*
X056591Y032665*
Y032980*
X053717Y031563D02*
Y031642D01*
Y031563D02*
X054228Y031051D01*
X056039*
X056512Y030579*
X053205Y031051D02*
X053756Y030500D01*
Y029004D02*
Y030500D01*
X060449Y021406D02*
Y025028D01*
X060173Y021130D02*
X060449Y021406D01*
X053992Y021130D02*
X060173D01*
X052181Y022941D02*
X053992Y021130D01*
X052181Y022941D02*
Y028965D01*
X052299Y029083*
X065921Y021287D02*
Y024909D01*
X065528Y020894D02*
X065921Y021287D01*
X053874Y020894D02*
X065528D01*
X051906Y022862D02*
X053874Y020894D01*
X051906Y022862D02*
Y029476D01*
X052142Y029713*
X052181*
X052929Y022705D02*
X054268Y024043D01*
Y028020*
X053913Y028374D02*
X054268Y028020D01*
X053756Y028374D02*
X053913D01*
X052654Y023650D02*
Y023807D01*
X052378Y024083D02*
X052654Y023807D01*
X052378Y024083D02*
Y025736D01*
X053520Y026878*
Y027469*
X053756Y027705*
X052732Y024516D02*
Y025618D01*
X053874Y026760*
Y027075*
X049228Y039358D02*
X049504D01*
X046669Y041917D02*
X049228Y039358D01*
X045567Y041917D02*
X046669D01*
X045213Y042272D02*
X045567Y041917D01*
X045213Y042272D02*
Y044201D01*
X045803Y044791*
X046197*
X046472Y045067*
Y045461*
X046079Y045854D02*
X046472Y045461D01*
X043598Y045854D02*
X046079D01*
X045035Y046307D02*
Y046425D01*
Y046307D02*
X045488Y045854D01*
X050173Y039319D02*
X050252Y039398D01*
X050173Y038886D02*
Y039319D01*
X050055Y038768D02*
X050173Y038886D01*
X049425Y038768D02*
X050055D01*
X046512Y041681D02*
X049425Y038768D01*
X050252Y039319D02*
Y039398D01*
X045252Y041681D02*
X046512D01*
X044976Y041957D02*
X045252Y041681D01*
X044976Y041957D02*
Y044043D01*
X044386Y044634D02*
X044976Y044043D01*
X044386Y044634D02*
Y045303D01*
X044150Y045539D02*
X044386Y045303D01*
X043598Y045539D02*
X044150D01*
X044386Y045303D02*
X044976D01*
X050252Y038571D02*
X050567Y038886D01*
X049268Y038571D02*
X050252D01*
X046394Y041445D02*
X049268Y038571D01*
X044780Y041681D02*
X045016Y041445D01*
X044780Y041681D02*
Y043886D01*
X044189Y044476D02*
X044780Y043886D01*
X044189Y044476D02*
Y045146D01*
X044110Y045224D02*
X044189Y045146D01*
X043598Y045224D02*
X044110D01*
X045016Y041445D02*
X046394D01*
X044032Y043413D02*
X044504Y043886D01*
X044780*
X052457Y036563D02*
Y038020D01*
X050291Y034398D02*
X052457Y036563D01*
X033047Y028650D02*
X033559D01*
X033756Y028846*
X034701*
X030606Y040264D02*
X030961Y039909D01*
X031000*
X040764Y043650D02*
X040882Y043531D01*
X040764Y043650D02*
Y044043D01*
X040882Y043531D02*
X041984D01*
X042299Y043846*
X043362*
X043598Y044083*
Y044594*
X044504Y033965D02*
X045016Y033453D01*
X043047Y033965D02*
X044504D01*
X042535Y033453D02*
X043047Y033965D01*
X041945Y033453D02*
X042535D01*
X036901Y029846D02*
X039165D01*
X040528Y031209*
Y031996*
X041118Y032587*
X044150*
X045016Y033453*
X036901Y030346D02*
X039154D01*
X039898Y031091*
Y031720*
X044520Y034949D02*
X045016Y034453D01*
X043323Y034949D02*
X044520D01*
X042827Y034453D02*
X043323Y034949D01*
X041945Y034453D02*
X042827D01*
X041496Y034004D02*
X041945Y034453D01*
X040291Y034004D02*
X041496D01*
X039346Y033059D02*
X040291Y034004D01*
X036901Y030846D02*
X039063D01*
X039346Y031130*
Y033059*
X033846Y029346D02*
X034701D01*
X033126Y030067D02*
X033846Y029346D01*
X033126Y030067D02*
Y036445D01*
X032299Y037272D02*
X033126Y036445D01*
X031093Y037272D02*
X032299D01*
X033126Y029437D02*
Y030067D01*
X033047Y029358D02*
X033126Y029437D01*
X034701Y029846D02*
X035189D01*
X035567Y030224*
Y036917*
X035921Y037272*
X036802*
X033909Y030346D02*
X034701D01*
X033402Y030854D02*
X033909Y030346D01*
X033402Y030854D02*
Y036720D01*
X032575Y037547D02*
X033402Y036720D01*
X031094Y037547D02*
X032575D01*
X031093D02*
X031094D01*
X034354Y030846D02*
X034701D01*
X033953Y031248D02*
X034354Y030846D01*
X033953Y031248D02*
Y036406D01*
X035370Y037823*
X036802*
X036901Y029346D02*
X039138D01*
X040921Y031130*
Y031917*
X041354Y032350*
X045055*
X045331Y032626*
X046354*
X031625Y029346D02*
X032232D01*
X032378Y029201*
X030843Y029634D02*
X031055Y029846D01*
X031625*
X030843Y029634D02*
Y029791D01*
X048087Y036760D02*
X049189D01*
X049465Y037035*
Y037547*
X047850Y039161D02*
X049465Y037547D01*
X040291Y039161D02*
X047850D01*
X031976Y030846D02*
X032378Y031248D01*
X031625Y030846D02*
X031976D01*
X030370Y031366D02*
Y031760D01*
X029850Y030846D02*
X030370Y031366D01*
X029425Y030846D02*
X029850D01*
X030098Y030346D02*
X030291Y030539D01*
X029425Y030346D02*
X030098D01*
X041866Y030854D02*
X043126D01*
X045370Y028610*
X038244Y028177D02*
X042142Y032075D01*
X038244Y026563D02*
Y028177D01*
X048244Y031209D02*
X049661D01*
X050449Y030421*
X046354Y033920D02*
X046546D01*
X047614Y034988*
X041354Y036563D02*
X041748Y036169D01*
X044150*
X044504Y035815*
G54D45*
X039898Y025618D02*
X046197D01*
X037811D02*
X039898D01*
X036866Y043689D02*
X037968Y044791D01*
X036866Y043650D02*
Y043689D01*
X055149Y032769D02*
X055670D01*
X056472Y033571*
Y036130*
X031625Y028846D02*
X031748Y028724D01*
Y028256D02*
Y028724D01*
X027378Y028256D02*
X031748D01*
X026906Y027783D02*
X027378Y028256D01*
X026906Y027075D02*
Y027783D01*
Y027075D02*
X027378Y026602D01*
X035951*
X036389Y027040*
X046197Y025264D02*
Y025618D01*
Y025264D02*
X046591Y024870D01*
X036389Y027040D02*
X037811Y025618D01*
X036389Y027040D02*
Y028335D01*
X061605Y023349D02*
X062614Y024358D01*
Y029280*
X061748Y030146D02*
X062614Y029280D01*
X061551Y026878D02*
X061584D01*
X060724Y029909D02*
X061584Y029050D01*
X060724Y029909D02*
Y030776D01*
X061748Y031799*
X061584Y026878D02*
Y029050D01*
X055213Y037823D02*
X060685D01*
X061748Y036760*
X067117Y026893D02*
Y028005D01*
X066748Y028374D02*
X067117Y028005D01*
X064228Y028374D02*
X066748D01*
X062811Y029791D02*
X064228Y028374D01*
X062811Y029791D02*
Y030697D01*
X063913Y031799*
X055685Y021917D02*
X056276D01*
X063913Y033335D02*
Y033453D01*
X058244Y029713D02*
X058913D01*
X059618Y030417*
Y031723*
X059622Y031727*
Y032626*
X061276Y034280*
X062142*
X062811Y033610*
X063756*
X063913Y033453*
X056276Y021917D02*
X056354Y021996D01*
Y027823*
X058244Y029713*
X065767Y029043D02*
X066354D01*
X064665Y030146D02*
X065767Y029043D01*
X063913Y030146D02*
X064665D01*
X063913D02*
X064976Y031209D01*
Y035697*
X063913Y036760D02*
X064976Y035697D01*
X063913Y036760D02*
Y038413D01*
X061437Y035857D02*
X063162D01*
X063913Y035106*
X059228Y031121D02*
Y033649D01*
X061437Y035857*
X058253Y030146D02*
X059228Y031121D01*
X057683Y030146D02*
X058253D01*
X055149Y027611D02*
X057683Y030146D01*
X026394Y026602D02*
X026945Y026051D01*
X026394Y026602D02*
Y028138D01*
X027102Y028846D02*
X028520D01*
X026394Y028138D02*
X027102Y028846D01*
X028520D02*
X029425D01*
X030291*
Y029949*
X026945Y026051D02*
X033520D01*
X034291Y025280*
X030291Y029949D02*
X030929Y030587D01*
Y031689*
X031087Y031846*
X031625*
X031354Y032311D02*
X031625Y032040D01*
Y031846D02*
Y032040D01*
X030449Y033217D02*
X031354Y032311D01*
X030449Y033217D02*
Y039358D01*
X031000Y039909*
X032575Y032311D02*
X032811Y032075D01*
Y030146D02*
Y032075D01*
X031354Y032311D02*
X032575D01*
X031000Y039909D02*
X032339Y041248D01*
X033323Y039004D02*
Y041248D01*
X032142Y037823D02*
X033323Y039004D01*
X032339Y041248D02*
X033323D01*
X033343Y041268D02*
X035724Y043650D01*
X034291Y021524D02*
Y025280D01*
X035016Y028374D02*
X035291Y028098D01*
Y027524D02*
Y028098D01*
X034701Y028689D02*
Y028846D01*
Y028689D02*
X035016Y028374D01*
X034701Y028846D02*
X035291D01*
X036000Y029555*
Y031681*
X036165Y031846*
X036901*
X038094*
X037401Y032654D02*
X037980Y032075D01*
X038323*
X038094Y031846D02*
X038323Y032075D01*
Y033098*
X035724Y043650D02*
X036866D01*
G54D46*
X048717Y037429D02*
Y037862D01*
X047693Y038886D02*
X048717Y037862D01*
X048638Y035815D02*
X049858D01*
X048091Y035269D02*
X048638Y035815D01*
X048091Y034398D02*
Y035269D01*
X051079Y038846D02*
X051512D01*
X050213Y036720D02*
X050567Y037075D01*
X051512*
X049858Y036366D02*
X050213Y036720D01*
X049858Y035815D02*
Y036366D01*
X049898Y041012D02*
X050055Y041169D01*
X049898Y040343D02*
Y041012D01*
X048717Y029476D02*
X051079D01*
X048441Y029752D02*
X048717Y029476D01*
X048441Y029752D02*
Y029791D01*
X048992Y028846D02*
X051079D01*
X048677Y028531D02*
X048992Y028846D01*
X048441Y028531D02*
X048677D01*
X041787Y029752D02*
X042063Y029476D01*
X043087*
X043953Y028610*
X040488Y029752D02*
X041787D01*
X039110Y028374D02*
X040488Y029752D01*
X039110Y026406D02*
Y028374D01*
Y026406D02*
X039898Y025618D01*
X036906Y045972D02*
X037220Y045657D01*
X036906Y045972D02*
Y047783D01*
X048953Y041563D02*
X049268Y041248D01*
X050961Y043413D02*
Y043886D01*
X050843Y043295D02*
X050961Y043413D01*
X050843Y041169D02*
Y043295D01*
X053756Y046406D02*
Y046602D01*
X053874Y046720D02*
X054583D01*
X053756Y046602D02*
X053874Y046720D01*
X055606Y048217D02*
X055882Y047941D01*
X055606Y048217D02*
Y048689D01*
X056472Y049555*
X057087*
X055606Y048689D02*
Y049476D01*
X054661Y046720D02*
X055882Y047941D01*
X054583Y046720D02*
X054661D01*
X058362Y047941D02*
Y048530D01*
X058087Y048805D02*
X058362Y048530D01*
X056827Y047941D02*
X058362D01*
Y046681D02*
Y047941D01*
X057811Y049555D02*
X058087D01*
X057575Y049319D02*
X057811Y049555D01*
X057575Y048965D02*
Y049319D01*
X057415Y048805D02*
X057575Y048965D01*
X057087Y048805D02*
X057415D01*
X056392D02*
X057087D01*
X055055Y047902D02*
Y048807D01*
X051748Y047902D02*
X054228D01*
X051394Y048256D02*
X051748Y047902D01*
X051394Y048256D02*
Y048980D01*
X051417Y049004*
X048953Y041563D02*
Y044083D01*
X049465Y044594*
X052378*
X052417Y044634*
Y045244*
X053520Y046012D02*
X054583D01*
X053328Y045308D02*
Y045820D01*
X053520Y046012*
X053264Y045244D02*
X053328Y045308D01*
X052417Y045244D02*
X053264D01*
X051591Y040579D02*
X052417Y041406D01*
Y042980*
X053744Y044307*
X033291Y021524D02*
Y024114D01*
X031669Y025736D02*
X033291Y024114D01*
X026748Y025736D02*
X031669D01*
X026118Y026366D02*
X026748Y025736D01*
X026118Y026366D02*
Y028295D01*
X026906Y029083*
X028008*
X028272Y029346*
X029425*
X032291Y021524D02*
Y024760D01*
X031551Y025500D02*
X032291Y024760D01*
X026551Y025500D02*
X031551D01*
X025843Y026209D02*
X026551Y025500D01*
X025843Y026209D02*
Y028413D01*
X026709Y029280*
X027850*
X028417Y029846*
X029425*
X031625Y030346D02*
X032067D01*
X032339Y030618*
X039780Y034988D02*
Y035776D01*
X040803Y036799*
Y038453*
X041236Y038886*
X047693*
X050213Y036720D02*
Y037154D01*
X050803Y037744*
Y038571*
X051079Y038846*
G54D47*
X041000Y040146D02*
X045528D01*
X046512Y024831D02*
X047260Y025579D01*
X039701Y041445D02*
Y048138D01*
Y041445D02*
X041000Y040146D01*
X045528D02*
X045921Y040539D01*
X037220Y045657D02*
X039701Y048138D01*
X035016Y045657D02*
X037220D01*
X051276Y025579D02*
X051551Y025854D01*
X050134Y025579D02*
X051276D01*
X049386D02*
X050134D01*
X049386D02*
D01*
X047260D02*
X049386D01*
G54D48*
X055780Y046681D02*
X057535D01*
X053205Y041642D02*
X053717Y042154D01*
Y043295*
X059898Y028295D02*
X059976Y028374D01*
Y031681*
X061748Y033453*
X031093Y037823D02*
X032142D01*
X040370Y046839D02*
X040764Y046445D01*
Y044043D02*
Y044752D01*
Y046445*
G54D50*
X059740Y049319D02*
X062535D01*
Y049122D02*
Y049319D01*
X061315Y048768D02*
X061748Y048335D01*
X061433Y048020D02*
X061748Y048335D01*
X042260Y048689D02*
X043047Y047902D01*
X042260Y048689D02*
Y048945D01*
G54D52*
X060252Y048768D02*
X061315D01*
X060055Y048020D02*
X061433D01*
X061748Y048335D02*
X062535Y049122D01*
G54D53*
X050449Y030421D03*
X044016Y035453D03*
Y033453D03*
Y034453D03*
X045016D03*
Y035453D03*
X040945D03*
Y034453D03*
X041945D03*
Y035453D03*
X030291Y027524D03*
X031291D03*
G54D54*
X041866Y030854D03*
G54D55*
X046354Y033920D03*
Y034920D03*
X040945Y033453D03*
G54D56*
X045016Y033453D03*
X041945D03*
G54D57*
X046173Y042587D03*
X050173D03*
X055780Y046681D03*
X059780D03*
X038323Y040185D03*
Y039398D03*
Y038610D03*
Y037823D03*
Y037035D03*
Y036248D03*
Y035461D03*
Y034673D03*
Y033886D03*
X029661Y033098D03*
Y033886D03*
Y034673D03*
Y035461D03*
Y036248D03*
Y037035D03*
Y037823D03*
Y038610D03*
Y039398D03*
Y040185D03*
X028291Y027524D03*
X029291D03*
X032291D03*
X033291D03*
X034291D03*
X035291D03*
Y021524D03*
X034291D03*
X033291D03*
X032291D03*
X031291D03*
X030291D03*
X029291D03*
X028291D03*
G54D58*
X038701Y048138D03*
X045819Y048059D03*
X048953Y048665D03*
G54D59*
X036906Y047783D03*
X037968Y044791D03*
X035252Y047783D03*
X039701Y048138D03*
X044819Y048059D03*
G54D60*
X059268Y035067D03*
Y039594D03*
Y042350D03*
X057417Y035067D03*
G54D61*
X041260Y048945D03*
X042260D03*
X043260D03*
G54D62*
X042260Y041661D03*
G54D63*
X031472Y045736D03*
Y048689D03*
G54D64*
X048963Y046675D03*
G54D65*
X038323Y033098D03*
G54D66*
X022457Y030067D03*
Y048256D03*
X066787Y048335D03*
Y030146D03*
X061748Y045028D03*
G54D67*
X025331Y048256D03*
Y046602D03*
Y044949D03*
Y043295D03*
Y041642D03*
Y039988D03*
Y038335D03*
Y036681D03*
Y035028D03*
Y033374D03*
Y031720D03*
Y030067D03*
X027496Y048256D03*
Y046602D03*
Y044949D03*
Y043295D03*
Y041642D03*
Y039988D03*
Y038335D03*
Y036681D03*
Y035028D03*
Y033374D03*
Y031720D03*
Y030067D03*
X063913Y030146D03*
Y031799D03*
Y033453D03*
Y035106D03*
Y036760D03*
Y038413D03*
Y040067D03*
Y045028D03*
Y046681D03*
Y048335D03*
X061748Y030146D03*
Y031799D03*
Y033453D03*
Y035106D03*
Y036760D03*
Y038413D03*
Y040067D03*
Y046681D03*
Y048335D03*
G54D68*
X063913Y041720D03*
Y043374D03*
X061748Y041720D03*
Y043374D03*
G54D69*
X047339Y030618D03*
X049465Y024161D03*
X041394Y037980D03*
Y037469D03*
X047969Y037783D03*
X048717Y037429D03*
X050213Y036720D03*
X050055Y041169D03*
X051079Y029476D03*
Y028846D03*
X041787Y029752D03*
X047614Y034988D03*
X048717Y034949D03*
X041354Y036563D03*
X047693Y042587D03*
X051984Y041996D03*
X051433Y041051D03*
X048323Y043020D03*
X048638Y041209D03*
X049268Y041248D03*
X048087Y041169D03*
X039071Y043965D03*
X049583Y038059D03*
X049504Y022941D03*
X055149Y032769D03*
X056472Y036130D03*
X045134Y044713D03*
X031748Y028256D03*
X053717Y043295D03*
X053205Y041642D03*
X053756Y046406D03*
X045921Y040539D03*
X035016Y045657D03*
X051551Y025854D03*
X046197Y025618D03*
X036389Y028335D03*
X056392Y048805D03*
X055055Y048807D03*
X051591Y040579D03*
X053744Y044307D03*
X046039Y038217D03*
X042890Y028846D03*
X045449Y036799D03*
X041157Y027626D03*
X042063Y026327D03*
X046039Y029713D03*
X038244Y026563D03*
X044032Y031406D03*
X043638Y026681D03*
X046039Y029004D03*
X043047Y026012D03*
X047024Y029516D03*
X061605Y023349D03*
X061551Y026878D03*
X055213Y037823D03*
X067117Y026893D03*
X055685Y021917D03*
X066354Y029043D03*
X055149Y027611D03*
X059898Y028295D03*
X052378Y034319D03*
X053598Y037587D03*
X053992Y032469D03*
X056591Y032980D03*
X053717Y031642D03*
X056512Y030579D03*
X053205Y031051D03*
X053756Y029004D03*
X060449Y025028D03*
X052299Y029083D03*
X065921Y024909D03*
X052181Y029713D03*
X052929Y022705D03*
X053756Y028374D03*
X052654Y023650D03*
X053756Y027705D03*
X052732Y024516D03*
X053874Y027075D03*
X049504Y039358D03*
X050173Y039398D03*
X050567Y038886D03*
X052457Y038020D03*
X028520Y028846D03*
X032732Y030146D03*
X035016Y028374D03*
X036866Y043650D03*
X040370Y046839D03*
X039898Y031720D03*
X046354Y032626D03*
X032378Y029201D03*
X030843Y029634D03*
X048087Y036760D03*
X040291Y039161D03*
X032378Y031248D03*
X030370Y031760D03*
X032339Y030618D03*
X039780Y034988D03*
X030291Y030539D03*
X045370Y028610D03*
X047024Y028020D03*
X050961Y031130D03*
X049937Y037429D03*
G54D70*
X050961Y043886D03*
X050843Y041169D03*
G54D71*
X042181Y036524D03*
X060252Y048768D03*
X029976Y024161D03*
X037575Y028571D03*
X051118Y024791D03*
X045764Y036130D03*
X059740Y049319D03*
X060055Y048020D03*
X051512Y024437D03*
X030331Y023768D03*
X041748Y047980D03*
X043047Y047902D03*
G54D72*
X058087Y049185D03*
Y048805D03*
Y049555D03*
X057087Y048805D03*
Y049555D03*
G54D73*
X051417Y045244D03*
X052417D03*
X051417Y049004D03*
X052417D03*
G54D74*
X034701Y031846D03*
Y030346D03*
Y031346D03*
Y030846D03*
Y029846D03*
Y029346D03*
X036901Y031846D03*
Y031346D03*
Y030846D03*
Y030346D03*
Y029846D03*
Y029346D03*
Y028846D03*
X031625D03*
Y029346D03*
Y030346D03*
Y031346D03*
X029425Y030846D03*
Y029846D03*
Y031346D03*
Y029346D03*
X031625Y029846D03*
Y030846D03*
Y031846D03*
X029425Y030346D03*
Y031846D03*
G54D75*
X034701Y028846D03*
X029425D03*
G54D76*
X043598Y044909D03*
Y045224D03*
Y046169D03*
X042732Y044594D03*
X043598D03*
Y045854D03*
Y045539D03*
X042732D03*
Y045854D03*
Y044909D03*
Y045224D03*
Y046169D03*
G54D77*
X043165Y044555D03*
Y046209D03*
G54D78*
X041039Y047705D03*
X043756D03*
X042417D03*
G54D79*
X055055Y047902D03*
X054228D03*
X057535Y046681D03*
X058362D03*
Y047941D03*
X059189D03*
G54D80*
X031093Y036996D03*
Y037823D03*
Y037547D03*
Y037272D03*
X036802D03*
Y037547D03*
Y037823D03*
Y036996D03*
G54D81*
X034986Y032823D03*
X032624D03*
G54D82*
X036778Y038354D03*
X031118D03*
G54D83*
X036817Y034516D03*
X031079Y034004D03*
M02*