%FSDAX24Y24*%
%MOIN*%
%SFA1B1*%

%IPPOS*%
%ADD108R,0.051300X0.051300*%
%ADD112R,0.088000X0.033600*%
%ADD113O,0.088000X0.033600*%
%ADD136R,0.035600X0.035600*%
%ADD137R,0.035600X0.035600*%
%ADD139R,0.051300X0.051300*%
%ADD142C,0.067100*%
%ADD143C,0.063100*%
%ADD144C,0.071000*%
%ADD145R,0.067100X0.067100*%
%ADD146C,0.078000*%
%ADD147C,0.086700*%
%ADD148R,0.086700X0.086700*%
%ADD149O,0.126100X0.090700*%
%ADD150O,0.090700X0.126100*%
%ADD151C,0.157600*%
%ADD152C,0.106400*%
%ADD153R,0.086700X0.086700*%
%ADD154C,0.080200*%
%ADD155R,0.080200X0.080200*%
%ADD156C,0.126100*%
%ADD157C,0.118200*%
%ADD158C,0.098600*%
%ADD159C,0.048000*%
%ADD160C,0.052000*%
%ADD161C,0.058000*%
%ADD162C,0.044000*%
%ADD163R,0.051300X0.031600*%
%ADD164R,0.078100X0.069000*%
%ADD165O,0.088000X0.032000*%
%ADD166R,0.088000X0.032000*%
%ADD167R,0.051300X0.031600*%
%ADD168R,0.035400X0.055100*%
%ADD169R,0.047400X0.047400*%
%ADD170R,0.051300X0.059200*%
%ADD171R,0.045700X0.028000*%
%ADD172R,0.055200X0.043400*%
%ADD173R,0.051300X0.067100*%
%ADD174R,0.043400X0.086700*%
%LNpcb1-1*%
%LPD*%
G54D108*
X049386Y025579D03*
Y024870D03*
X050134Y025579D03*
Y024870D03*
X044976Y047075D03*
Y046366D03*
X043953Y027902D03*
Y028610D03*
X048441Y027823D03*
Y028531D03*
Y030500D03*
Y029791D03*
X051512Y036366D03*
Y037075D03*
Y039555D03*
Y038846D03*
X047024Y036760D03*
Y037469D03*
X054583Y046720D03*
Y046012D03*
X042457Y037547D03*
Y038256D03*
X043244D03*
Y037547D03*
X030606Y040972D03*
Y040264D03*
X033047Y028650D03*
Y029358D03*
X037401Y033362D03*
Y032654D03*
G54D112*
X050291Y034398D03*
G54D113*
X048091Y034398D03*
X050291Y033898D03*
Y033398D03*
X048091D03*
Y033898D03*
X050291Y032898D03*
X048091D03*
G54D136*
X055882Y047941D03*
G54D137*
X056827Y047941D03*
G54D139*
X045803Y024831D03*
X046512D03*
X040764Y044752D03*
X041472D03*
Y044043D03*
X040764D03*
X045685Y045303D03*
X044976D03*
X043323Y043413D03*
X044032D03*
X047535Y026917D03*
X046827D03*
X047535Y031406D03*
X046827D03*
X050567Y035815D03*
X049858D03*
X050606Y040343D03*
X049898D03*
X055606Y049476D03*
X054898D03*
X045173Y038217D03*
X044465D03*
Y037508D03*
X045173D03*
X041630Y028925D03*
X040921D03*
Y028217D03*
X041630D03*
G54D142*
X050449Y030421D03*
X044016Y035453D03*
Y033453D03*
Y034453D03*
X045016D03*
Y035453D03*
X040945D03*
Y034453D03*
X041945D03*
Y035453D03*
X030291Y027524D03*
X031291D03*
G54D143*
X041866Y030854D03*
G54D144*
X046354Y033920D03*
Y034920D03*
X040945Y033453D03*
G54D145*
X045016Y033453D03*
X041945D03*
G54D146*
X046173Y042587D03*
X050173D03*
X055780Y046681D03*
X059780D03*
X028291Y027524D03*
X029291D03*
X032291D03*
X033291D03*
X034291D03*
X035291D03*
Y021524D03*
X034291D03*
X033291D03*
X032291D03*
X031291D03*
X030291D03*
X029291D03*
X028291D03*
G54D147*
X038701Y048138D03*
X045819Y048059D03*
X048953Y048665D03*
G54D148*
X036906Y047783D03*
X037968Y044791D03*
X035252Y047783D03*
X039701Y048138D03*
X044819Y048059D03*
G54D149*
X059268Y035067D03*
Y039594D03*
Y042350D03*
X057417Y035067D03*
G54D150*
X041260Y048945D03*
X042260D03*
X043260D03*
G54D151*
X042260Y041661D03*
G54D152*
X031472Y045736D03*
Y048689D03*
G54D153*
X048963Y046675D03*
G54D154*
X038323Y040185D03*
Y039398D03*
Y038610D03*
Y037823D03*
Y037035D03*
Y036248D03*
Y035461D03*
Y034673D03*
Y033886D03*
X029661Y033098D03*
Y033886D03*
Y034673D03*
Y035461D03*
Y036248D03*
Y037035D03*
Y037823D03*
Y038610D03*
Y039398D03*
Y040185D03*
G54D155*
X038323Y033098D03*
G54D156*
X022457Y030067D03*
Y048256D03*
X066787Y048335D03*
Y030146D03*
X061748Y045028D03*
G54D157*
X025331Y048256D03*
Y046602D03*
Y044949D03*
Y043295D03*
Y041642D03*
Y039988D03*
Y038335D03*
Y036681D03*
Y035028D03*
Y033374D03*
Y031720D03*
Y030067D03*
X027496Y048256D03*
Y046602D03*
Y044949D03*
Y043295D03*
Y041642D03*
Y039988D03*
Y038335D03*
Y036681D03*
Y035028D03*
Y033374D03*
Y031720D03*
Y030067D03*
X063913Y030146D03*
Y031799D03*
Y033453D03*
Y035106D03*
Y036760D03*
Y038413D03*
Y040067D03*
Y045028D03*
Y046681D03*
Y048335D03*
X061748Y030146D03*
Y031799D03*
Y033453D03*
Y035106D03*
Y036760D03*
Y038413D03*
Y040067D03*
Y046681D03*
Y048335D03*
G54D158*
X063913Y041720D03*
Y043374D03*
X061748Y041720D03*
Y043374D03*
G54D159*
X047339Y030618D03*
X049465Y024161D03*
X041394Y037980D03*
Y037469D03*
X047969Y037783D03*
X048717Y037429D03*
X050213Y036720D03*
X050055Y041169D03*
X051079Y029476D03*
Y028846D03*
X041787Y029752D03*
X047614Y034988D03*
X048717Y034949D03*
X041354Y036563D03*
X047693Y042587D03*
X051984Y041996D03*
X048323Y043020D03*
X048638Y041209D03*
X049268Y041248D03*
X048087Y041169D03*
X039071Y043965D03*
X049583Y038059D03*
X049504Y022941D03*
X055149Y032769D03*
X056472Y036130D03*
X045134Y044713D03*
X031748Y028256D03*
X053717Y043295D03*
X053205Y041642D03*
X053756Y046406D03*
X045921Y040539D03*
X035016Y045657D03*
X051551Y025854D03*
X046197Y025618D03*
X036389Y028335D03*
X056392Y048805D03*
X055055Y048807D03*
X053744Y044307D03*
X046039Y038217D03*
X042890Y028846D03*
X045449Y036799D03*
X041157Y027626D03*
X042063Y026327D03*
X046039Y029713D03*
X038244Y026563D03*
X044032Y031406D03*
X043638Y026681D03*
X046039Y029004D03*
X043047Y026012D03*
X047024Y029516D03*
X061605Y023349D03*
X061551Y026878D03*
X055213Y037823D03*
X067117Y026893D03*
X055685Y021917D03*
X066354Y029043D03*
X055149Y027611D03*
X059898Y028295D03*
X052378Y034319D03*
X053598Y037587D03*
X053992Y032469D03*
X056591Y032980D03*
X053717Y031642D03*
X056512Y030579D03*
X053205Y031051D03*
X053756Y029004D03*
X060449Y025028D03*
X052299Y029083D03*
X065921Y024909D03*
X052181Y029713D03*
X052929Y022705D03*
X053756Y028374D03*
X052654Y023650D03*
X053756Y027705D03*
X052732Y024516D03*
X053874Y027075D03*
X049504Y039358D03*
X050173Y039398D03*
X050567Y038886D03*
X052457Y038020D03*
X028520Y028846D03*
X032732Y030146D03*
X035016Y028374D03*
X036866Y043650D03*
X040370Y046839D03*
X039898Y031720D03*
X046354Y032626D03*
X032378Y029201D03*
X030843Y029634D03*
X048087Y036760D03*
X040291Y039161D03*
X032378Y031248D03*
X030370Y031760D03*
X032339Y030618D03*
X039780Y034988D03*
X030291Y030539D03*
X045370Y028610D03*
X047024Y028020D03*
X050961Y031130D03*
X049937Y037429D03*
G54D160*
X051433Y041051D03*
X051591Y040579D03*
G54D161*
X050961Y043886D03*
X050843Y041169D03*
G54D162*
X042181Y036524D03*
X060252Y048768D03*
X029976Y024161D03*
X037575Y028571D03*
X051118Y024791D03*
X045764Y036130D03*
X059740Y049319D03*
X060055Y048020D03*
X051512Y024437D03*
X030331Y023768D03*
X041748Y047980D03*
X043047Y047902D03*
G54D163*
X058087Y049185D03*
Y048805D03*
Y049555D03*
X057087Y048805D03*
Y049555D03*
G54D164*
X051417Y045244D03*
X052417D03*
X051417Y049004D03*
X052417D03*
G54D165*
X034701Y031846D03*
Y030346D03*
Y031346D03*
Y030846D03*
Y029846D03*
Y029346D03*
X036901Y031846D03*
Y031346D03*
Y030846D03*
Y030346D03*
Y029846D03*
Y029346D03*
Y028846D03*
X031625D03*
Y029346D03*
Y030346D03*
Y031346D03*
X029425Y030846D03*
Y029846D03*
Y031346D03*
Y029346D03*
X031625Y029846D03*
Y030846D03*
Y031846D03*
X029425Y030346D03*
Y031846D03*
G54D166*
X034701Y028846D03*
X029425D03*
G54D167*
X043598Y044909D03*
Y045224D03*
Y046169D03*
X042732Y044594D03*
X043598D03*
Y045854D03*
Y045539D03*
X042732D03*
Y045854D03*
Y044909D03*
Y045224D03*
Y046169D03*
G54D168*
X043165Y044555D03*
Y046209D03*
G54D169*
X041039Y047705D03*
X043756D03*
X042417D03*
G54D170*
X055055Y047902D03*
X054228D03*
X057535Y046681D03*
X058362D03*
Y047941D03*
X059189D03*
G54D171*
X031093Y036996D03*
Y037823D03*
Y037547D03*
Y037272D03*
X036802D03*
Y037547D03*
Y037823D03*
Y036996D03*
G54D172*
X034986Y032823D03*
X032624D03*
G54D173*
X036778Y038354D03*
X031118D03*
G54D174*
X036817Y034516D03*
X031079Y034004D03*
M02*