%FSDAX24Y24*%
%MOIN*%
%SFA1B1*%

%IPPOS*%
%ADD108R,0.051300X0.051300*%
%ADD109R,0.059200X0.051300*%
%ADD110R,0.110400X0.145800*%
%ADD111R,0.078900X0.051300*%
%ADD112R,0.088000X0.033600*%
%ADD113O,0.088000X0.033600*%
%ADD114R,0.056000X0.043800*%
%ADD115R,0.056000X0.043800*%
%ADD116R,0.145800X0.094600*%
%ADD117R,0.031600X0.094600*%
%ADD118O,0.071000X0.019800*%
%ADD119O,0.088700X0.031600*%
%ADD120O,0.031600X0.088700*%
%ADD121O,0.033600X0.088000*%
%ADD122R,0.033600X0.088000*%
%ADD123R,0.094600X0.059200*%
%ADD124R,0.059200X0.051300*%
%ADD125R,0.086700X0.055200*%
%ADD126R,0.078900X0.055200*%
%ADD127R,0.055200X0.078900*%
%ADD128R,0.055200X0.086700*%
%ADD129R,0.045400X0.055200*%
%ADD130R,0.055200X0.044400*%
%ADD131C,0.045400*%
%ADD132R,0.055200X0.065100*%
%ADD133R,0.055200X0.045400*%
%ADD134R,0.044400X0.055200*%
%ADD135R,0.065100X0.055200*%
%ADD136R,0.035600X0.035600*%
%ADD137R,0.035600X0.035600*%
%ADD138R,0.043400X0.043400*%
%ADD139R,0.051300X0.051300*%
%ADD140R,0.043800X0.056000*%
%ADD141R,0.043800X0.056000*%
%ADD142C,0.067100*%
%ADD143C,0.063100*%
%ADD144C,0.071000*%
%ADD145R,0.067100X0.067100*%
%ADD146C,0.078000*%
%ADD147C,0.086700*%
%ADD148R,0.086700X0.086700*%
%ADD149O,0.126100X0.090700*%
%ADD150O,0.090700X0.126100*%
%ADD151C,0.157600*%
%ADD152C,0.106400*%
%ADD153R,0.086700X0.086700*%
%ADD154C,0.080200*%
%ADD155R,0.080200X0.080200*%
%ADD156C,0.126100*%
%ADD157C,0.118200*%
%ADD158C,0.098600*%
%ADD159C,0.048000*%
%ADD160C,0.052000*%
%ADD161C,0.058000*%
%ADD162C,0.044000*%
%LNpcb1-1*%
%LPD*%
G54D108*
X029228Y029516D03*
Y028807D03*
X030213D03*
Y029516D03*
X031669Y028807D03*
Y029516D03*
X052890Y043256D03*
Y042547D03*
Y044555D03*
Y045264D03*
X054661Y046917D03*
Y046209D03*
X023008Y028566D03*
Y027857D03*
X023913Y028566D03*
Y027857D03*
X022102Y028566D03*
Y027857D03*
X037535Y044201D03*
Y044909D03*
X035961D03*
Y044201D03*
X034386D03*
Y044909D03*
X047102Y041169D03*
Y040461D03*
X035882Y029555D03*
Y028846D03*
X034701Y029555D03*
Y028846D03*
X032968D03*
Y029555D03*
G54D109*
X051709Y044437D03*
Y045264D03*
Y042547D03*
Y043374D03*
G54D110*
X045606Y023531D03*
X037299D03*
G54D111*
X039701Y038453D03*
Y036996D03*
X042142Y038453D03*
Y036996D03*
X037417Y029358D03*
Y027902D03*
X039858Y029358D03*
Y027902D03*
G54D112*
X056787Y043807D03*
G54D113*
X054587Y044807D03*
X056787D03*
Y044307D03*
X054587Y043807D03*
Y044307D03*
X056787Y045307D03*
X054587D03*
G54D114*
X050134Y044043D03*
X023008Y026991D03*
X023913D03*
X022102D03*
G54D115*
X050134Y045331D03*
X023008Y025704D03*
X023913D03*
X022102D03*
G54D116*
X035764Y049004D03*
G54D117*
X035264Y046563D03*
X035764D03*
X036264D03*
X034764D03*
X036764D03*
G54D118*
X050409Y026701D03*
Y026957D03*
Y027213D03*
Y027469D03*
Y027724D03*
Y027980D03*
Y028236D03*
Y028492D03*
X052614Y026701D03*
Y026957D03*
Y027213D03*
Y027469D03*
Y027724D03*
Y027980D03*
Y028236D03*
Y028492D03*
X050409Y031543D03*
Y031799D03*
Y032055D03*
Y032311D03*
Y032567D03*
Y032823D03*
Y033079D03*
Y033335D03*
X052614Y031543D03*
Y031799D03*
Y032055D03*
Y032311D03*
Y032567D03*
Y032823D03*
Y033079D03*
Y033335D03*
G54D119*
X047024Y039673D03*
Y039358D03*
Y039043D03*
Y038728D03*
Y038413D03*
Y038098D03*
Y037783D03*
Y037469D03*
Y037154D03*
Y036839D03*
Y036524D03*
X051512D03*
Y036839D03*
Y037154D03*
Y037469D03*
Y037783D03*
Y038098D03*
Y038413D03*
Y038728D03*
Y039043D03*
Y039358D03*
Y039673D03*
X043953Y030736D03*
Y030421D03*
Y030106D03*
Y029791D03*
Y029476D03*
Y029161D03*
Y028846D03*
Y028531D03*
Y028217D03*
Y027902D03*
Y027587D03*
X048441D03*
Y027902D03*
Y028217D03*
Y028531D03*
Y028846D03*
Y029161D03*
Y029476D03*
Y029791D03*
Y030106D03*
Y030421D03*
Y030736D03*
G54D120*
X047693Y035854D03*
X048008D03*
X048323D03*
X048638D03*
X048953D03*
X049268D03*
X049583D03*
X049898D03*
X050213D03*
X050528D03*
X050843D03*
Y040343D03*
X050528D03*
X050213D03*
X049898D03*
X049583D03*
X049268D03*
X048953D03*
X048638D03*
X048323D03*
X048008D03*
X047693D03*
X044622Y026917D03*
X044937D03*
X045252D03*
X045567D03*
X045882D03*
X046197D03*
X046512D03*
X046827D03*
X047142D03*
X047457D03*
X047772D03*
Y031406D03*
X047457D03*
X047142D03*
X046827D03*
X046512D03*
X046197D03*
X045882D03*
X045567D03*
X045252D03*
X044937D03*
X044622D03*
G54D121*
X048720Y024275D03*
Y022075D03*
X047720Y024275D03*
X047220D03*
X047720Y022075D03*
X048220D03*
Y024275D03*
G54D122*
X047220Y022075D03*
G54D123*
X050567Y022390D03*
Y024043D03*
G54D124*
X041709Y028925D03*
X040803D03*
X041709Y028217D03*
X040803D03*
X045252Y038217D03*
X044346D03*
X045252Y037508D03*
X044346D03*
G54D125*
X047378Y043807D03*
G54D126*
X047378Y045185D03*
G54D127*
X058362Y045028D03*
G54D128*
X059740Y045028D03*
G54D129*
X065291Y022719D03*
X064346D03*
X059780D03*
X058835D03*
X065291Y026263D03*
X064346D03*
X059780D03*
X058835D03*
G54D130*
X066472Y024033D03*
X063165D03*
Y022665D03*
X066472D03*
X060961Y024033D03*
X057654D03*
Y022665D03*
X060961D03*
X066472Y027577D03*
X063165D03*
Y026209D03*
X066472D03*
X060961Y027577D03*
X057654D03*
Y026209D03*
X060961D03*
G54D131*
X065291Y024033D03*
X064346D03*
X059780D03*
X058835D03*
X065291Y027577D03*
X064346D03*
X059780D03*
X058835D03*
X059494Y030146D03*
Y031091D03*
X055833Y024280D03*
Y025224D03*
Y029398D03*
Y030343D03*
Y034516D03*
Y035461D03*
Y039634D03*
Y040579D03*
G54D132*
X063165Y023349D03*
X066472D03*
X057654D03*
X060961D03*
X063165Y026893D03*
X066472D03*
X057654D03*
X060961D03*
G54D133*
X058180Y030146D03*
Y031091D03*
X054519Y024280D03*
Y025224D03*
Y029398D03*
Y030343D03*
Y034516D03*
Y035461D03*
Y039634D03*
Y040579D03*
G54D134*
X059494Y028965D03*
Y032272D03*
X058126D03*
Y028965D03*
X055833Y023098D03*
Y026406D03*
X054465D03*
Y023098D03*
X055833Y028217D03*
Y031524D03*
X054465D03*
Y028217D03*
X055833Y033335D03*
Y036642D03*
X054465D03*
Y033335D03*
X055833Y038453D03*
Y041760D03*
X054465D03*
Y038453D03*
G54D135*
X058810Y032272D03*
Y028965D03*
X055149Y026406D03*
Y023098D03*
Y031524D03*
Y028217D03*
Y036642D03*
Y033335D03*
Y041760D03*
Y038453D03*
G54D136*
X053283Y039634D03*
Y034516D03*
Y029398D03*
Y024280D03*
X056945Y030146D03*
X058835Y025028D03*
X057929Y033925D03*
X064346Y025028D03*
X058835Y021484D03*
X064346D03*
G54D137*
X053283Y040579D03*
Y035461D03*
Y030343D03*
Y025224D03*
X056945Y031091D03*
X059780Y025028D03*
X058874Y033925D03*
X065291Y025028D03*
X059780Y021484D03*
X065291D03*
G54D138*
X049819Y033965D03*
X050508D03*
X047614Y025579D03*
X048303D03*
G54D139*
X038480Y030224D03*
X037772D03*
X039307D03*
X040016D03*
X050528Y034752D03*
X049819D03*
X049740Y025579D03*
X050449D03*
X031596Y024201D03*
X032304D03*
X031596Y025972D03*
X032304D03*
X025769Y025461D03*
X026477D03*
X031596Y025106D03*
X032304D03*
X025769Y023650D03*
X026477D03*
X025769Y024555D03*
X026477D03*
X032855Y039831D03*
X033564D03*
X032855Y041642D03*
X033564D03*
X032855Y040736D03*
X033564D03*
X032850Y042547D03*
X033559D03*
G54D140*
X033170Y024201D03*
Y025972D03*
X027344Y025461D03*
X033170Y025106D03*
X027344Y023650D03*
Y024555D03*
X034430Y039831D03*
Y041642D03*
Y040736D03*
Y042547D03*
G54D141*
X034458Y024201D03*
Y025972D03*
X028631Y025461D03*
X034458Y025106D03*
X028631Y023650D03*
Y024555D03*
X035718Y039831D03*
Y041642D03*
Y040736D03*
Y042547D03*
G54D142*
X050449Y030421D03*
X044016Y035453D03*
Y033453D03*
Y034453D03*
X045016D03*
Y035453D03*
X040945D03*
Y034453D03*
X041945D03*
Y035453D03*
X030291Y027524D03*
X031291D03*
G54D143*
X041866Y030854D03*
G54D144*
X046354Y033920D03*
Y034920D03*
X040945Y033453D03*
G54D145*
X045016Y033453D03*
X041945D03*
G54D146*
X046173Y042587D03*
X050173D03*
X055780Y046681D03*
X059780D03*
X028291Y027524D03*
X029291D03*
X032291D03*
X033291D03*
X034291D03*
X035291D03*
Y021524D03*
X034291D03*
X033291D03*
X032291D03*
X031291D03*
X030291D03*
X029291D03*
X028291D03*
G54D147*
X038701Y048138D03*
X045819Y048059D03*
X048953Y048665D03*
G54D148*
X039701Y048138D03*
X044819Y048059D03*
G54D149*
X059268Y035067D03*
Y039594D03*
Y042350D03*
X057417Y035067D03*
G54D150*
X041260Y048945D03*
X042260D03*
X043260D03*
G54D151*
X042260Y041661D03*
G54D152*
X031472Y045736D03*
Y048689D03*
G54D153*
X048963Y046675D03*
G54D154*
X038323Y040185D03*
Y039398D03*
Y038610D03*
Y037823D03*
Y037035D03*
Y036248D03*
Y035461D03*
Y034673D03*
Y033886D03*
X029661Y033098D03*
Y033886D03*
Y034673D03*
Y035461D03*
Y036248D03*
Y037035D03*
Y037823D03*
Y038610D03*
Y039398D03*
Y040185D03*
G54D155*
X038323Y033098D03*
G54D156*
X022457Y030067D03*
Y048256D03*
X066787Y048335D03*
Y030146D03*
X061748Y045028D03*
G54D157*
X025331Y048256D03*
Y046602D03*
Y044949D03*
Y043295D03*
Y041642D03*
Y039988D03*
Y038335D03*
Y036681D03*
Y035028D03*
Y033374D03*
Y031720D03*
Y030067D03*
X027496Y048256D03*
Y046602D03*
Y044949D03*
Y043295D03*
Y041642D03*
Y039988D03*
Y038335D03*
Y036681D03*
Y035028D03*
Y033374D03*
Y031720D03*
Y030067D03*
X063913Y030146D03*
Y031799D03*
Y033453D03*
Y035106D03*
Y036760D03*
Y038413D03*
Y040067D03*
Y045028D03*
Y046681D03*
Y048335D03*
X061748Y030146D03*
Y031799D03*
Y033453D03*
Y035106D03*
Y036760D03*
Y038413D03*
Y040067D03*
Y046681D03*
Y048335D03*
G54D158*
X063913Y041720D03*
Y043374D03*
X061748Y041720D03*
Y043374D03*
G54D159*
X047339Y030618D03*
X049465Y024161D03*
X041394Y037980D03*
Y037469D03*
X047969Y037783D03*
X048717Y037429D03*
X050213Y036720D03*
X050055Y041169D03*
X051079Y029476D03*
Y028846D03*
X041787Y029752D03*
X047614Y034988D03*
X048717Y034949D03*
X041354Y036563D03*
X047693Y042587D03*
X051984Y041996D03*
X048323Y043020D03*
X048638Y041209D03*
X049268Y041248D03*
X048087Y041169D03*
X039071Y043965D03*
X049583Y038059D03*
X049504Y022941D03*
X055149Y032769D03*
X056472Y036130D03*
X045134Y044713D03*
X031748Y028256D03*
X053717Y043295D03*
X053205Y041642D03*
X053756Y046406D03*
X045921Y040539D03*
X035016Y045657D03*
X051551Y025854D03*
X046197Y025618D03*
X036389Y028335D03*
X056392Y048805D03*
X055055Y048807D03*
X053744Y044307D03*
X046039Y038217D03*
X042890Y028846D03*
X045449Y036799D03*
X041157Y027626D03*
X042063Y026327D03*
X046039Y029713D03*
X038244Y026563D03*
X044032Y031406D03*
X043638Y026681D03*
X046039Y029004D03*
X043047Y026012D03*
X047024Y029516D03*
X061605Y023349D03*
X061551Y026878D03*
X055213Y037823D03*
X067117Y026893D03*
X055685Y021917D03*
X066354Y029043D03*
X055149Y027611D03*
X059898Y028295D03*
X052378Y034319D03*
X053598Y037587D03*
X053992Y032469D03*
X056591Y032980D03*
X053717Y031642D03*
X056512Y030579D03*
X053205Y031051D03*
X053756Y029004D03*
X060449Y025028D03*
X052299Y029083D03*
X065921Y024909D03*
X052181Y029713D03*
X052929Y022705D03*
X053756Y028374D03*
X052654Y023650D03*
X053756Y027705D03*
X052732Y024516D03*
X053874Y027075D03*
X049504Y039358D03*
X050173Y039398D03*
X050567Y038886D03*
X052457Y038020D03*
X028520Y028846D03*
X032732Y030146D03*
X035016Y028374D03*
X036866Y043650D03*
X040370Y046839D03*
X039898Y031720D03*
X046354Y032626D03*
X032378Y029201D03*
X030843Y029634D03*
X048087Y036760D03*
X040291Y039161D03*
X032378Y031248D03*
X030370Y031760D03*
X032339Y030618D03*
X039780Y034988D03*
X030291Y030539D03*
X045370Y028610D03*
X047024Y028020D03*
X050961Y031130D03*
X049937Y037429D03*
G54D160*
X051433Y041051D03*
X051591Y040579D03*
G54D161*
X050961Y043886D03*
X050843Y041169D03*
G54D162*
X042181Y036524D03*
X060252Y048768D03*
X029976Y024161D03*
X037575Y028571D03*
X051118Y024791D03*
X045764Y036130D03*
X059740Y049319D03*
X060055Y048020D03*
X051512Y024437D03*
X030331Y023768D03*
X041748Y047980D03*
X043047Y047902D03*
M02*